Vesper Devanagari Libre-Bold.ufo
<glyph name="comma" format="1">
  <advance width="614"/>
  <unicode hex="002C"/>
  <outline>
    <contour>
      <point x="89" y="122"/>
      <point x="157" y="33"/>
      <point x="249" y="-28" type="curve"/>
      <point x="118" y="-318" type="line"/>
      <point x="236" y="-335" type="line"/>
      <point x="349" y="-242"/>
      <point x="439" y="-121"/>
      <point x="480" y="-19" type="curve" smooth="yes"/>
      <point x="498" y="26"/>
      <point x="516" y="109"/>
      <point x="516" y="164" type="curve" smooth="yes"/>
      <point x="516" y="205"/>
      <point x="447" y="287"/>
      <point x="386" y="333" type="curve" smooth="yes"/>
      <point x="349" y="360"/>
      <point x="324" y="374"/>
      <point x="294" y="374" type="curve" smooth="yes"/>
      <point x="249" y="374"/>
      <point x="171" y="298"/>
      <point x="124" y="234" type="curve" smooth="yes"/>
      <point x="103" y="206"/>
      <point x="89" y="180"/>
      <point x="89" y="164" type="curve" smooth="yes"/>
    </contour>
  </outline>
</glyph>
<glyph name="two" format="1">
  <advance width="1250"/>
  <unicode hex="0032"/>
  <outline>
    <contour>
      <point x="290" y="821" type="line"/>
      <point x="402" y="1078" type="line"/>
      <point x="444" y="1088"/>
      <point x="475" y="1090"/>
      <point x="516" y="1090" type="curve" smooth="yes"/>
      <point x="605" y="1090"/>
      <point x="681" y="1055"/>
      <point x="705" y="991" type="curve" smooth="yes"/>
      <point x="715" y="965"/>
      <point x="719" y="932"/>
      <point x="719" y="897" type="curve" smooth="yes"/>
      <point x="719" y="791"/>
      <point x="638" y="669"/>
      <point x="580" y="601" type="curve" smooth="yes"/>
      <point x="475" y="478"/>
      <point x="228" y="229"/>
      <point x="108" y="89" type="curve"/>
      <point x="144" y="0" type="line"/>
      <point x="1060" y="0" type="line"/>
      <point x="1132" y="314" type="line"/>
      <point x="1003" y="327" type="line"/>
      <point x="888" y="145" type="line"/>
      <point x="427" y="94" type="line"/>
      <point x="705" y="319"/>
      <point x="1083" y="599"/>
      <point x="1083" y="897" type="curve" smooth="yes"/>
      <point x="1083" y="1092"/>
      <point x="894" y="1212"/>
      <point x="606" y="1212" type="curve" smooth="yes"/>
      <point x="544" y="1212"/>
      <point x="331" y="1196"/>
      <point x="165" y="1123" type="curve"/>
      <point x="162" y="842" type="line"/>
    </contour>
  </outline>
</glyph>
<glyph name="five" format="1">
  <advance width="1097"/>
  <unicode hex="0035"/>
  <outline>
    <contour>
      <point x="122" y="-67" type="line"/>
      <point x="503" y="-62"/>
      <point x="939" y="-18"/>
      <point x="939" y="398" type="curve" smooth="yes"/>
      <point x="939" y="587"/>
      <point x="801" y="718"/>
      <point x="569" y="718" type="curve" smooth="yes"/>
      <point x="535" y="718"/>
      <point x="494" y="717"/>
      <point x="454" y="714" type="curve"/>
      <point x="466" y="1041" type="line"/>
      <point x="870" y="994" type="line"/>
      <point x="968" y="1187" type="line"/>
      <point x="196" y="1187" type="line"/>
      <point x="121" y="615" type="line"/>
      <point x="156" y="617"/>
      <point x="228" y="620"/>
      <point x="283" y="620" type="curve" smooth="yes"/>
      <point x="443" y="620"/>
      <point x="581" y="560"/>
      <point x="581" y="376" type="curve" smooth="yes"/>
      <point x="581" y="150"/>
      <point x="298" y="71"/>
      <point x="103" y="21" type="curve"/>
    </contour>
  </outline>
</glyph>
<glyph name="eight" format="1">
  <advance width="1234"/>
  <unicode hex="0038"/>
  <outline>
    <contour>
      <point x="140" y="44"/>
      <point x="377" y="-33"/>
      <point x="625" y="-33" type="curve" smooth="yes"/>
      <point x="903" y="-33"/>
      <point x="1094" y="51"/>
      <point x="1094" y="290" type="curve" smooth="yes"/>
      <point x="1094" y="461"/>
      <point x="995" y="548"/>
      <point x="867" y="620" type="curve"/>
      <point x="968" y="688"/>
      <point x="1061" y="771"/>
      <point x="1061" y="919" type="curve" smooth="yes"/>
      <point x="1061" y="1135"/>
      <point x="860" y="1212"/>
      <point x="624" y="1212" type="curve" smooth="yes"/>
      <point x="360" y="1212"/>
      <point x="170" y="1096"/>
      <point x="170" y="899" type="curve" smooth="yes"/>
      <point x="170" y="741"/>
      <point x="256" y="664"/>
      <point x="369" y="596" type="curve"/>
      <point x="247" y="525"/>
      <point x="140" y="437"/>
      <point x="140" y="279" type="curve" smooth="yes"/>
    </contour>
    <contour>
      <point x="686" y="716"/>
      <point x="554" y="797"/>
      <point x="519" y="845" type="curve" smooth="yes"/>
      <point x="488" y="888"/>
      <point x="474" y="933"/>
      <point x="474" y="985" type="curve" smooth="yes"/>
      <point x="474" y="1026"/>
      <point x="478" y="1064"/>
      <point x="508" y="1088" type="curve" smooth="yes"/>
      <point x="524" y="1101"/>
      <point x="540" y="1106"/>
      <point x="569" y="1106" type="curve" smooth="yes"/>
      <point x="664" y="1106"/>
      <point x="757" y="987"/>
      <point x="757" y="868" type="curve" smooth="yes"/>
      <point x="757" y="803"/>
      <point x="756" y="752"/>
      <point x="727" y="695" type="curve"/>
    </contour>
    <contour>
      <point x="466" y="411"/>
      <point x="469" y="471"/>
      <point x="495" y="526" type="curve"/>
      <point x="543" y="503"/>
      <point x="681" y="417"/>
      <point x="718" y="370" type="curve" smooth="yes"/>
      <point x="753" y="325"/>
      <point x="766" y="275"/>
      <point x="766" y="219" type="curve" smooth="yes"/>
      <point x="766" y="169"/>
      <point x="765" y="119"/>
      <point x="728" y="92" type="curve"/>
      <point x="718" y="84"/>
      <point x="701" y="80"/>
      <point x="670" y="80" type="curve" smooth="yes"/>
      <point x="558" y="80"/>
      <point x="466" y="186"/>
      <point x="466" y="341" type="curve" smooth="yes"/>
    </contour>
  </outline>
</glyph>
<glyph name="at" format="1">
  <advance width="1815"/>
  <unicode hex="0040"/>
  <outline>
    <contour>
      <point x="1262" y="726" type="line"/>
      <point x="1286" y="866" type="line"/>
      <point x="1163" y="863" type="line"/>
      <point x="1126" y="893"/>
      <point x="1055" y="915"/>
      <point x="979" y="915" type="curve" smooth="yes"/>
      <point x="686" y="915"/>
      <point x="458" y="613"/>
      <point x="458" y="332" type="curve" smooth="yes"/>
      <point x="458" y="131"/>
      <point x="590" y="40"/>
      <point x="744" y="40" type="curve" smooth="yes"/>
      <point x="813" y="40"/>
      <point x="876" y="105"/>
      <point x="916" y="172" type="curve"/>
      <point x="933" y="172" type="line"/>
      <point x="945" y="130"/>
      <point x="1004" y="40"/>
      <point x="1090" y="40" type="curve" smooth="yes"/>
      <point x="1326" y="40"/>
      <point x="1711" y="246"/>
      <point x="1711" y="611" type="curve" smooth="yes"/>
      <point x="1711" y="936"/>
      <point x="1546" y="1214"/>
      <point x="1024" y="1214" type="curve" smooth="yes"/>
      <point x="504" y="1214"/>
      <point x="69" y="841"/>
      <point x="69" y="332" type="curve" smooth="yes"/>
      <point x="69" y="-68"/>
      <point x="323" y="-295"/>
      <point x="753" y="-295" type="curve" smooth="yes"/>
      <point x="1029" y="-295"/>
      <point x="1186" y="-197"/>
      <point x="1262" y="-136" type="curve"/>
      <point x="1001" y="-79" type="line"/>
      <point x="944" y="-117"/>
      <point x="866" y="-163"/>
      <point x="793" y="-163" type="curve" smooth="yes"/>
      <point x="590" y="-163"/>
      <point x="361" y="-10"/>
      <point x="361" y="351" type="curve" smooth="yes"/>
      <point x="361" y="741"/>
      <point x="667" y="1079"/>
      <point x="980" y="1079" type="curve" smooth="yes"/>
      <point x="1247" y="1079"/>
      <point x="1421" y="879"/>
      <point x="1421" y="597" type="curve" smooth="yes"/>
      <point x="1421" y="356"/>
      <point x="1324" y="166"/>
      <point x="1249" y="166" type="curve" smooth="yes"/>
      <point x="1235" y="166"/>
      <point x="1216" y="179"/>
      <point x="1203" y="195" type="curve"/>
    </contour>
    <contour>
      <point x="936" y="814"/>
      <point x="972" y="765"/>
      <point x="987" y="645" type="curve"/>
      <point x="911" y="237" type="line"/>
      <point x="880" y="207"/>
      <point x="839" y="189"/>
      <point x="808" y="187" type="curve"/>
      <point x="782" y="224"/>
      <point x="774" y="306"/>
      <point x="774" y="385" type="curve" smooth="yes"/>
      <point x="774" y="587"/>
      <point x="835" y="771"/>
      <point x="896" y="816" type="curve"/>
    </contour>
  </outline>
</glyph>
<glyph name="B" format="1">
  <advance width="1454"/>
  <unicode hex="0042"/>
  <outline>
    <contour>
      <point x="53" y="0" type="line"/>
      <point x="687" y="0" type="line" smooth="yes"/>
      <point x="1208" y="0"/>
      <point x="1381" y="131"/>
      <point x="1381" y="387" type="curve" smooth="yes"/>
      <point x="1381" y="586"/>
      <point x="1213" y="719"/>
      <point x="989" y="736" type="curve"/>
      <point x="1166" y="766"/>
      <point x="1319" y="867"/>
      <point x="1319" y="1060" type="curve" smooth="yes"/>
      <point x="1319" y="1384"/>
      <point x="950" y="1384"/>
      <point x="496" y="1384" type="curve" smooth="yes"/>
      <point x="75" y="1384" type="line"/>
      <point x="58" y="1305" type="line"/>
      <point x="245" y="1221" type="line"/>
      <point x="245" y="164" type="line"/>
      <point x="70" y="85" type="line"/>
    </contour>
    <contour>
      <point x="946" y="909"/>
      <point x="871" y="807"/>
      <point x="734" y="754" type="curve"/>
      <point x="726" y="695" type="line"/>
      <point x="853" y="663"/>
      <point x="999" y="569"/>
      <point x="999" y="387" type="curve" smooth="yes"/>
      <point x="999" y="179"/>
      <point x="833" y="117"/>
      <point x="615" y="81" type="curve"/>
      <point x="615" y="1305" type="line"/>
      <point x="770" y="1288"/>
      <point x="946" y="1235"/>
      <point x="946" y="1051" type="curve" smooth="yes"/>
    </contour>
    <contour>
      <point x="677" y="1384" type="move" name="top"/>
    </contour>
  </outline>
</glyph>
<glyph name="G" format="1">
  <advance width="1528"/>
  <unicode hex="0047"/>
  <outline>
    <contour>
      <point x="1015" y="498" type="line"/>
      <point x="1015" y="151" type="line"/>
      <point x="976" y="132"/>
      <point x="904" y="121"/>
      <point x="851" y="121" type="curve" smooth="yes"/>
      <point x="770" y="121"/>
      <point x="665" y="143"/>
      <point x="584" y="241" type="curve" smooth="yes"/>
      <point x="508" y="332"/>
      <point x="452" y="490"/>
      <point x="452" y="722" type="curve" smooth="yes"/>
      <point x="452" y="954"/>
      <point x="487" y="1162"/>
      <point x="568" y="1231" type="curve" smooth="yes"/>
      <point x="602" y="1260"/>
      <point x="700" y="1271"/>
      <point x="777" y="1271" type="curve" smooth="yes"/>
      <point x="895" y="1271"/>
      <point x="1030" y="1236"/>
      <point x="1119" y="1164" type="curve"/>
      <point x="1188" y="998" type="line"/>
      <point x="1328" y="1018" type="line"/>
      <point x="1285" y="1399" type="line"/>
      <point x="1123" y="1386" type="line"/>
      <point x="1018" y="1408"/>
      <point x="903" y="1418"/>
      <point x="806" y="1418" type="curve" smooth="yes"/>
      <point x="624" y="1418"/>
      <point x="467" y="1364"/>
      <point x="345" y="1269" type="curve" smooth="yes"/>
      <point x="172" y="1134"/>
      <point x="71" y="916"/>
      <point x="71" y="653" type="curve" smooth="yes"/>
      <point x="71" y="431"/>
      <point x="137" y="264"/>
      <point x="254" y="150" type="curve" smooth="yes"/>
      <point x="382" y="26"/>
      <point x="572" y="-35"/>
      <point x="807" y="-35" type="curve" smooth="yes"/>
      <point x="1047" y="-35"/>
      <point x="1279" y="86"/>
      <point x="1377" y="214" type="curve"/>
      <point x="1378" y="490" type="line"/>
      <point x="1500" y="577" type="line"/>
      <point x="1514" y="666" type="line"/>
      <point x="752" y="666" type="line"/>
      <point x="737" y="584" type="line"/>
    </contour>
    <contour>
      <point x="796" y="1382" type="move" name="top"/>
    </contour>
    <contour>
      <point x="856" y="0" type="move" name="bottom"/>
    </contour>
  </outline>
</glyph>
<glyph name="H" format="1">
  <advance width="1745"/>
  <unicode hex="0048"/>
  <outline>
    <contour>
      <point x="606" y="168" type="line"/>
      <point x="606" y="589" type="line"/>
      <point x="784" y="594"/>
      <point x="961" y="600"/>
      <point x="1139" y="610" type="curve"/>
      <point x="1139" y="166" type="line"/>
      <point x="945" y="86" type="line"/>
      <point x="928" y="0" type="line"/>
      <point x="1670" y="0" type="line"/>
      <point x="1687" y="80" type="line"/>
      <point x="1499" y="163" type="line"/>
      <point x="1499" y="1220" type="line"/>
      <point x="1679" y="1301" type="line"/>
      <point x="1696" y="1384" type="line"/>
      <point x="982" y="1384" type="line"/>
      <point x="965" y="1304" type="line"/>
      <point x="1139" y="1221" type="line"/>
      <point x="1139" y="782" type="line"/>
      <point x="606" y="782" type="line"/>
      <point x="606" y="1215" type="line"/>
      <point x="770" y="1295" type="line"/>
      <point x="789" y="1384" type="line"/>
      <point x="76" y="1384" type="line"/>
      <point x="59" y="1304" type="line"/>
      <point x="246" y="1221" type="line"/>
      <point x="246" y="166" type="line"/>
      <point x="68" y="86" type="line"/>
      <point x="50" y="0" type="line"/>
      <point x="792" y="0" type="line"/>
      <point x="812" y="86" type="line"/>
    </contour>
    <contour>
      <point x="873" y="692" type="move" name="center"/>
    </contour>
    <contour>
      <point x="870" y="0" type="move" name="bottom"/>
    </contour>
    <contour>
      <point x="873" y="1384" type="move" name="top"/>
    </contour>
  </outline>
</glyph>
<glyph name="d" format="1">
  <advance width="1256"/>
  <unicode hex="0064"/>
  <outline>
    <contour>
      <point x="1079" y="1472" type="line"/>
      <point x="606" y="1412" type="line"/>
      <point x="597" y="1366" type="line"/>
      <point x="735" y="1271" type="line"/>
      <point x="735" y="865" type="line"/>
      <point x="657" y="930"/>
      <point x="582" y="975"/>
      <point x="491" y="975" type="curve" smooth="yes"/>
      <point x="203" y="975"/>
      <point x="59" y="712"/>
      <point x="59" y="441" type="curve" smooth="yes"/>
      <point x="59" y="106"/>
      <point x="252" y="-25"/>
      <point x="448" y="-25" type="curve" smooth="yes"/>
      <point x="595" y="-25"/>
      <point x="701" y="49"/>
      <point x="779" y="134" type="curve"/>
      <point x="851" y="95"/>
      <point x="898" y="50"/>
      <point x="953" y="-25" type="curve"/>
      <point x="1063" y="-25"/>
      <point x="1211" y="22"/>
      <point x="1238" y="33" type="curve"/>
      <point x="1253" y="94" type="line"/>
      <point x="1217" y="103"/>
      <point x="1112" y="131"/>
      <point x="1079" y="199" type="curve"/>
    </contour>
    <contour>
      <point x="421" y="318"/>
      <point x="410" y="420"/>
      <point x="410" y="531" type="curve" smooth="yes"/>
      <point x="410" y="608"/>
      <point x="417" y="682"/>
      <point x="438" y="739" type="curve" smooth="yes"/>
      <point x="457" y="789"/>
      <point x="495" y="796"/>
      <point x="551" y="796" type="curve" smooth="yes"/>
      <point x="616" y="796"/>
      <point x="681" y="791"/>
      <point x="735" y="779" type="curve"/>
      <point x="735" y="178" type="line"/>
      <point x="710" y="164"/>
      <point x="635" y="152"/>
      <point x="594" y="152" type="curve" smooth="yes"/>
      <point x="554" y="152"/>
      <point x="507" y="183"/>
      <point x="481" y="224" type="curve" smooth="yes"/>
    </contour>
    <contour>
      <point x="666" y="0" type="move" name="bottom"/>
    </contour>
    <contour>
      <point x="1078" y="1447" type="move" name="topright"/>
    </contour>
    <contour>
      <point x="349" y="950" type="move" name="lc-top"/>
    </contour>
    <contour>
      <point x="629" y="475" type="move" name="center"/>
    </contour>
  </outline>
</glyph>
<glyph name="w" format="1">
  <advance width="1673"/>
  <unicode hex="0077"/>
  <outline>
    <contour>
      <point x="1249" y="950" type="line"/>
      <point x="1238" y="885" type="line"/>
      <point x="1392" y="824" type="line"/>
      <point x="1244" y="213" type="line"/>
      <point x="977" y="950" type="line"/>
      <point x="827" y="950" type="line"/>
      <point x="615" y="213" type="line"/>
      <point x="462" y="826" type="line"/>
      <point x="564" y="877" type="line"/>
      <point x="578" y="950" type="line"/>
      <point x="-19" y="950" type="line"/>
      <point x="-31" y="886" type="line"/>
      <point x="113" y="821" type="line"/>
      <point x="380" y="-25" type="line"/>
      <point x="684" y="0" type="line"/>
      <point x="827" y="451" type="line"/>
      <point x="998" y="-25" type="line"/>
      <point x="1315" y="0" type="line"/>
      <point x="1552" y="819" type="line"/>
      <point x="1679" y="877" type="line"/>
      <point x="1693" y="950" type="line"/>
    </contour>
    <contour>
      <point x="836" y="950" type="move" name="top"/>
    </contour>
  </outline>
</glyph>
<glyph name="braceright" format="1">
  <advance width="668"/>
  <unicode hex="007D"/>
  <outline>
    <contour>
      <point x="393" y="576"/>
      <point x="227" y="537"/>
      <point x="227" y="360" type="curve" smooth="yes"/>
      <point x="227" y="-151" type="line"/>
      <point x="14" y="-270" type="line"/>
      <point x="1" y="-341" type="line"/>
      <point x="450" y="-341"/>
      <point x="478" y="-288"/>
      <point x="478" y="-140" type="curve" smooth="yes"/>
      <point x="478" y="390" type="line" smooth="yes"/>
      <point x="478" y="464"/>
      <point x="569" y="520"/>
      <point x="615" y="545" type="curve" smooth="yes"/>
      <point x="622" y="549"/>
      <point x="636" y="562"/>
      <point x="636" y="578" type="curve" smooth="yes"/>
      <point x="636" y="594"/>
      <point x="624" y="605"/>
      <point x="615" y="610" type="curve" smooth="yes"/>
      <point x="561" y="638"/>
      <point x="478" y="685"/>
      <point x="478" y="757" type="curve" smooth="yes"/>
      <point x="478" y="1296" type="line" smooth="yes"/>
      <point x="478" y="1444"/>
      <point x="448" y="1497"/>
      <point x="21" y="1497" type="curve"/>
      <point x="3" y="1425" type="line"/>
      <point x="227" y="1312" type="line"/>
      <point x="227" y="797" type="line" smooth="yes"/>
      <point x="227" y="618"/>
      <point x="393" y="580"/>
      <point x="402" y="578" type="curve"/>
    </contour>
  </outline>
</glyph>
<glyph name="sterling" format="1">
  <advance width="1397"/>
  <unicode hex="00A3"/>
  <outline>
    <contour>
      <point x="1115" y="739" type="line"/>
      <point x="698" y="739" type="line"/>
      <point x="727" y="931" type="line" smooth="yes"/>
      <point x="733" y="968"/>
      <point x="761" y="1144"/>
      <point x="797" y="1182" type="curve" smooth="yes"/>
      <point x="840" y="1228"/>
      <point x="893" y="1244"/>
      <point x="951" y="1244" type="curve" smooth="yes"/>
      <point x="978" y="1244"/>
      <point x="1012" y="1239"/>
      <point x="1039" y="1220" type="curve"/>
      <point x="1140" y="1006" type="line"/>
      <point x="1281" y="1034" type="line"/>
      <point x="1249" y="1345" type="line"/>
      <point x="1120" y="1336" type="line"/>
      <point x="1101" y="1342"/>
      <point x="1014" y="1365"/>
      <point x="937" y="1365" type="curve" smooth="yes"/>
      <point x="547" y="1365"/>
      <point x="385" y="1217"/>
      <point x="352" y="988" type="curve" smooth="yes"/>
      <point x="316" y="739" type="line"/>
      <point x="102" y="739" type="line"/>
      <point x="80" y="632" type="line"/>
      <point x="292" y="571" type="line"/>
      <point x="235" y="166" type="line"/>
      <point x="56" y="85" type="line"/>
      <point x="41" y="0" type="line"/>
      <point x="1248" y="0" type="line"/>
      <point x="1332" y="324" type="line"/>
      <point x="1198" y="341" type="line"/>
      <point x="1078" y="154" type="line"/>
      <point x="609" y="100" type="line"/>
      <point x="674" y="568" type="line"/>
      <point x="1106" y="656" type="line"/>
    </contour>
  </outline>
</glyph>
<glyph name="section" format="1">
  <advance width="1112"/>
  <unicode hex="00A7"/>
  <outline>
    <contour>
      <point x="674" y="524" type="line"/>
      <point x="892" y="524"/>
      <point x="1018" y="644"/>
      <point x="1018" y="798" type="curve" smooth="yes"/>
      <point x="1018" y="941"/>
      <point x="965" y="1034"/>
      <point x="703" y="1149" type="curve" smooth="yes"/>
      <point x="564" y="1210"/>
      <point x="427" y="1251"/>
      <point x="427" y="1304" type="curve" smooth="yes"/>
      <point x="427" y="1322"/>
      <point x="430" y="1332"/>
      <point x="438" y="1344" type="curve"/>
      <point x="474" y="1393"/>
      <point x="563" y="1455"/>
      <point x="691" y="1455" type="curve"/>
      <point x="723" y="1281" type="line"/>
      <point x="744" y="1250"/>
      <point x="800" y="1200"/>
      <point x="835" y="1200" type="curve" smooth="yes"/>
      <point x="871" y="1200"/>
      <point x="1018" y="1333"/>
      <point x="1018" y="1407" type="curve" smooth="yes"/>
      <point x="1018" y="1472"/>
      <point x="812" y="1577"/>
      <point x="595" y="1577" type="curve" smooth="yes"/>
      <point x="310" y="1577"/>
      <point x="94" y="1441"/>
      <point x="94" y="1237" type="curve" smooth="yes"/>
      <point x="94" y="1081"/>
      <point x="207" y="983"/>
      <point x="398" y="913" type="curve" smooth="yes"/>
      <point x="593" y="841"/>
      <point x="724" y="787"/>
      <point x="724" y="692" type="curve" smooth="yes"/>
      <point x="724" y="667"/>
      <point x="714" y="650"/>
      <point x="690" y="631" type="curve"/>
    </contour>
    <contour>
      <point x="441" y="868" type="line"/>
      <point x="220" y="867"/>
      <point x="94" y="747"/>
      <point x="94" y="593" type="curve" smooth="yes"/>
      <point x="94" y="450"/>
      <point x="147" y="357"/>
      <point x="409" y="242" type="curve" smooth="yes"/>
      <point x="548" y="181"/>
      <point x="685" y="140"/>
      <point x="685" y="87" type="curve" smooth="yes"/>
      <point x="685" y="69"/>
      <point x="682" y="59"/>
      <point x="674" y="47" type="curve"/>
      <point x="638" y="-2"/>
      <point x="549" y="-64"/>
      <point x="421" y="-64" type="curve"/>
      <point x="389" y="110" type="line"/>
      <point x="368" y="141"/>
      <point x="312" y="191"/>
      <point x="277" y="191" type="curve" smooth="yes"/>
      <point x="241" y="191"/>
      <point x="94" y="58"/>
      <point x="94" y="-16" type="curve" smooth="yes"/>
      <point x="94" y="-81"/>
      <point x="300" y="-186"/>
      <point x="517" y="-186" type="curve" smooth="yes"/>
      <point x="802" y="-186"/>
      <point x="1018" y="-50"/>
      <point x="1018" y="154" type="curve" smooth="yes"/>
      <point x="1018" y="310"/>
      <point x="905" y="408"/>
      <point x="714" y="478" type="curve" smooth="yes"/>
      <point x="519" y="550"/>
      <point x="388" y="604"/>
      <point x="388" y="699" type="curve" smooth="yes"/>
      <point x="388" y="724"/>
      <point x="398" y="739"/>
      <point x="422" y="758" type="curve"/>
    </contour>
  </outline>
</glyph>
<glyph name="copyright" format="1">
  <advance width="1359"/>
  <unicode hex="00A9"/>
  <outline>
    <contour>
      <point x="92" y="186"/>
      <point x="290" y="-35"/>
      <point x="649" y="-35" type="curve" smooth="yes"/>
      <point x="1014" y="-35"/>
      <point x="1267" y="201"/>
      <point x="1267" y="582" type="curve" smooth="yes"/>
      <point x="1267" y="993"/>
      <point x="1028" y="1180"/>
      <point x="717" y="1180" type="curve" smooth="yes"/>
      <point x="345" y="1180"/>
      <point x="92" y="945"/>
      <point x="92" y="559" type="curve" smooth="yes"/>
    </contour>
    <contour>
      <point x="285" y="833"/>
      <point x="447" y="1009"/>
      <point x="661" y="1009" type="curve" smooth="yes"/>
      <point x="928" y="1009"/>
      <point x="1076" y="824"/>
      <point x="1076" y="551" type="curve" smooth="yes"/>
      <point x="1076" y="312"/>
      <point x="912" y="136"/>
      <point x="701" y="136" type="curve" smooth="yes"/>
      <point x="431" y="136"/>
      <point x="284" y="319"/>
      <point x="283" y="594" type="curve"/>
    </contour>
    <contour>
      <point x="386" y="375"/>
      <point x="502" y="244"/>
      <point x="682" y="244" type="curve" smooth="yes"/>
      <point x="791" y="244"/>
      <point x="870" y="298"/>
      <point x="935" y="367" type="curve"/>
      <point x="901" y="444" type="line"/>
      <point x="862" y="428"/>
      <point x="747" y="397"/>
      <point x="714" y="397" type="curve" smooth="yes"/>
      <point x="685" y="397"/>
      <point x="647" y="411"/>
      <point x="619" y="453" type="curve" smooth="yes"/>
      <point x="590" y="495"/>
      <point x="577" y="546"/>
      <point x="577" y="593" type="curve" smooth="yes"/>
      <point x="577" y="635"/>
      <point x="579" y="703"/>
      <point x="606" y="729" type="curve" smooth="yes"/>
      <point x="620" y="743"/>
      <point x="654" y="751"/>
      <point x="683" y="751" type="curve" smooth="yes"/>
      <point x="707" y="751"/>
      <point x="738" y="747"/>
      <point x="762" y="741" type="curve"/>
      <point x="815" y="634" type="line"/>
      <point x="903" y="658" type="line"/>
      <point x="877" y="899" type="line"/>
      <point x="814" y="889" type="line"/>
      <point x="795" y="893"/>
      <point x="746" y="903"/>
      <point x="705" y="903" type="curve" smooth="yes"/>
      <point x="498" y="903"/>
      <point x="386" y="754"/>
      <point x="386" y="557" type="curve" smooth="yes"/>
    </contour>
  </outline>
</glyph>
<glyph name="twosuperior" format="1">
  <advance width="774"/>
  <unicode hex="00B2"/>
  <outline>
    <contour>
      <point x="501" y="1158"/>
      <point x="685" y="1332"/>
      <point x="685" y="1488" type="curve" smooth="yes"/>
      <point x="685" y="1631"/>
      <point x="570" y="1724"/>
      <point x="358" y="1724" type="curve" smooth="yes"/>
      <point x="251" y="1724"/>
      <point x="149" y="1703"/>
      <point x="48" y="1651" type="curve"/>
      <point x="103" y="1523" type="line"/>
      <point x="166" y="1543"/>
      <point x="234" y="1556"/>
      <point x="277" y="1556" type="curve" smooth="yes"/>
      <point x="377" y="1556"/>
      <point x="407" y="1509"/>
      <point x="407" y="1461" type="curve" smooth="yes"/>
      <point x="407" y="1414"/>
      <point x="375" y="1347"/>
      <point x="309" y="1270" type="curve" smooth="yes"/>
      <point x="265" y="1219"/>
      <point x="57" y="977"/>
      <point x="26" y="944" type="curve"/>
      <point x="55" y="871" type="line"/>
      <point x="749" y="871" type="line"/>
      <point x="713" y="1058" type="line"/>
      <point x="588" y="1048"/>
      <point x="465" y="1034"/>
      <point x="346" y="1014" type="curve"/>
    </contour>
  </outline>
</glyph>
<glyph name="uni00B5" format="1">
  <advance width="1438"/>
  <unicode hex="00B5"/>
  <outline>
    <contour>
      <point x="1190" y="975" type="line"/>
      <point x="845" y="933" type="line"/>
      <point x="845" y="270" type="line"/>
      <point x="845" y="255" type="line"/>
      <point x="800" y="218"/>
      <point x="747" y="201"/>
      <point x="700" y="201" type="curve" smooth="yes"/>
      <point x="557" y="201"/>
      <point x="503" y="275"/>
      <point x="503" y="448" type="curve" smooth="yes"/>
      <point x="503" y="975" type="line"/>
      <point x="161" y="933" type="line"/>
      <point x="161" y="-500" type="line"/>
      <point x="503" y="-458" type="line"/>
      <point x="483" y="9" type="line"/>
      <point x="526" y="-22"/>
      <point x="581" y="-36"/>
      <point x="637" y="-36" type="curve" smooth="yes"/>
      <point x="719" y="-36"/>
      <point x="814" y="16"/>
      <point x="854" y="94" type="curve"/>
      <point x="869" y="5"/>
      <point x="912" y="-33"/>
      <point x="1033" y="-33" type="curve" smooth="yes"/>
      <point x="1106" y="-33"/>
      <point x="1226" y="-12"/>
      <point x="1389" y="30" type="curve"/>
      <point x="1397" y="108" type="line"/>
      <point x="1233" y="108"/>
      <point x="1190" y="123"/>
      <point x="1190" y="212" type="curve" smooth="yes"/>
    </contour>
  </outline>
</glyph>
<glyph name="paragraph" format="1">
  <advance width="1638"/>
  <unicode hex="00B6"/>
  <outline>
    <contour>
      <point x="525" y="-35" type="line"/>
      <point x="867" y="22" type="line"/>
      <point x="852" y="1225" type="line"/>
      <point x="1040" y="1225" type="line"/>
      <point x="1025" y="-35" type="line"/>
      <point x="1368" y="22" type="line"/>
      <point x="1368" y="1219" type="line"/>
      <point x="1548" y="1301" type="line"/>
      <point x="1566" y="1384" type="line"/>
      <point x="643" y="1384" type="line" smooth="yes"/>
      <point x="440" y="1384"/>
      <point x="306" y="1353"/>
      <point x="218" y="1285" type="curve" smooth="yes"/>
      <point x="130" y="1217"/>
      <point x="89" y="1126"/>
      <point x="89" y="997" type="curve" smooth="yes"/>
      <point x="89" y="881"/>
      <point x="128" y="797"/>
      <point x="213" y="727" type="curve" smooth="yes"/>
      <point x="293" y="661"/>
      <point x="395" y="626"/>
      <point x="537" y="616" type="curve"/>
    </contour>
  </outline>
</glyph>
<glyph name="Eth" format="1">
  <advance width="1548"/>
  <unicode hex="00D0"/>
  <outline>
    <contour>
      <point x="866" y="617" type="line"/>
      <point x="907" y="791" type="line"/>
      <point x="59" y="791" type="line"/>
      <point x="21" y="590" type="line"/>
    </contour>
    <component base="D"/>
  </outline>
</glyph>
<glyph name="ae" format="1">
  <advance width="1508"/>
  <unicode hex="00E6"/>
  <outline>
    <contour>
      <point x="51" y="125"/>
      <point x="127" y="-25"/>
      <point x="321" y="-25" type="curve" smooth="yes"/>
      <point x="495" y="-25"/>
      <point x="585" y="35"/>
      <point x="674" y="150" type="curve"/>
      <point x="759" y="36"/>
      <point x="916" y="-25"/>
      <point x="1070" y="-25" type="curve" smooth="yes"/>
      <point x="1202" y="-25"/>
      <point x="1338" y="28"/>
      <point x="1410" y="152" type="curve"/>
      <point x="1394" y="183" type="line"/>
      <point x="1355" y="171"/>
      <point x="1219" y="142"/>
      <point x="1150" y="142" type="curve" smooth="yes"/>
      <point x="1033" y="142"/>
      <point x="908" y="323"/>
      <point x="895" y="489" type="curve"/>
      <point x="1342" y="489" type="line" smooth="yes"/>
      <point x="1390" y="489"/>
      <point x="1409" y="503"/>
      <point x="1423" y="525" type="curve" smooth="yes"/>
      <point x="1451" y="570"/>
      <point x="1465" y="614"/>
      <point x="1465" y="657" type="curve" smooth="yes"/>
      <point x="1465" y="822"/>
      <point x="1343" y="975"/>
      <point x="1122" y="975" type="curve" smooth="yes"/>
      <point x="1020" y="975"/>
      <point x="929" y="954"/>
      <point x="851" y="918" type="curve"/>
      <point x="800" y="954"/>
      <point x="729" y="975"/>
      <point x="634" y="975" type="curve" smooth="yes"/>
      <point x="559" y="975"/>
      <point x="375" y="968"/>
      <point x="233" y="923" type="curve" smooth="yes"/>
      <point x="176" y="905"/>
      <point x="69" y="858"/>
      <point x="69" y="825" type="curve" smooth="yes"/>
      <point x="69" y="757"/>
      <point x="230" y="621"/>
      <point x="275" y="621" type="curve" smooth="yes"/>
      <point x="299" y="621"/>
      <point x="360" y="659"/>
      <point x="397" y="702" type="curve"/>
      <point x="424" y="868" type="line"/>
      <point x="436" y="872"/>
      <point x="452" y="875"/>
      <point x="468" y="875" type="curve" smooth="yes"/>
      <point x="498" y="875"/>
      <point x="530" y="867"/>
      <point x="549" y="851" type="curve" smooth="yes"/>
      <point x="606" y="802"/>
      <point x="613" y="665"/>
      <point x="613" y="575" type="curve" smooth="yes"/>
      <point x="613" y="531" type="line"/>
      <point x="554" y="536"/>
      <point x="496" y="540"/>
      <point x="441" y="540" type="curve" smooth="yes"/>
      <point x="356" y="540"/>
      <point x="274" y="524"/>
      <point x="212" y="500" type="curve" smooth="yes"/>
      <point x="98" y="456"/>
      <point x="51" y="383"/>
      <point x="51" y="241" type="curve" smooth="yes"/>
    </contour>
    <contour>
      <point x="895" y="564" type="line"/>
      <point x="899" y="705"/>
      <point x="922" y="802"/>
      <point x="939" y="837" type="curve"/>
      <point x="951" y="857"/>
      <point x="975" y="859"/>
      <point x="991" y="859" type="curve" smooth="yes"/>
      <point x="1075" y="859"/>
      <point x="1147" y="775"/>
      <point x="1147" y="612" type="curve"/>
    </contour>
    <contour>
      <point x="405" y="184"/>
      <point x="386" y="249"/>
      <point x="386" y="301" type="curve" smooth="yes"/>
      <point x="386" y="324"/>
      <point x="386" y="348"/>
      <point x="398" y="370" type="curve" smooth="yes"/>
      <point x="407" y="386"/>
      <point x="481" y="425"/>
      <point x="613" y="458" type="curve"/>
      <point x="613" y="182" type="line"/>
      <point x="578" y="149"/>
      <point x="502" y="135"/>
      <point x="454" y="135" type="curve" smooth="yes"/>
      <point x="443" y="135"/>
      <point x="432" y="140"/>
      <point x="426" y="150" type="curve" smooth="yes"/>
    </contour>
    <contour>
      <point x="832" y="950" type="move" name="top"/>
    </contour>
  </outline>
</glyph>
<glyph name="oslash" format="1">
  <advance width="1161"/>
  <unicode hex="00F8"/>
  <outline>
    <contour>
      <point x="917" y="1038" type="line"/>
      <point x="718" y="1094" type="line"/>
      <point x="671" y="970" type="line"/>
      <point x="643" y="973"/>
      <point x="614" y="975"/>
      <point x="585" y="975" type="curve" smooth="yes"/>
      <point x="267" y="975"/>
      <point x="51" y="731"/>
      <point x="51" y="466" type="curve" smooth="yes"/>
      <point x="51" y="252"/>
      <point x="147" y="112"/>
      <point x="294" y="39" type="curve"/>
      <point x="230" y="-114" type="line"/>
      <point x="436" y="-160" type="line"/>
      <point x="490" y="-18" type="line"/>
      <point x="523" y="-22"/>
      <point x="556" y="-24"/>
      <point x="591" y="-24" type="curve" smooth="yes"/>
      <point x="881" y="-24"/>
      <point x="1110" y="217"/>
      <point x="1110" y="494" type="curve" smooth="yes"/>
      <point x="1110" y="704"/>
      <point x="1012" y="843"/>
      <point x="866" y="915" type="curve"/>
    </contour>
    <contour>
      <point x="386" y="666"/>
      <point x="402" y="775"/>
      <point x="429" y="812" type="curve"/>
      <point x="440" y="826"/>
      <point x="467" y="838"/>
      <point x="508" y="838" type="curve" smooth="yes"/>
      <point x="549" y="838"/>
      <point x="584" y="834"/>
      <point x="615" y="825" type="curve"/>
      <point x="512" y="557" type="line"/>
      <point x="407" y="307" type="line"/>
      <point x="393" y="371"/>
      <point x="386" y="457"/>
      <point x="386" y="569" type="curve"/>
    </contour>
    <contour>
      <point x="720" y="122"/>
      <point x="691" y="118"/>
      <point x="653" y="118" type="curve" smooth="yes"/>
      <point x="612" y="118"/>
      <point x="577" y="121"/>
      <point x="546" y="130" type="curve"/>
      <point x="641" y="379" type="line"/>
      <point x="755" y="651" type="line"/>
      <point x="770" y="587"/>
      <point x="777" y="503"/>
      <point x="777" y="394" type="curve" smooth="yes"/>
      <point x="777" y="326"/>
      <point x="769" y="190"/>
      <point x="740" y="150" type="curve" smooth="yes"/>
    </contour>
    <contour>
      <point x="580" y="950" type="move" name="top"/>
    </contour>
  </outline>
</glyph>
<glyph name="eogonek" format="1">
  <advance width="1051"/>
  <unicode hex="0119"/>
  <outline>
    <contour>
      <point x="911" y="444" type="line" smooth="yes"/>
      <point x="950" y="444"/>
      <point x="969" y="457"/>
      <point x="980" y="479" type="curve" smooth="yes"/>
      <point x="1001" y="522"/>
      <point x="1008" y="568"/>
      <point x="1008" y="622" type="curve" smooth="yes"/>
      <point x="1008" y="821"/>
      <point x="849" y="975"/>
      <point x="593" y="975" type="curve" smooth="yes"/>
      <point x="257" y="975"/>
      <point x="51" y="726"/>
      <point x="51" y="459" type="curve" smooth="yes"/>
      <point x="51" y="197"/>
      <point x="207" y="48"/>
      <point x="389" y="-4" type="curve" smooth="yes"/>
      <point x="413" y="-11"/>
      <point x="439" y="-15"/>
      <point x="463" y="-19" type="curve"/>
      <point x="412" y="-50"/>
      <point x="363" y="-89"/>
      <point x="327" y="-135" type="curve"/>
      <point x="292" y="-176"/>
      <point x="269" y="-224"/>
      <point x="269" y="-277" type="curve" smooth="yes"/>
      <point x="269" y="-440"/>
      <point x="402" y="-504"/>
      <point x="532" y="-504" type="curve" smooth="yes"/>
      <point x="650" y="-504"/>
      <point x="760" y="-450"/>
      <point x="843" y="-351" type="curve"/>
      <point x="813" y="-306" type="line"/>
      <point x="749" y="-335"/>
      <point x="677" y="-355"/>
      <point x="637" y="-355" type="curve" smooth="yes"/>
      <point x="625" y="-355"/>
      <point x="613" y="-352"/>
      <point x="603" y="-347" type="curve" smooth="yes"/>
      <point x="562" y="-327"/>
      <point x="538" y="-273"/>
      <point x="538" y="-226" type="curve" smooth="yes"/>
      <point x="538" y="-135"/>
      <point x="616" y="-57"/>
      <point x="710" y="-9" type="curve" smooth="yes"/>
      <point x="779" y="26"/>
      <point x="867" y="50"/>
      <point x="949" y="152" type="curve"/>
      <point x="933" y="183" type="line"/>
      <point x="909" y="178"/>
      <point x="729" y="153"/>
      <point x="639" y="153" type="curve" smooth="yes"/>
      <point x="518" y="153"/>
      <point x="415" y="297"/>
      <point x="391" y="444" type="curve"/>
    </contour>
    <contour>
      <point x="386" y="533" type="line"/>
      <point x="388" y="679"/>
      <point x="406" y="762"/>
      <point x="436" y="810" type="curve" smooth="yes"/>
      <point x="447" y="828"/>
      <point x="468" y="829"/>
      <point x="487" y="829" type="curve" smooth="yes"/>
      <point x="600" y="829"/>
      <point x="700" y="745"/>
      <point x="720" y="582" type="curve"/>
    </contour>
  </outline>
</glyph>
<glyph name="iogonek" format="1">
  <advance width="703"/>
  <unicode hex="012F"/>
  <outline>
    <contour>
      <point x="401" y="1075"/>
      <point x="551" y="1217"/>
      <point x="551" y="1279" type="curve" smooth="yes"/>
      <point x="551" y="1330"/>
      <point x="415" y="1483"/>
      <point x="351" y="1483" type="curve" smooth="yes"/>
      <point x="291" y="1483"/>
      <point x="143" y="1338"/>
      <point x="143" y="1281" type="curve" smooth="yes"/>
      <point x="143" y="1226"/>
      <point x="283" y="1075"/>
      <point x="344" y="1075" type="curve" smooth="yes"/>
    </contour>
    <contour>
      <point x="96" y="-448"/>
      <point x="243" y="-504"/>
      <point x="359" y="-504" type="curve" smooth="yes"/>
      <point x="477" y="-504"/>
      <point x="587" y="-450"/>
      <point x="669" y="-353" type="curve"/>
      <point x="640" y="-307" type="line"/>
      <point x="583" y="-335"/>
      <point x="504" y="-355"/>
      <point x="464" y="-355" type="curve" smooth="yes"/>
      <point x="452" y="-355"/>
      <point x="440" y="-352"/>
      <point x="430" y="-347" type="curve" smooth="yes"/>
      <point x="389" y="-327"/>
      <point x="365" y="-273"/>
      <point x="365" y="-226" type="curve" smooth="yes"/>
      <point x="365" y="-159"/>
      <point x="460" y="-111"/>
      <point x="652" y="2" type="curve"/>
      <point x="665" y="60" type="line"/>
      <point x="532" y="140" type="line"/>
      <point x="532" y="965" type="line"/>
      <point x="59" y="909" type="line"/>
      <point x="51" y="860" type="line"/>
      <point x="188" y="769" type="line"/>
      <point x="188" y="150" type="line"/>
      <point x="58" y="72" type="line"/>
      <point x="42" y="0" type="line"/>
      <point x="422" y="0" type="line"/>
      <point x="275" y="-45"/>
      <point x="96" y="-140"/>
      <point x="96" y="-279" type="curve" smooth="yes"/>
    </contour>
  </outline>
</glyph>
<glyph name="Lslash" format="1">
  <advance width="1280"/>
  <unicode hex="0141"/>
  <outline>
    <contour>
      <point x="1089" y="898" type="line"/>
      <point x="1045" y="1092" type="line"/>
      <point x="-23" y="613" type="line"/>
      <point x="22" y="399" type="line"/>
    </contour>
    <component base="L"/>
  </outline>
</glyph>
<glyph name="lslash" format="1">
  <advance width="673"/>
  <unicode hex="0142"/>
  <outline>
    <contour>
      <point x="772" y="907" type="line"/>
      <point x="722" y="1072" type="line"/>
      <point x="-54" y="684" type="line"/>
      <point x="-11" y="519" type="line"/>
    </contour>
    <component base="l"/>
  </outline>
</glyph>
<glyph name="oe" format="1">
  <advance width="1662"/>
  <unicode hex="0153"/>
  <outline>
    <contour>
      <point x="1172" y="139"/>
      <point x="1047" y="321"/>
      <point x="1034" y="487" type="curve"/>
      <point x="1496" y="486" type="line" smooth="yes"/>
      <point x="1544" y="486"/>
      <point x="1563" y="500"/>
      <point x="1577" y="522" type="curve" smooth="yes"/>
      <point x="1605" y="567"/>
      <point x="1619" y="611"/>
      <point x="1619" y="654" type="curve" smooth="yes"/>
      <point x="1619" y="819"/>
      <point x="1491" y="972"/>
      <point x="1261" y="972" type="curve" smooth="yes"/>
      <point x="1122" y="973"/>
      <point x="1003" y="936"/>
      <point x="910" y="871" type="curve"/>
      <point x="821" y="940"/>
      <point x="702" y="973"/>
      <point x="573" y="973" type="curve" smooth="yes"/>
      <point x="262" y="973"/>
      <point x="51" y="711"/>
      <point x="51" y="434" type="curve" smooth="yes"/>
      <point x="51" y="113"/>
      <point x="279" y="-27"/>
      <point x="564" y="-27" type="curve" smooth="yes"/>
      <point x="680" y="-27"/>
      <point x="787" y="16"/>
      <point x="873" y="86" type="curve"/>
      <point x="973" y="10"/>
      <point x="1108" y="-27"/>
      <point x="1251" y="-28" type="curve" smooth="yes"/>
      <point x="1396" y="-28"/>
      <point x="1522" y="68"/>
      <point x="1580" y="149" type="curve"/>
      <point x="1562" y="179" type="line"/>
      <point x="1542" y="172"/>
      <point x="1387" y="139"/>
      <point x="1289" y="139" type="curve" smooth="yes"/>
    </contour>
    <contour>
      <point x="1090" y="854"/>
      <point x="1114" y="856"/>
      <point x="1130" y="856" type="curve" smooth="yes"/>
      <point x="1214" y="856"/>
      <point x="1286" y="772"/>
      <point x="1286" y="609" type="curve"/>
      <point x="1034" y="562" type="line"/>
      <point x="1038" y="703"/>
      <point x="1061" y="800"/>
      <point x="1078" y="834" type="curve"/>
    </contour>
    <contour>
      <point x="664" y="103"/>
      <point x="639" y="102"/>
      <point x="604" y="102" type="curve" smooth="yes"/>
      <point x="450" y="102"/>
      <point x="388" y="351"/>
      <point x="388" y="557" type="curve" smooth="yes"/>
      <point x="388" y="655"/>
      <point x="410" y="784"/>
      <point x="444" y="828" type="curve" smooth="yes"/>
      <point x="455" y="842"/>
      <point x="477" y="848"/>
      <point x="514" y="848" type="curve" smooth="yes"/>
      <point x="644" y="848"/>
      <point x="734" y="669"/>
      <point x="734" y="389" type="curve" smooth="yes"/>
      <point x="734" y="320"/>
      <point x="717" y="173"/>
      <point x="682" y="127" type="curve" smooth="yes"/>
    </contour>
    <contour>
      <point x="832" y="950" type="move" name="top"/>
    </contour>
  </outline>
</glyph>
<glyph name="tcaron" format="1">
  <advance width="836"/>
  <unicode hex="0165"/>
  <outline>
    <contour>
      <point x="721" y="1071" type="line"/>
      <point x="840" y="1206"/>
      <point x="916" y="1349"/>
      <point x="916" y="1459" type="curve" smooth="yes"/>
      <point x="916" y="1515"/>
      <point x="903" y="1553"/>
      <point x="879" y="1583" type="curve"/>
      <point x="592" y="1541" type="line"/>
      <point x="571" y="1399" type="line"/>
      <point x="686" y="1350" type="line"/>
      <point x="665" y="1268"/>
      <point x="636" y="1185"/>
      <point x="602" y="1103" type="curve"/>
    </contour>
    <component base="t"/>
  </outline>
</glyph>
<glyph name="uogonek" format="1">
  <advance width="1317"/>
  <unicode hex="0173"/>
  <outline>
    <contour>
      <point x="786" y="768" type="line"/>
      <point x="786" y="172" type="line"/>
      <point x="736" y="159"/>
      <point x="649" y="153"/>
      <point x="589" y="153" type="curve" smooth="yes"/>
      <point x="567" y="153"/>
      <point x="555" y="158"/>
      <point x="541" y="174" type="curve" smooth="yes"/>
      <point x="516" y="203"/>
      <point x="510" y="235"/>
      <point x="510" y="379" type="curve" smooth="yes"/>
      <point x="510" y="950" type="line"/>
      <point x="38" y="950" type="line"/>
      <point x="22" y="862" type="line"/>
      <point x="166" y="765" type="line"/>
      <point x="166" y="332" type="line" smooth="yes"/>
      <point x="166" y="58"/>
      <point x="314" y="-25"/>
      <point x="521" y="-25" type="curve" smooth="yes"/>
      <point x="653" y="-25"/>
      <point x="754" y="52"/>
      <point x="832" y="136" type="curve"/>
      <point x="894" y="110"/>
      <point x="938" y="57"/>
      <point x="983" y="5" type="curve"/>
      <point x="818" y="-41"/>
      <point x="672" y="-146"/>
      <point x="672" y="-277" type="curve" smooth="yes"/>
      <point x="672" y="-440"/>
      <point x="805" y="-504"/>
      <point x="935" y="-504" type="curve" smooth="yes"/>
      <point x="1053" y="-504"/>
      <point x="1162" y="-451"/>
      <point x="1245" y="-352" type="curve"/>
      <point x="1215" y="-306" type="line"/>
      <point x="1152" y="-336"/>
      <point x="1080" y="-355"/>
      <point x="1040" y="-355" type="curve" smooth="yes"/>
      <point x="1028" y="-355"/>
      <point x="1016" y="-352"/>
      <point x="1006" y="-347" type="curve" smooth="yes"/>
      <point x="965" y="-327"/>
      <point x="941" y="-273"/>
      <point x="941" y="-226" type="curve" smooth="yes"/>
      <point x="941" y="-72"/>
      <point x="1149" y="-11"/>
      <point x="1289" y="32" type="curve"/>
      <point x="1303" y="94" type="line"/>
      <point x="1268" y="103"/>
      <point x="1163" y="131"/>
      <point x="1130" y="199" type="curve"/>
      <point x="1130" y="950" type="line"/>
      <point x="678" y="950" type="line"/>
      <point x="663" y="858" type="line"/>
    </contour>
  </outline>
</glyph>
<glyph name="florin" format="1">
  <advance width="1219"/>
  <unicode hex="0192"/>
  <outline>
    <contour>
      <point x="1052" y="1112" type="line"/>
      <point x="1166" y="1092" type="line"/>
      <point x="1198" y="1204"/>
      <point x="1216" y="1317"/>
      <point x="1214" y="1434" type="curve"/>
      <point x="1133" y="1464"/>
      <point x="1035" y="1472"/>
      <point x="958" y="1472" type="curve" smooth="yes"/>
      <point x="654" y="1472"/>
      <point x="449" y="1259"/>
      <point x="385" y="950" type="curve"/>
      <point x="174" y="871" type="line"/>
      <point x="154" y="778" type="line"/>
      <point x="342" y="778" type="line"/>
      <point x="156" y="-119" type="line" smooth="yes"/>
      <point x="149" y="-151"/>
      <point x="121" y="-200"/>
      <point x="-97" y="-340" type="curve"/>
      <point x="-55" y="-498" type="line"/>
      <point x="140" y="-495"/>
      <point x="448" y="-389"/>
      <point x="528" y="49" type="curve" smooth="yes"/>
      <point x="662" y="778" type="line"/>
      <point x="967" y="863" type="line"/>
      <point x="987" y="950" type="line"/>
      <point x="710" y="950" type="line" smooth="yes"/>
      <point x="710" y="950"/>
      <point x="784" y="1279"/>
      <point x="850" y="1316" type="curve"/>
      <point x="871" y="1320"/>
      <point x="893" y="1323"/>
      <point x="914" y="1323" type="curve" smooth="yes"/>
      <point x="949" y="1323"/>
      <point x="982" y="1315"/>
      <point x="1010" y="1298" type="curve"/>
    </contour>
  </outline>
</glyph>
<glyph name="uni0326" format="1">
  <advance width="0"/>
  <unicode hex="0326"/>
  <outline>
    <contour>
      <point x="-669" y="-282" type="line"/>
      <point x="-589" y="-297"/>
      <point x="-536" y="-320"/>
      <point x="-535" y="-348" type="curve" smooth="yes"/>
      <point x="-534" y="-376"/>
      <point x="-548" y="-394"/>
      <point x="-678" y="-479" type="curve"/>
      <point x="-648" y="-561" type="line"/>
      <point x="-545" y="-561"/>
      <point x="-342" y="-482"/>
      <point x="-342" y="-319" type="curve" smooth="yes"/>
      <point x="-342" y="-259"/>
      <point x="-364" y="-214"/>
      <point x="-410" y="-176" type="curve" smooth="yes"/>
      <point x="-470" y="-126"/>
      <point x="-553" y="-106"/>
      <point x="-629" y="-106" type="curve"/>
    </contour>
    <contour>
      <point x="-495" y="0" type="move" name="_bottom"/>
    </contour>
  </outline>
</glyph>
<glyph name="visargadeva" format="1">
  <advance width="573"/>
  <unicode hex="0903"/>
  <note>
    dVisarga
  </note>
  <outline>
    <contour>
      <point x="276" y="561"/>
      <point x="405" y="679"/>
      <point x="405" y="738" type="curve" smooth="yes"/>
      <point x="405" y="785"/>
      <point x="283" y="915"/>
      <point x="228" y="915" type="curve" smooth="yes"/>
      <point x="172" y="915"/>
      <point x="51" y="792"/>
      <point x="51" y="738" type="curve" smooth="yes"/>
      <point x="51" y="681"/>
      <point x="176" y="561"/>
      <point x="228" y="561" type="curve" smooth="yes"/>
    </contour>
    <contour>
      <point x="276" y="95"/>
      <point x="405" y="213"/>
      <point x="405" y="272" type="curve" smooth="yes"/>
      <point x="405" y="319"/>
      <point x="283" y="449"/>
      <point x="228" y="449" type="curve" smooth="yes"/>
      <point x="172" y="449"/>
      <point x="51" y="326"/>
      <point x="51" y="272" type="curve" smooth="yes"/>
      <point x="51" y="215"/>
      <point x="176" y="95"/>
      <point x="228" y="95" type="curve" smooth="yes"/>
    </contour>
  </outline>
</glyph>
<glyph name="gadeva" format="1">
  <advance width="1348"/>
  <unicode hex="0917"/>
  <note>
    dGa
  </note>
  <outline>
    <contour>
      <point x="-1" y="998" type="line"/>
      <point x="347" y="998" type="line"/>
      <point x="357" y="946"/>
      <point x="361" y="872"/>
      <point x="361" y="793" type="curve" smooth="yes"/>
      <point x="361" y="742"/>
      <point x="359" y="692"/>
      <point x="352" y="651" type="curve"/>
      <point x="338" y="652"/>
      <point x="324" y="652"/>
      <point x="310" y="652" type="curve" smooth="yes"/>
      <point x="244" y="651"/>
      <point x="175" y="643"/>
      <point x="132" y="626" type="curve"/>
      <point x="116" y="619"/>
      <point x="108" y="606"/>
      <point x="108" y="591" type="curve" smooth="yes"/>
      <point x="108" y="500"/>
      <point x="385" y="218"/>
      <point x="515" y="218" type="curve" smooth="yes"/>
      <point x="530" y="218"/>
      <point x="543" y="221"/>
      <point x="556" y="233" type="curve" smooth="yes"/>
      <point x="639" y="315"/>
      <point x="651" y="519"/>
      <point x="651" y="618" type="curve" smooth="yes"/>
      <point x="651" y="704"/>
      <point x="645" y="842"/>
      <point x="620" y="998" type="curve"/>
      <point x="930" y="998" type="line"/>
      <point x="930" y="-42" type="line"/>
      <point x="1225" y="-98" type="line"/>
      <point x="1225" y="998" type="line"/>
      <point x="1400" y="998" type="line"/>
      <point x="1354" y="1187" type="line"/>
      <point x="-52" y="1187" type="line"/>
    </contour>
    <contour>
      <point x="398" y="-20" type="move" name="nukta"/>
    </contour>
    <contour>
      <point x="1078" y="0" type="move" name="bottom"/>
    </contour>
    <contour>
      <point x="1078" y="1187" type="move" name="top"/>
    </contour>
  </outline>
</glyph>
<glyph name="cadeva" format="1">
  <advance width="1465"/>
  <unicode hex="091A"/>
  <note>
    dCa
  </note>
  <outline>
    <contour>
      <point x="1517" y="998" type="line"/>
      <point x="1473" y="1187" type="line"/>
      <point x="-52" y="1187" type="line"/>
      <point x="-3" y="998" type="line"/>
      <point x="999" y="998" type="line"/>
      <point x="999" y="549" type="line"/>
      <point x="942" y="387"/>
      <point x="807" y="269"/>
      <point x="653" y="269" type="curve" smooth="yes"/>
      <point x="623" y="269"/>
      <point x="593" y="274"/>
      <point x="582" y="285" type="curve" smooth="yes"/>
      <point x="567" y="300"/>
      <point x="558" y="333"/>
      <point x="558" y="375" type="curve" smooth="yes"/>
      <point x="558" y="513"/>
      <point x="646" y="602"/>
      <point x="849" y="602" type="curve" smooth="yes"/>
      <point x="869" y="602" type="line"/>
      <point x="823" y="802" type="line"/>
      <point x="77" y="802" type="line"/>
      <point x="129" y="602" type="line"/>
      <point x="336" y="602" type="line"/>
      <point x="303" y="566"/>
      <point x="283" y="518"/>
      <point x="283" y="456" type="curve" smooth="yes"/>
      <point x="283" y="410"/>
      <point x="298" y="365"/>
      <point x="324" y="324" type="curve" smooth="yes"/>
      <point x="422" y="165"/>
      <point x="676" y="73"/>
      <point x="799" y="73" type="curve" smooth="yes"/>
      <point x="883" y="73"/>
      <point x="946" y="86"/>
      <point x="999" y="118" type="curve"/>
      <point x="999" y="-39" type="line"/>
      <point x="1295" y="-102" type="line"/>
      <point x="1295" y="998" type="line"/>
    </contour>
    <contour>
      <point x="337" y="-50" type="move" name="nukta"/>
    </contour>
    <contour>
      <point x="1147" y="0" type="move" name="bottom"/>
    </contour>
    <contour>
      <point x="1147" y="1187" type="move" name="top"/>
    </contour>
  </outline>
</glyph>
<glyph name="jhadeva" format="1">
  <advance width="1625"/>
  <unicode hex="091D"/>
  <note>
    dJha
  </note>
  <outline>
    <contour>
      <point x="1631" y="1187" type="line"/>
      <point x="-52" y="1187" type="line"/>
      <point x="-2" y="998" type="line"/>
      <point x="626" y="998" type="line"/>
      <point x="628" y="979"/>
      <point x="630" y="957"/>
      <point x="630" y="939" type="curve" smooth="yes"/>
      <point x="630" y="917"/>
      <point x="628" y="895"/>
      <point x="623" y="874" type="curve"/>
      <point x="361" y="874" type="line" smooth="yes"/>
      <point x="256" y="874"/>
      <point x="105" y="846"/>
      <point x="105" y="674" type="curve" smooth="yes"/>
      <point x="105" y="570"/>
      <point x="233" y="321"/>
      <point x="523" y="321" type="curve" smooth="yes"/>
      <point x="617" y="321"/>
      <point x="768" y="377"/>
      <point x="809" y="377" type="curve" smooth="yes"/>
      <point x="812" y="377"/>
      <point x="813" y="361"/>
      <point x="813" y="353" type="curve" smooth="yes"/>
      <point x="813" y="248"/>
      <point x="656" y="196"/>
      <point x="510" y="196" type="curve" smooth="yes"/>
      <point x="470" y="196"/>
      <point x="408" y="199"/>
      <point x="372" y="208" type="curve"/>
      <point x="330" y="273"/>
      <point x="274" y="346"/>
      <point x="236" y="346" type="curve" smooth="yes"/>
      <point x="136" y="346"/>
      <point x="40" y="197"/>
      <point x="40" y="133" type="curve" smooth="yes"/>
      <point x="40" y="75"/>
      <point x="167" y="3"/>
      <point x="335" y="-24" type="curve"/>
      <point x="461" y="-261"/>
      <point x="554" y="-345"/>
      <point x="726" y="-345" type="curve" smooth="yes"/>
      <point x="793" y="-345"/>
      <point x="845" y="-331"/>
      <point x="920" y="-289" type="curve"/>
      <point x="819" y="-79" type="line"/>
      <point x="769" y="-106"/>
      <point x="740" y="-116"/>
      <point x="693" y="-116" type="curve" smooth="yes"/>
      <point x="611" y="-116"/>
      <point x="548" y="-99"/>
      <point x="492" y="-35" type="curve"/>
      <point x="832" y="-32"/>
      <point x="1035" y="45"/>
      <point x="1035" y="302" type="curve" smooth="yes"/>
      <point x="1035" y="317"/>
      <point x="1033" y="332"/>
      <point x="1030" y="348" type="curve"/>
      <point x="1063" y="334"/>
      <point x="1097" y="325"/>
      <point x="1131" y="325" type="curve" smooth="yes"/>
      <point x="1162" y="325"/>
      <point x="1192" y="331"/>
      <point x="1217" y="342" type="curve"/>
      <point x="1217" y="-44" type="line"/>
      <point x="1502" y="-102" type="line"/>
      <point x="1502" y="998" type="line"/>
      <point x="1677" y="998" type="line"/>
    </contour>
    <contour>
      <point x="991" y="493"/>
      <point x="971" y="497"/>
      <point x="952" y="503" type="curve"/>
      <point x="926" y="533"/>
      <point x="896" y="557"/>
      <point x="864" y="572" type="curve" smooth="yes"/>
      <point x="842" y="583"/>
      <point x="818" y="589"/>
      <point x="795" y="589" type="curve" smooth="yes"/>
      <point x="684" y="589"/>
      <point x="547" y="537"/>
      <point x="461" y="537" type="curve" smooth="yes"/>
      <point x="438" y="537"/>
      <point x="425" y="539"/>
      <point x="417" y="552" type="curve"/>
      <point x="410" y="571"/>
      <point x="406" y="598"/>
      <point x="406" y="619" type="curve" smooth="yes"/>
      <point x="406" y="659"/>
      <point x="415" y="694"/>
      <point x="527" y="694" type="curve" smooth="yes"/>
      <point x="923" y="694" type="line"/>
      <point x="925" y="735"/>
      <point x="925" y="754"/>
      <point x="925" y="776" type="curve"/>
      <point x="924" y="837"/>
      <point x="918" y="914"/>
      <point x="906" y="998" type="curve"/>
      <point x="1217" y="998" type="line"/>
      <point x="1217" y="611" type="line"/>
      <point x="1178" y="550"/>
      <point x="1102" y="493"/>
      <point x="1011" y="493" type="curve" smooth="yes"/>
    </contour>
    <contour>
      <point x="130" y="-240" type="move" name="nukta"/>
    </contour>
    <contour>
      <point x="1360" y="0" type="move" name="bottom"/>
    </contour>
    <contour>
      <point x="1360" y="1187" type="move" name="top"/>
    </contour>
  </outline>
</glyph>
<glyph name="tthadeva" format="1">
  <advance width="1275"/>
  <unicode hex="0920"/>
  <note>
    dTtha
  </note>
  <outline>
    <contour>
      <point x="976" y="633"/>
      <point x="987" y="697"/>
      <point x="987" y="770" type="curve" smooth="yes"/>
      <point x="987" y="852"/>
      <point x="965" y="935"/>
      <point x="940" y="998" type="curve"/>
      <point x="1327" y="998" type="line"/>
      <point x="1282" y="1187" type="line"/>
      <point x="-52" y="1187" type="line"/>
      <point x="-3" y="998" type="line"/>
      <point x="679" y="998" type="line"/>
      <point x="681" y="971"/>
      <point x="682" y="939"/>
      <point x="682" y="902" type="curve" smooth="yes"/>
      <point x="682" y="852"/>
      <point x="675" y="803"/>
      <point x="663" y="777" type="curve"/>
      <point x="512" y="777" type="line" smooth="yes"/>
      <point x="154" y="777"/>
      <point x="83" y="622"/>
      <point x="83" y="473" type="curve" smooth="yes"/>
      <point x="83" y="162"/>
      <point x="393" y="-16"/>
      <point x="729" y="-16" type="curve" smooth="yes"/>
      <point x="851" y="-16"/>
      <point x="963" y="5"/>
      <point x="1052" y="64" type="curve" smooth="yes"/>
      <point x="1139" y="122"/>
      <point x="1188" y="205"/>
      <point x="1188" y="310" type="curve" smooth="yes"/>
      <point x="1188" y="426"/>
      <point x="1093" y="525"/>
      <point x="949" y="603" type="curve"/>
    </contour>
    <contour>
      <point x="757" y="176"/>
      <point x="643" y="141"/>
      <point x="558" y="141" type="curve" smooth="yes"/>
      <point x="506" y="141"/>
      <point x="450" y="150"/>
      <point x="443" y="161" type="curve" smooth="yes"/>
      <point x="422" y="194"/>
      <point x="393" y="276"/>
      <point x="393" y="376" type="curve" smooth="yes"/>
      <point x="393" y="534"/>
      <point x="483" y="587"/>
      <point x="638" y="587" type="curve" smooth="yes"/>
      <point x="839" y="587" type="line"/>
      <point x="880" y="521"/>
      <point x="898" y="454"/>
      <point x="898" y="382" type="curve" smooth="yes"/>
      <point x="898" y="310"/>
      <point x="871" y="253"/>
      <point x="808" y="210" type="curve" smooth="yes"/>
    </contour>
    <contour>
      <point x="105" y="-40" type="move" name="nukta"/>
    </contour>
    <contour>
      <point x="772" y="10" type="move" name="bottom"/>
    </contour>
    <contour>
      <point x="784" y="1187" type="move" name="top"/>
    </contour>
  </outline>
</glyph>
<glyph name="ddadeva" format="1">
  <advance width="1303"/>
  <unicode hex="0921"/>
  <note>
    dDda
  </note>
  <outline>
    <contour>
      <point x="0" y="998" type="line"/>
      <point x="776" y="998" type="line"/>
      <point x="779" y="981"/>
      <point x="779" y="961"/>
      <point x="779" y="939" type="curve" smooth="yes"/>
      <point x="779" y="923"/>
      <point x="779" y="905"/>
      <point x="775" y="886" type="curve"/>
      <point x="571" y="886" type="line" smooth="yes"/>
      <point x="436" y="886"/>
      <point x="274" y="863"/>
      <point x="274" y="696" type="curve" smooth="yes"/>
      <point x="274" y="542"/>
      <point x="494" y="314"/>
      <point x="678" y="314" type="curve" smooth="yes"/>
      <point x="773" y="314"/>
      <point x="1003" y="395"/>
      <point x="1024" y="395" type="curve" smooth="yes"/>
      <point x="1028" y="395"/>
      <point x="1031" y="395"/>
      <point x="1036" y="392" type="curve"/>
      <point x="1037" y="387"/>
      <point x="1038" y="379"/>
      <point x="1038" y="372" type="curve" smooth="yes"/>
      <point x="1037" y="258"/>
      <point x="857" y="189"/>
      <point x="726" y="184" type="curve" smooth="yes"/>
      <point x="581" y="179"/>
      <point x="415" y="196"/>
      <point x="161" y="525" type="curve"/>
      <point x="49" y="448" type="line"/>
      <point x="283" y="73"/>
      <point x="563" y="-67"/>
      <point x="833" y="-50" type="curve" smooth="yes"/>
      <point x="1053" y="-35"/>
      <point x="1195" y="64"/>
      <point x="1198" y="279" type="curve" smooth="yes"/>
      <point x="1198" y="377"/>
      <point x="1113" y="523"/>
      <point x="1020" y="578" type="curve" smooth="yes"/>
      <point x="1000" y="590"/>
      <point x="980" y="595"/>
      <point x="960" y="595" type="curve" smooth="yes"/>
      <point x="841" y="595"/>
      <point x="684" y="528"/>
      <point x="597" y="528" type="curve" smooth="yes"/>
      <point x="586" y="528"/>
      <point x="581" y="534"/>
      <point x="577" y="541" type="curve"/>
      <point x="569" y="557"/>
      <point x="561" y="576"/>
      <point x="561" y="607" type="curve" smooth="yes"/>
      <point x="561" y="681"/>
      <point x="630" y="695"/>
      <point x="717" y="695" type="curve" smooth="yes"/>
      <point x="1058" y="695" type="line"/>
      <point x="1061" y="728"/>
      <point x="1062" y="745"/>
      <point x="1062" y="761" type="curve" smooth="yes"/>
      <point x="1062" y="820"/>
      <point x="1056" y="901"/>
      <point x="1031" y="998" type="curve"/>
      <point x="1355" y="998" type="line"/>
      <point x="1308" y="1187" type="line"/>
      <point x="-52" y="1187" type="line"/>
    </contour>
    <contour>
      <point x="133" y="-60" type="move" name="nukta"/>
    </contour>
    <contour>
      <point x="810" y="-30" type="move" name="bottom"/>
    </contour>
    <contour>
      <point x="904" y="1187" type="move" name="top"/>
    </contour>
  </outline>
</glyph>
<glyph name="nnadeva" format="1">
  <advance width="1542"/>
  <unicode hex="0923"/>
  <note>
    dNna
  </note>
  <outline>
    <contour>
      <point x="913" y="998" type="line"/>
      <point x="1127" y="998" type="line"/>
      <point x="1127" y="-43" type="line"/>
      <point x="1424" y="-100" type="line"/>
      <point x="1424" y="998" type="line"/>
      <point x="1594" y="998" type="line"/>
      <point x="1546" y="1187" type="line"/>
      <point x="-52" y="1187" type="line"/>
      <point x="-3" y="998" type="line"/>
      <point x="105" y="998" type="line"/>
      <point x="105" y="620" type="line" smooth="yes"/>
      <point x="105" y="325"/>
      <point x="444" y="232"/>
      <point x="605" y="232" type="curve" smooth="yes"/>
      <point x="757" y="232"/>
      <point x="913" y="305"/>
      <point x="913" y="591" type="curve" smooth="yes"/>
    </contour>
    <contour>
      <point x="408" y="998" type="line"/>
      <point x="602" y="998" type="line"/>
      <point x="602" y="613" type="line" smooth="yes"/>
      <point x="602" y="491"/>
      <point x="585" y="388"/>
      <point x="479" y="388" type="curve" smooth="yes"/>
      <point x="460" y="388"/>
      <point x="425" y="397"/>
      <point x="420" y="407" type="curve"/>
      <point x="408" y="434"/>
      <point x="408" y="533"/>
      <point x="408" y="620" type="curve" smooth="yes"/>
    </contour>
    <contour>
      <point x="505" y="-60" type="move" name="nukta"/>
    </contour>
    <contour>
      <point x="1276" y="0" type="move" name="bottom"/>
    </contour>
    <contour>
      <point x="1276" y="1187" type="move" name="top"/>
    </contour>
  </outline>
</glyph>
<glyph name="dadeva" format="1">
  <advance width="1261"/>
  <unicode hex="0926"/>
  <note>
    dDa
  </note>
  <outline>
    <contour>
      <point x="1049" y="140"/>
      <point x="1136" y="216"/>
      <point x="1182" y="300" type="curve" smooth="yes"/>
      <point x="1194" y="322"/>
      <point x="1192" y="349"/>
      <point x="1177" y="367" type="curve" smooth="yes"/>
      <point x="1092" y="464"/>
      <point x="951" y="519"/>
      <point x="843" y="519" type="curve" smooth="yes"/>
      <point x="759" y="519"/>
      <point x="724" y="487"/>
      <point x="724" y="406" type="curve" smooth="yes"/>
      <point x="724" y="371"/>
      <point x="736" y="312"/>
      <point x="748" y="272" type="curve"/>
      <point x="690" y="234"/>
      <point x="609" y="207"/>
      <point x="541" y="207" type="curve" smooth="yes"/>
      <point x="508" y="207"/>
      <point x="475" y="210"/>
      <point x="467" y="219" type="curve"/>
      <point x="443" y="243"/>
      <point x="419" y="352"/>
      <point x="419" y="438" type="curve" smooth="yes"/>
      <point x="419" y="537"/>
      <point x="441" y="627"/>
      <point x="645" y="627" type="curve" smooth="yes"/>
      <point x="1031" y="627" type="line"/>
      <point x="1046" y="678"/>
      <point x="1054" y="721"/>
      <point x="1054" y="780" type="curve" smooth="yes"/>
      <point x="1054" y="845"/>
      <point x="1041" y="937"/>
      <point x="1028" y="998" type="curve"/>
      <point x="1313" y="998" type="line"/>
      <point x="1267" y="1187" type="line"/>
      <point x="-52" y="1187" type="line"/>
      <point x="-3" y="998" type="line"/>
      <point x="751" y="998" type="line"/>
      <point x="753" y="976"/>
      <point x="755" y="950"/>
      <point x="755" y="924" type="curve" smooth="yes"/>
      <point x="755" y="882"/>
      <point x="750" y="849"/>
      <point x="743" y="817" type="curve"/>
      <point x="527" y="817" type="line" smooth="yes"/>
      <point x="169" y="817"/>
      <point x="110" y="648"/>
      <point x="110" y="503" type="curve" smooth="yes"/>
      <point x="110" y="183"/>
      <point x="446" y="32"/>
      <point x="672" y="32" type="curve" smooth="yes"/>
      <point x="721" y="32"/>
      <point x="773" y="36"/>
      <point x="824" y="47" type="curve"/>
      <point x="871" y="-76"/>
      <point x="936" y="-199"/>
      <point x="1022" y="-289" type="curve"/>
      <point x="1207" y="-106" type="line"/>
      <point x="1094" y="-30"/>
      <point x="1031" y="11"/>
      <point x="967" y="96" type="curve"/>
    </contour>
    <contour>
      <point x="201" y="-100" type="move" name="nukta"/>
    </contour>
    <contour>
      <point x="838" y="-70" type="move" name="bottom"/>
    </contour>
    <contour>
      <point x="890" y="1187" type="move" name="top"/>
    </contour>
  </outline>
</glyph>
<glyph name="nadeva" format="1">
  <advance width="1233"/>
  <unicode hex="0928"/>
  <note>
    dNa
  </note>
  <outline>
    <contour>
      <point x="790" y="521" type="line"/>
      <point x="790" y="-41" type="line"/>
      <point x="1087" y="-100" type="line"/>
      <point x="1087" y="998" type="line"/>
      <point x="1285" y="998" type="line"/>
      <point x="1240" y="1187" type="line"/>
      <point x="-52" y="1187" type="line"/>
      <point x="-4" y="998" type="line"/>
      <point x="790" y="998" type="line"/>
      <point x="790" y="721" type="line"/>
      <point x="272" y="721" type="line" smooth="yes"/>
      <point x="208" y="721"/>
      <point x="150" y="719"/>
      <point x="109" y="708" type="curve" smooth="yes"/>
      <point x="80" y="700"/>
      <point x="69" y="682"/>
      <point x="69" y="658" type="curve" smooth="yes"/>
      <point x="69" y="522"/>
      <point x="197" y="318"/>
      <point x="324" y="261" type="curve" smooth="yes"/>
      <point x="338" y="255"/>
      <point x="351" y="253"/>
      <point x="365" y="253" type="curve" smooth="yes"/>
      <point x="380" y="253"/>
      <point x="394" y="255"/>
      <point x="405" y="264" type="curve" smooth="yes"/>
      <point x="456" y="305"/>
      <point x="477" y="435"/>
      <point x="483" y="521" type="curve"/>
    </contour>
    <contour>
      <point x="260" y="-30" type="move" name="nukta"/>
    </contour>
    <contour>
      <point x="939" y="0" type="move" name="bottom"/>
    </contour>
    <contour>
      <point x="939" y="1187" type="move" name="top"/>
    </contour>
  </outline>
</glyph>
<glyph name="padeva" format="1">
  <advance width="1174"/>
  <unicode hex="092A"/>
  <note>
    dPa
  </note>
  <outline>
    <contour>
      <point x="756" y="-43" type="line"/>
      <point x="1053" y="-98" type="line"/>
      <point x="1053" y="998" type="line"/>
      <point x="1226" y="998" type="line"/>
      <point x="1180" y="1187" type="line"/>
      <point x="-52" y="1187" type="line"/>
      <point x="-5" y="998" type="line"/>
      <point x="122" y="998" type="line"/>
      <point x="122" y="630" type="line" smooth="yes"/>
      <point x="122" y="388"/>
      <point x="395" y="263"/>
      <point x="570" y="263" type="curve" smooth="yes"/>
      <point x="643" y="263"/>
      <point x="695" y="275"/>
      <point x="756" y="297" type="curve"/>
    </contour>
    <contour>
      <point x="419" y="998" type="line"/>
      <point x="756" y="998" type="line"/>
      <point x="756" y="626" type="line"/>
      <point x="725" y="529"/>
      <point x="614" y="438"/>
      <point x="504" y="426" type="curve" smooth="yes"/>
      <point x="479" y="423"/>
      <point x="452" y="422"/>
      <point x="448" y="428" type="curve" smooth="yes"/>
      <point x="437" y="445"/>
      <point x="419" y="519"/>
      <point x="419" y="623" type="curve" smooth="yes"/>
    </contour>
    <contour>
      <point x="209" y="70" type="move" name="nukta"/>
    </contour>
    <contour>
      <point x="905" y="0" type="move" name="bottom"/>
    </contour>
    <contour>
      <point x="905" y="1187" type="move" name="top"/>
    </contour>
  </outline>
</glyph>
<glyph name="bhadeva" format="1">
  <advance width="1502"/>
  <unicode hex="092D"/>
  <note>
    dBha
  </note>
  <outline>
    <contour>
      <point x="1507" y="1187" type="line"/>
      <point x="880" y="1187" type="line"/>
      <point x="930" y="998" type="line"/>
      <point x="1083" y="998" type="line"/>
      <point x="1083" y="574" type="line"/>
      <point x="808" y="574" type="line"/>
      <point x="813" y="641"/>
      <point x="817" y="706"/>
      <point x="817" y="766" type="curve" smooth="yes"/>
      <point x="817" y="880"/>
      <point x="792" y="985"/>
      <point x="710" y="1077" type="curve" smooth="yes"/>
      <point x="641" y="1156"/>
      <point x="555" y="1212"/>
      <point x="397" y="1212" type="curve" smooth="yes"/>
      <point x="264" y="1212"/>
      <point x="93" y="1151"/>
      <point x="93" y="980" type="curve" smooth="yes"/>
      <point x="93" y="824"/>
      <point x="238" y="704"/>
      <point x="529" y="698" type="curve"/>
      <point x="523" y="654"/>
      <point x="513" y="610"/>
      <point x="498" y="573" type="curve"/>
      <point x="411" y="573"/>
      <point x="261" y="566"/>
      <point x="261" y="497" type="curve" smooth="yes"/>
      <point x="261" y="407"/>
      <point x="476" y="145"/>
      <point x="604" y="145" type="curve" smooth="yes"/>
      <point x="664" y="145"/>
      <point x="737" y="276"/>
      <point x="762" y="336" type="curve"/>
      <point x="1083" y="336" type="line"/>
      <point x="1083" y="-42" type="line"/>
      <point x="1380" y="-100" type="line"/>
      <point x="1380" y="998" type="line"/>
      <point x="1554" y="998" type="line"/>
    </contour>
    <contour>
      <point x="369" y="1045"/>
      <point x="396" y="1080"/>
      <point x="448" y="1080" type="curve" smooth="yes"/>
      <point x="489" y="1080"/>
      <point x="520" y="1053"/>
      <point x="529" y="984" type="curve" smooth="yes"/>
      <point x="535" y="944"/>
      <point x="541" y="899"/>
      <point x="541" y="859" type="curve" smooth="yes"/>
      <point x="541" y="833"/>
      <point x="540" y="804"/>
      <point x="538" y="774" type="curve"/>
      <point x="434" y="812"/>
      <point x="369" y="899"/>
      <point x="369" y="1000" type="curve"/>
    </contour>
    <contour>
      <point x="483" y="-110" type="move" name="nukta"/>
    </contour>
    <contour>
      <point x="1232" y="0" type="move" name="bottom"/>
    </contour>
    <contour>
      <point x="1232" y="1187" type="move" name="top"/>
    </contour>
  </outline>
</glyph>
<glyph name="lladeva" format="1">
  <advance width="1589"/>
  <unicode hex="0933"/>
  <note>
    dLla
  </note>
  <outline>
    <contour>
      <point x="1303" y="765" type="line" smooth="yes"/>
      <point x="1303" y="856"/>
      <point x="1281" y="936"/>
      <point x="1253" y="998" type="curve"/>
      <point x="1641" y="998" type="line"/>
      <point x="1597" y="1187" type="line"/>
      <point x="-52" y="1187" type="line"/>
      <point x="-6" y="998" type="line"/>
      <point x="1008" y="998" type="line"/>
      <point x="1011" y="968"/>
      <point x="1013" y="932"/>
      <point x="1013" y="887" type="curve" smooth="yes"/>
      <point x="1013" y="852"/>
      <point x="1009" y="807"/>
      <point x="1003" y="767" type="curve"/>
      <point x="891" y="754"/>
      <point x="806" y="710"/>
      <point x="738" y="615" type="curve"/>
      <point x="664" y="718"/>
      <point x="534" y="772"/>
      <point x="416" y="772" type="curve" smooth="yes"/>
      <point x="246" y="772"/>
      <point x="69" y="650"/>
      <point x="69" y="433" type="curve" smooth="yes"/>
      <point x="69" y="155"/>
      <point x="288" y="9"/>
      <point x="547" y="9" type="curve" smooth="yes"/>
      <point x="670" y="9"/>
      <point x="784" y="62"/>
      <point x="857" y="160" type="curve"/>
      <point x="938" y="46"/>
      <point x="1082" y="9"/>
      <point x="1170" y="9" type="curve" smooth="yes"/>
      <point x="1371" y="9"/>
      <point x="1524" y="125"/>
      <point x="1524" y="386" type="curve" smooth="yes"/>
      <point x="1524" y="548"/>
      <point x="1438" y="669"/>
      <point x="1302" y="730" type="curve"/>
    </contour>
    <contour>
      <point x="981" y="218"/>
      <point x="941" y="228"/>
      <point x="906" y="248" type="curve"/>
      <point x="913" y="267" type="line" smooth="yes"/>
      <point x="987" y="472"/>
      <point x="1044" y="583"/>
      <point x="1148" y="583" type="curve" smooth="yes"/>
      <point x="1167" y="583"/>
      <point x="1187" y="580"/>
      <point x="1196" y="567" type="curve"/>
      <point x="1207" y="544"/>
      <point x="1214" y="485"/>
      <point x="1214" y="420" type="curve" smooth="yes"/>
      <point x="1214" y="316"/>
      <point x="1158" y="218"/>
      <point x="1035" y="218" type="curve" smooth="yes"/>
    </contour>
    <contour>
      <point x="427" y="187"/>
      <point x="407" y="190"/>
      <point x="399" y="200" type="curve"/>
      <point x="386" y="233"/>
      <point x="378" y="303"/>
      <point x="378" y="349" type="curve" smooth="yes"/>
      <point x="378" y="468"/>
      <point x="433" y="561"/>
      <point x="559" y="561" type="curve" smooth="yes"/>
      <point x="602" y="561"/>
      <point x="646" y="551"/>
      <point x="688" y="529" type="curve"/>
      <point x="677" y="506"/>
      <point x="666" y="480"/>
      <point x="656" y="453" type="curve" smooth="yes"/>
      <point x="604" y="309"/>
      <point x="540" y="187"/>
      <point x="444" y="187" type="curve" smooth="yes"/>
    </contour>
    <contour>
      <point x="188" y="-150" type="move" name="nukta"/>
    </contour>
    <contour>
      <point x="1190" y="20" type="move" name="bottom"/>
    </contour>
    <contour>
      <point x="1120" y="1187" type="move" name="top"/>
    </contour>
  </outline>
</glyph>
<glyph name="hadeva" format="1">
  <advance width="1106"/>
  <unicode hex="0939"/>
  <note>
    dHa
  </note>
  <outline>
    <contour>
      <point x="524" y="548"/>
      <point x="452" y="539"/>
      <point x="384" y="519" type="curve"/>
      <point x="381" y="541"/>
      <point x="380" y="559"/>
      <point x="383" y="583" type="curve" smooth="yes"/>
      <point x="393" y="649"/>
      <point x="441" y="672"/>
      <point x="533" y="672" type="curve" smooth="yes"/>
      <point x="911" y="672" type="line"/>
      <point x="918" y="715"/>
      <point x="919" y="757"/>
      <point x="919" y="799" type="curve" smooth="yes"/>
      <point x="919" y="864"/>
      <point x="908" y="929"/>
      <point x="892" y="998" type="curve"/>
      <point x="1158" y="998" type="line"/>
      <point x="1111" y="1187" type="line"/>
      <point x="-52" y="1187" type="line"/>
      <point x="-3" y="998" type="line"/>
      <point x="623" y="998" type="line"/>
      <point x="627" y="971"/>
      <point x="629" y="945"/>
      <point x="629" y="919" type="curve" smooth="yes"/>
      <point x="629" y="900"/>
      <point x="628" y="881"/>
      <point x="626" y="862" type="curve"/>
      <point x="384" y="862" type="line" smooth="yes"/>
      <point x="239" y="862"/>
      <point x="113" y="826"/>
      <point x="113" y="693" type="curve" smooth="yes"/>
      <point x="113" y="617"/>
      <point x="184" y="541"/>
      <point x="270" y="473" type="curve"/>
      <point x="172" y="420"/>
      <point x="100" y="337"/>
      <point x="100" y="217" type="curve" smooth="yes"/>
      <point x="100" y="-94"/>
      <point x="435" y="-247"/>
      <point x="891" y="-299" type="curve"/>
      <point x="923" y="-180" type="line"/>
      <point x="468" y="-96"/>
      <point x="405" y="49"/>
      <point x="405" y="171" type="curve" smooth="yes"/>
      <point x="405" y="308"/>
      <point x="537" y="383"/>
      <point x="661" y="383" type="curve" smooth="yes"/>
      <point x="716" y="383"/>
      <point x="776" y="378"/>
      <point x="817" y="353" type="curve" smooth="yes"/>
      <point x="827" y="347"/>
      <point x="829" y="339"/>
      <point x="829" y="330" type="curve" smooth="yes"/>
      <point x="829" y="281"/>
      <point x="781" y="207"/>
      <point x="658" y="147" type="curve"/>
      <point x="862" y="-64" type="line"/>
      <point x="1002" y="25"/>
      <point x="1021" y="84"/>
      <point x="1021" y="175" type="curve" smooth="yes"/>
      <point x="1023" y="375"/>
      <point x="820" y="548"/>
      <point x="587" y="548" type="curve" smooth="yes"/>
    </contour>
    <contour>
      <point x="81" y="-280" type="move" name="nukta"/>
    </contour>
    <contour>
      <point x="640" y="-160" type="move" name="bottom"/>
    </contour>
    <contour>
      <point x="758" y="1187" type="move" name="top"/>
    </contour>
  </outline>
</glyph>
<glyph name="ecandravowelsigndeva" format="1">
  <advance width="512"/>
  <unicode hex="0945"/>
  <note>
    dMatraCandraE
  </note>
  <outline>
    <contour>
      <point x="-136" y="1597" type="line"/>
      <point x="-31" y="1376"/>
      <point x="109" y="1296"/>
      <point x="248" y="1296" type="curve" smooth="yes"/>
      <point x="382" y="1296"/>
      <point x="516" y="1348"/>
      <point x="618" y="1513" type="curve"/>
      <point x="452" y="1672" type="line"/>
      <point x="370" y="1548"/>
      <point x="290" y="1492"/>
      <point x="199" y="1492" type="curve" smooth="yes"/>
      <point x="108" y="1492"/>
      <point x="48" y="1520"/>
      <point x="-40" y="1650" type="curve"/>
    </contour>
    <contour>
      <point x="256" y="1187" type="move" name="_top"/>
    </contour>
  </outline>
</glyph>
<glyph name="viramadeva" format="1">
  <advance width="512"/>
  <unicode hex="094D"/>
  <note>
    dHalant
  </note>
  <outline>
    <contour>
      <point x="13" y="-365" type="line"/>
      <point x="246" y="-411"/>
      <point x="375" y="-447"/>
      <point x="610" y="-645" type="curve"/>
      <point x="730" y="-579" type="line"/>
      <point x="535" y="-308"/>
      <point x="273" y="-167"/>
      <point x="177" y="-149" type="curve"/>
    </contour>
    <contour>
      <point x="256" y="0" type="move" name="_bottom"/>
    </contour>
  </outline>
</glyph>
<glyph name="onedeva" format="1">
  <advance width="897"/>
  <unicode hex="0967"/>
  <note>
    dOne
  </note>
  <outline>
    <contour>
      <point x="616" y="524"/>
      <point x="782" y="754"/>
      <point x="782" y="963" type="curve" smooth="yes"/>
      <point x="782" y="1099"/>
      <point x="622" y="1280"/>
      <point x="352" y="1280" type="curve" smooth="yes"/>
      <point x="200" y="1280"/>
      <point x="96" y="1196"/>
      <point x="93" y="1060" type="curve" smooth="yes"/>
      <point x="90" y="924"/>
      <point x="178" y="833"/>
      <point x="403" y="753" type="curve"/>
      <point x="333" y="655"/>
      <point x="236" y="550"/>
      <point x="115" y="439" type="curve"/>
      <point x="379" y="305"/>
      <point x="446" y="251"/>
      <point x="447" y="193" type="curve" smooth="yes"/>
      <point x="448" y="151"/>
      <point x="427" y="117"/>
      <point x="342" y="22" type="curve"/>
      <point x="612" y="-103" type="line"/>
      <point x="689" y="6"/>
      <point x="708" y="48"/>
      <point x="708" y="104" type="curve" smooth="yes"/>
      <point x="708" y="192"/>
      <point x="656" y="243"/>
      <point x="447" y="360" type="curve"/>
    </contour>
    <contour>
      <point x="357" y="1102"/>
      <point x="396" y="1154"/>
      <point x="470" y="1154" type="curve" smooth="yes"/>
      <point x="493" y="1154"/>
      <point x="523" y="1149"/>
      <point x="532" y="1140" type="curve" smooth="yes"/>
      <point x="539" y="1133"/>
      <point x="541" y="1115"/>
      <point x="541" y="1098" type="curve" smooth="yes"/>
      <point x="541" y="1016"/>
      <point x="509" y="923"/>
      <point x="447" y="821" type="curve"/>
      <point x="379" y="875"/>
      <point x="349" y="945"/>
      <point x="354" y="1039" type="curve" smooth="yes"/>
    </contour>
  </outline>
</glyph>
<glyph name="fivedeva" format="1">
  <advance width="1119"/>
  <unicode hex="096B"/>
  <note>
    dFive
  </note>
  <outline>
    <contour>
      <point x="954" y="510"/>
      <point x="991" y="573"/>
      <point x="1007" y="646" type="curve" smooth="yes"/>
      <point x="1019" y="697"/>
      <point x="1000" y="748"/>
      <point x="962" y="782" type="curve" smooth="yes"/>
      <point x="905" y="833"/>
      <point x="805" y="854"/>
      <point x="724" y="854" type="curve" smooth="yes"/>
      <point x="658" y="854"/>
      <point x="613" y="817"/>
      <point x="613" y="752" type="curve" smooth="yes"/>
      <point x="613" y="708"/>
      <point x="628" y="656"/>
      <point x="642" y="613" type="curve"/>
      <point x="600" y="538"/>
      <point x="491" y="472"/>
      <point x="408" y="472" type="curve" smooth="yes"/>
      <point x="397" y="472"/>
      <point x="392" y="473"/>
      <point x="383" y="479" type="curve" smooth="yes"/>
      <point x="357" y="497"/>
      <point x="339" y="581"/>
      <point x="339" y="661" type="curve" smooth="yes"/>
      <point x="339" y="806"/>
      <point x="403" y="953"/>
      <point x="568" y="1169" type="curve"/>
      <point x="300" y="1257" type="line"/>
      <point x="154" y="1048"/>
      <point x="83" y="926"/>
      <point x="83" y="766" type="curve" smooth="yes"/>
      <point x="83" y="514"/>
      <point x="358" y="326"/>
      <point x="536" y="326" type="curve" smooth="yes"/>
      <point x="624" y="326"/>
      <point x="708" y="343"/>
      <point x="781" y="376" type="curve"/>
      <point x="781" y="367"/>
      <point x="780" y="357"/>
      <point x="780" y="347" type="curve" smooth="yes"/>
      <point x="774" y="241"/>
      <point x="698" y="164"/>
      <point x="526" y="97" type="curve"/>
      <point x="732" y="-103" type="line"/>
      <point x="866" y="-13"/>
      <point x="952" y="67"/>
      <point x="957" y="176" type="curve" smooth="yes"/>
      <point x="960" y="261"/>
      <point x="929" y="348"/>
      <point x="872" y="431" type="curve"/>
      <point x="884" y="441"/>
      <point x="896" y="452"/>
      <point x="907" y="463" type="curve" smooth="yes"/>
    </contour>
  </outline>
</glyph>
<glyph name="sixdeva" format="1">
  <advance width="1108"/>
  <unicode hex="096C"/>
  <note>
    dSix
  </note>
  <outline>
    <contour>
      <point x="1056" y="28" type="line"/>
      <point x="982" y="75"/>
      <point x="906" y="108"/>
      <point x="837" y="170" type="curve"/>
      <point x="905" y="210"/>
      <point x="954" y="264"/>
      <point x="982" y="312" type="curve" smooth="yes"/>
      <point x="1006" y="355"/>
      <point x="1007" y="409"/>
      <point x="961" y="456" type="curve" smooth="yes"/>
      <point x="911" y="505"/>
      <point x="804" y="543"/>
      <point x="706" y="543" type="curve" smooth="yes"/>
      <point x="623" y="543"/>
      <point x="598" y="508"/>
      <point x="598" y="436" type="curve" smooth="yes"/>
      <point x="598" y="400"/>
      <point x="604" y="352"/>
      <point x="609" y="312" type="curve"/>
      <point x="570" y="285"/>
      <point x="524" y="274"/>
      <point x="475" y="274" type="curve" smooth="yes"/>
      <point x="422" y="274"/>
      <point x="397" y="275"/>
      <point x="381" y="288" type="curve" smooth="yes"/>
      <point x="353" y="311"/>
      <point x="333" y="372"/>
      <point x="335" y="435" type="curve" smooth="yes"/>
      <point x="338" y="553"/>
      <point x="376" y="670"/>
      <point x="725" y="628" type="curve"/>
      <point x="673" y="850" type="line"/>
      <point x="564" y="865"/>
      <point x="467" y="864"/>
      <point x="384" y="847" type="curve"/>
      <point x="374" y="872"/>
      <point x="370" y="897"/>
      <point x="370" y="922" type="curve" smooth="yes"/>
      <point x="370" y="1005"/>
      <point x="441" y="1063"/>
      <point x="560" y="1063" type="curve" smooth="yes"/>
      <point x="643" y="1063"/>
      <point x="727" y="1046"/>
      <point x="823" y="1009" type="curve"/>
      <point x="789" y="1210" type="line"/>
      <point x="689" y="1245"/>
      <point x="596" y="1263"/>
      <point x="504" y="1264" type="curve" smooth="yes"/>
      <point x="296" y="1265"/>
      <point x="110" y="1195"/>
      <point x="110" y="1039" type="curve" smooth="yes"/>
      <point x="110" y="930"/>
      <point x="177" y="861"/>
      <point x="266" y="810" type="curve"/>
      <point x="141" y="753"/>
      <point x="70" y="651"/>
      <point x="70" y="522" type="curve" smooth="yes"/>
      <point x="70" y="202"/>
      <point x="380" y="101"/>
      <point x="537" y="101" type="curve" smooth="yes"/>
      <point x="585" y="101"/>
      <point x="638" y="104"/>
      <point x="689" y="115" type="curve"/>
      <point x="724" y="27"/>
      <point x="781" y="-68"/>
      <point x="864" y="-164" type="curve"/>
    </contour>
  </outline>
</glyph>
<glyph name="eightdeva" format="1">
  <advance width="1095"/>
  <unicode hex="096E"/>
  <note>
    dEight
  </note>
  <outline>
    <contour>
      <point x="93" y="240"/>
      <point x="320" y="-17"/>
      <point x="601" y="-17" type="curve" smooth="yes"/>
      <point x="821" y="-17"/>
      <point x="924" y="37"/>
      <point x="1053" y="146" type="curve"/>
      <point x="890" y="382" type="line"/>
      <point x="743" y="240"/>
      <point x="591" y="170"/>
      <point x="461" y="170" type="curve" smooth="yes"/>
      <point x="392" y="170"/>
      <point x="338" y="185"/>
      <point x="326" y="204" type="curve"/>
      <point x="313" y="223"/>
      <point x="307" y="258"/>
      <point x="307" y="313" type="curve" smooth="yes"/>
      <point x="307" y="483"/>
      <point x="531" y="813"/>
      <point x="868" y="1137" type="curve"/>
      <point x="591" y="1261" type="line"/>
      <point x="221" y="825"/>
      <point x="93" y="599"/>
      <point x="93" y="385" type="curve" smooth="yes"/>
    </contour>
  </outline>
</glyph>
<glyph name="uni0975" format="1">
  <advance width="2079"/>
  <unicode hex="0975"/>
  <outline>
    <contour>
      <point x="1881" y="1187" type="line"/>
      <point x="1881" y="1420"/>
      <point x="1815" y="1559"/>
      <point x="1694" y="1614" type="curve" smooth="yes"/>
      <point x="1573" y="1670"/>
      <point x="1424" y="1667"/>
      <point x="1320" y="1706" type="curve" smooth="yes"/>
      <point x="1248" y="1731"/>
      <point x="1204" y="1757"/>
      <point x="1156" y="1863" type="curve"/>
      <point x="1035" y="1809" type="line"/>
      <point x="1035" y="1716"/>
      <point x="1070" y="1584"/>
      <point x="1192" y="1524" type="curve" smooth="yes"/>
      <point x="1310" y="1466"/>
      <point x="1517" y="1462"/>
      <point x="1623" y="1435" type="curve" smooth="yes"/>
      <point x="1705" y="1414"/>
      <point x="1766" y="1358"/>
      <point x="1785" y="1216" type="curve"/>
      <point x="1734" y="1334"/>
      <point x="1657" y="1396"/>
      <point x="1554" y="1413" type="curve" smooth="yes"/>
      <point x="1401" y="1439"/>
      <point x="1253" y="1415"/>
      <point x="1159" y="1441" type="curve" smooth="yes"/>
      <point x="1087" y="1460"/>
      <point x="1054" y="1483"/>
      <point x="973" y="1567" type="curve"/>
      <point x="867" y="1491" type="line"/>
      <point x="892" y="1387"/>
      <point x="949" y="1283"/>
      <point x="1090" y="1247" type="curve" smooth="yes"/>
      <point x="1220" y="1215"/>
      <point x="1422" y="1237"/>
      <point x="1531" y="1234" type="curve" smooth="yes"/>
      <point x="1676" y="1230"/>
      <point x="1723" y="1192"/>
      <point x="1765" y="1045" type="curve"/>
      <point x="1817" y="1127" type="line"/>
      <point x="1816" y="1130" type="line"/>
    </contour>
    <component base="aadeva"/>
  </outline>
</glyph>
<glyph name="uni097A" format="1">
  <advance width="1286"/>
  <unicode hex="097A"/>
  <outline>
    <contour>
      <point x="456" y="882"/>
      <point x="478" y="829"/>
      <point x="512" y="786" type="curve" smooth="yes"/>
      <point x="720" y="531" type="line" smooth="yes"/>
      <point x="743" y="502"/>
      <point x="780" y="481"/>
      <point x="801" y="470" type="curve"/>
      <point x="833" y="491"/>
      <point x="841" y="503"/>
      <point x="876" y="527" type="curve"/>
      <point x="872" y="541"/>
      <point x="855" y="602"/>
      <point x="813" y="652" type="curve" smooth="yes"/>
      <point x="599" y="910" type="line" smooth="yes"/>
      <point x="572" y="943"/>
      <point x="526" y="975"/>
      <point x="508" y="986" type="curve"/>
      <point x="487" y="966"/>
      <point x="471" y="949"/>
      <point x="445" y="926" type="curve"/>
    </contour>
    <component base="uni092F"/>
  </outline>
</glyph>
<glyph name="uni097D" format="1">
  <advance width="1087"/>
  <unicode hex="097D"/>
  <note>
    dGlottalStop
  </note>
  <outline>
    <contour>
      <point x="630" y="433" type="line"/>
      <point x="870" y="487"/>
      <point x="979" y="640"/>
      <point x="982" y="796" type="curve" smooth="yes"/>
      <point x="987" y="1001"/>
      <point x="808" y="1212"/>
      <point x="502" y="1212" type="curve" smooth="yes"/>
      <point x="352" y="1212"/>
      <point x="202" y="1166"/>
      <point x="63" y="945" type="curve"/>
      <point x="311" y="783" type="line"/>
      <point x="401" y="985"/>
      <point x="492" y="1040"/>
      <point x="576" y="1040" type="curve" smooth="yes"/>
      <point x="616" y="1040"/>
      <point x="653" y="1033"/>
      <point x="681" y="1015" type="curve" smooth="yes"/>
      <point x="698" y="1004"/>
      <point x="720" y="940"/>
      <point x="720" y="875" type="curve" smooth="yes"/>
      <point x="720" y="722"/>
      <point x="646" y="566"/>
      <point x="333" y="549" type="curve"/>
      <point x="333" y="-42" type="line"/>
      <point x="630" y="-96" type="line"/>
    </contour>
  </outline>
</glyph>
<glyph name="uni097E" format="1">
  <advance width="1296"/>
  <unicode hex="097E"/>
  <note>
    dDdda
  </note>
  <outline>
    <contour>
      <point x="-1" y="998" type="line"/>
      <point x="776" y="998" type="line"/>
      <point x="779" y="981"/>
      <point x="779" y="961"/>
      <point x="779" y="939" type="curve" smooth="yes"/>
      <point x="779" y="923"/>
      <point x="779" y="905"/>
      <point x="775" y="886" type="curve"/>
      <point x="571" y="886" type="line" smooth="yes"/>
      <point x="436" y="886"/>
      <point x="274" y="863"/>
      <point x="274" y="696" type="curve" smooth="yes"/>
      <point x="274" y="562"/>
      <point x="494" y="334"/>
      <point x="678" y="334" type="curve" smooth="yes"/>
      <point x="773" y="334"/>
      <point x="923" y="395"/>
      <point x="944" y="395" type="curve" smooth="yes"/>
      <point x="948" y="395"/>
      <point x="951" y="395"/>
      <point x="956" y="392" type="curve"/>
      <point x="957" y="387"/>
      <point x="958" y="379"/>
      <point x="958" y="372" type="curve" smooth="yes"/>
      <point x="957" y="258"/>
      <point x="847" y="219"/>
      <point x="726" y="214" type="curve" smooth="yes"/>
      <point x="581" y="208"/>
      <point x="413" y="226"/>
      <point x="158" y="556" type="curve"/>
      <point x="47" y="481" type="line"/>
      <point x="278" y="104"/>
      <point x="559" y="-38"/>
      <point x="833" y="-20" type="curve" smooth="yes"/>
      <point x="1053" y="-5"/>
      <point x="1205" y="114"/>
      <point x="1208" y="329" type="curve" smooth="yes"/>
      <point x="1208" y="427"/>
      <point x="1133" y="553"/>
      <point x="1040" y="608" type="curve" smooth="yes"/>
      <point x="1020" y="620"/>
      <point x="1000" y="625"/>
      <point x="980" y="625" type="curve" smooth="yes"/>
      <point x="861" y="625"/>
      <point x="684" y="548"/>
      <point x="597" y="548" type="curve" smooth="yes"/>
      <point x="586" y="548"/>
      <point x="581" y="554"/>
      <point x="577" y="561" type="curve"/>
      <point x="569" y="577"/>
      <point x="561" y="596"/>
      <point x="561" y="617" type="curve" smooth="yes"/>
      <point x="561" y="691"/>
      <point x="630" y="695"/>
      <point x="717" y="695" type="curve" smooth="yes"/>
      <point x="1058" y="695" type="line"/>
      <point x="1061" y="728"/>
      <point x="1062" y="745"/>
      <point x="1062" y="761" type="curve" smooth="yes"/>
      <point x="1062" y="820"/>
      <point x="1056" y="901"/>
      <point x="1031" y="998" type="curve"/>
      <point x="1348" y="998" type="line"/>
      <point x="1300" y="1187" type="line"/>
      <point x="-52" y="1187" type="line"/>
    </contour>
    <contour>
      <point x="119" y="-272" type="line"/>
      <point x="1292" y="-272" type="line"/>
      <point x="1244" y="-103" type="line"/>
      <point x="66" y="-103" type="line"/>
    </contour>
  </outline>
</glyph>
<glyph name="uni097F" format="1">
  <advance width="1275"/>
  <unicode hex="097F"/>
  <note>
    dBba
  </note>
  <outline>
    <contour>
      <point x="1278" y="1187" type="line"/>
      <point x="-52" y="1187" type="line"/>
      <point x="2" y="998" type="line"/>
      <point x="827" y="998" type="line"/>
      <point x="827" y="742" type="line"/>
      <point x="699" y="824"/>
      <point x="578" y="861"/>
      <point x="448" y="861" type="curve" smooth="yes"/>
      <point x="258" y="861"/>
      <point x="89" y="764"/>
      <point x="89" y="546" type="curve" smooth="yes"/>
      <point x="89" y="341"/>
      <point x="347" y="127"/>
      <point x="548" y="127" type="curve" smooth="yes"/>
      <point x="641" y="127"/>
      <point x="749" y="150"/>
      <point x="827" y="187" type="curve"/>
      <point x="827" y="-24" type="line"/>
      <point x="112" y="-24" type="line"/>
      <point x="167" y="-193" type="line"/>
      <point x="1124" y="-193" type="line"/>
      <point x="1124" y="998" type="line"/>
      <point x="1327" y="998" type="line"/>
    </contour>
    <contour>
      <point x="715" y="424"/>
      <point x="704" y="435"/>
      <point x="682" y="455" type="curve"/>
      <point x="562" y="579" type="line" smooth="yes"/>
      <point x="520" y="624"/>
      <point x="484" y="639"/>
      <point x="455" y="654" type="curve"/>
      <point x="473" y="663"/>
      <point x="511" y="672"/>
      <point x="543" y="672" type="curve" smooth="yes"/>
      <point x="630" y="672"/>
      <point x="695" y="662"/>
      <point x="827" y="625" type="curve"/>
      <point x="827" y="565" type="line"/>
      <point x="815" y="478"/>
      <point x="774" y="439"/>
      <point x="722" y="404" type="curve"/>
    </contour>
    <contour>
      <point x="471" y="301"/>
      <point x="454" y="301"/>
      <point x="435" y="304" type="curve" smooth="yes"/>
      <point x="416" y="307"/>
      <point x="401" y="311"/>
      <point x="398" y="314" type="curve"/>
      <point x="382" y="332"/>
      <point x="353" y="431"/>
      <point x="353" y="483" type="curve" smooth="yes"/>
      <point x="353" y="526"/>
      <point x="358" y="558"/>
      <point x="380" y="602" type="curve"/>
      <point x="391" y="574"/>
      <point x="403" y="554"/>
      <point x="432" y="526" type="curve" smooth="yes"/>
      <point x="586" y="379" type="line" smooth="yes"/>
      <point x="600" y="365"/>
      <point x="624" y="347"/>
      <point x="638" y="341" type="curve"/>
      <point x="590" y="312"/>
      <point x="534" y="301"/>
      <point x="483" y="301" type="curve" smooth="yes"/>
    </contour>
  </outline>
</glyph>
<glyph name="quoteright" format="1">
  <advance width="517"/>
  <unicode hex="2019"/>
  <outline>
    <contour>
      <point x="77" y="894" type="line"/>
      <point x="189" y="877" type="line"/>
      <point x="366" y="998"/>
      <point x="467" y="1191"/>
      <point x="467" y="1336" type="curve" smooth="yes"/>
      <point x="467" y="1407"/>
      <point x="314" y="1546"/>
      <point x="245" y="1546" type="curve" smooth="yes"/>
      <point x="178" y="1546"/>
      <point x="40" y="1382"/>
      <point x="40" y="1336" type="curve" smooth="yes"/>
      <point x="40" y="1297"/>
      <point x="108" y="1214"/>
      <point x="200" y="1159" type="curve"/>
    </contour>
  </outline>
</glyph>
<glyph name="quotedblright" format="1">
  <advance width="1053"/>
  <unicode hex="201D"/>
  <outline>
    <contour>
      <point x="77" y="894" type="line"/>
      <point x="189" y="877" type="line"/>
      <point x="366" y="998"/>
      <point x="467" y="1191"/>
      <point x="467" y="1336" type="curve" smooth="yes"/>
      <point x="467" y="1407"/>
      <point x="314" y="1546"/>
      <point x="245" y="1546" type="curve" smooth="yes"/>
      <point x="178" y="1546"/>
      <point x="40" y="1382"/>
      <point x="40" y="1336" type="curve" smooth="yes"/>
      <point x="40" y="1297"/>
      <point x="108" y="1214"/>
      <point x="200" y="1159" type="curve"/>
    </contour>
    <contour>
      <point x="604" y="854" type="line"/>
      <point x="716" y="837" type="line"/>
      <point x="900" y="978"/>
      <point x="1003" y="1164"/>
      <point x="1003" y="1336" type="curve" smooth="yes"/>
      <point x="1003" y="1407"/>
      <point x="850" y="1546"/>
      <point x="781" y="1546" type="curve" smooth="yes"/>
      <point x="714" y="1546"/>
      <point x="576" y="1382"/>
      <point x="576" y="1336" type="curve" smooth="yes"/>
      <point x="576" y="1294"/>
      <point x="644" y="1205"/>
      <point x="736" y="1144" type="curve"/>
    </contour>
  </outline>
</glyph>
<glyph name="bullet" format="1">
  <advance width="874"/>
  <unicode hex="2022"/>
  <outline>
    <contour>
      <point x="534" y="179"/>
      <point x="778" y="423"/>
      <point x="778" y="520" type="curve" smooth="yes"/>
      <point x="778" y="617"/>
      <point x="534" y="861"/>
      <point x="437" y="861" type="curve" smooth="yes"/>
      <point x="340" y="861"/>
      <point x="96" y="617"/>
      <point x="96" y="520" type="curve" smooth="yes"/>
      <point x="96" y="423"/>
      <point x="340" y="179"/>
      <point x="437" y="179" type="curve" smooth="yes"/>
    </contour>
  </outline>
</glyph>
<glyph name="guilsinglleft" format="1">
  <advance width="596"/>
  <unicode hex="2039"/>
  <outline>
    <contour>
      <point x="421" y="610"/>
      <point x="509" y="738"/>
      <point x="540" y="818" type="curve"/>
      <point x="420" y="899" type="line"/>
      <point x="10" y="463" type="line"/>
      <point x="419" y="28" type="line"/>
      <point x="541" y="109" type="line"/>
      <point x="499" y="197"/>
      <point x="420" y="323"/>
      <point x="320" y="463" type="curve"/>
    </contour>
  </outline>
</glyph>
<glyph name="partialdiff" format="1">
  <advance width="1299"/>
  <unicode hex="2202"/>
  <outline>
    <contour>
      <point x="648" y="1508"/>
      <point x="542" y="1479"/>
      <point x="389" y="1410" type="curve"/>
      <point x="338" y="1240" type="line"/>
      <point x="442" y="1260"/>
      <point x="514" y="1270"/>
      <point x="570" y="1270" type="curve" smooth="yes"/>
      <point x="768" y="1270"/>
      <point x="880" y="1197"/>
      <point x="880" y="924" type="curve" smooth="yes"/>
      <point x="880" y="906" type="line"/>
      <point x="791" y="961"/>
      <point x="690" y="971"/>
      <point x="599" y="971" type="curve" smooth="yes"/>
      <point x="320" y="971"/>
      <point x="42" y="722"/>
      <point x="42" y="382" type="curve" smooth="yes"/>
      <point x="42" y="105"/>
      <point x="240" y="-25"/>
      <point x="515" y="-25" type="curve" smooth="yes"/>
      <point x="920" y="-25"/>
      <point x="1215" y="327"/>
      <point x="1215" y="933" type="curve" smooth="yes"/>
      <point x="1215" y="1237"/>
      <point x="1123" y="1508"/>
      <point x="765" y="1508" type="curve" smooth="yes"/>
    </contour>
    <contour>
      <point x="653" y="155"/>
      <point x="613" y="145"/>
      <point x="580" y="145" type="curve" smooth="yes"/>
      <point x="440" y="145"/>
      <point x="380" y="310"/>
      <point x="380" y="462" type="curve" smooth="yes"/>
      <point x="380" y="560"/>
      <point x="399" y="704"/>
      <point x="440" y="746" type="curve" smooth="yes"/>
      <point x="459" y="766"/>
      <point x="482" y="774"/>
      <point x="529" y="774" type="curve" smooth="yes"/>
      <point x="647" y="774"/>
      <point x="799" y="682"/>
      <point x="852" y="585" type="curve"/>
      <point x="822" y="419"/>
      <point x="769" y="264"/>
      <point x="681" y="182" type="curve" smooth="yes"/>
    </contour>
  </outline>
</glyph>
<glyph name="infinity" format="1">
  <advance width="1642"/>
  <unicode hex="221E"/>
  <outline>
    <contour>
      <point x="1022" y="1010"/>
      <point x="903" y="980"/>
      <point x="788" y="810" type="curve"/>
      <point x="696" y="943"/>
      <point x="580" y="1006"/>
      <point x="446" y="1006" type="curve" smooth="yes"/>
      <point x="237" y="1006"/>
      <point x="93" y="844"/>
      <point x="93" y="652" type="curve" smooth="yes"/>
      <point x="93" y="413"/>
      <point x="264" y="250"/>
      <point x="482" y="250" type="curve" smooth="yes"/>
      <point x="661" y="250"/>
      <point x="761" y="314"/>
      <point x="857" y="452" type="curve"/>
      <point x="948" y="316"/>
      <point x="1067" y="254"/>
      <point x="1200" y="254" type="curve" smooth="yes"/>
      <point x="1407" y="254"/>
      <point x="1549" y="413"/>
      <point x="1549" y="610" type="curve" smooth="yes"/>
      <point x="1549" y="843"/>
      <point x="1380" y="1010"/>
      <point x="1164" y="1010" type="curve" smooth="yes"/>
    </contour>
    <contour>
      <point x="441" y="469"/>
      <point x="411" y="479"/>
      <point x="391" y="493" type="curve"/>
      <point x="350" y="526"/>
      <point x="331" y="573"/>
      <point x="331" y="632" type="curve" smooth="yes"/>
      <point x="331" y="718"/>
      <point x="389" y="804"/>
      <point x="512" y="804" type="curve" smooth="yes"/>
      <point x="578" y="804"/>
      <point x="659" y="761"/>
      <point x="719" y="696" type="curve"/>
      <point x="646" y="571"/>
      <point x="583" y="469"/>
      <point x="480" y="469" type="curve" smooth="yes"/>
    </contour>
    <contour>
      <point x="1072" y="456"/>
      <point x="990" y="495"/>
      <point x="928" y="567" type="curve"/>
      <point x="1000" y="691"/>
      <point x="1056" y="791"/>
      <point x="1173" y="791" type="curve" smooth="yes"/>
      <point x="1200" y="791"/>
      <point x="1225" y="785"/>
      <point x="1251" y="765" type="curve" smooth="yes"/>
      <point x="1284" y="741"/>
      <point x="1312" y="694"/>
      <point x="1312" y="638" type="curve" smooth="yes"/>
      <point x="1312" y="543"/>
      <point x="1255" y="456"/>
      <point x="1134" y="456" type="curve" smooth="yes"/>
    </contour>
  </outline>
</glyph>
<glyph name="integral" format="1">
  <advance width="1379"/>
  <unicode hex="222B"/>
  <outline>
    <contour>
      <point x="46" y="-183" type="line"/>
      <point x="97" y="-291"/>
      <point x="215" y="-402"/>
      <point x="392" y="-402" type="curve" smooth="yes"/>
      <point x="579" y="-402"/>
      <point x="871" y="-346"/>
      <point x="871" y="438" type="curve" smooth="yes"/>
      <point x="871" y="1072" type="line" smooth="yes"/>
      <point x="871" y="1323"/>
      <point x="872" y="1566"/>
      <point x="936" y="1566" type="curve" smooth="yes"/>
      <point x="978" y="1566"/>
      <point x="1016" y="1530"/>
      <point x="1069" y="1441" type="curve"/>
      <point x="1324" y="1536" type="line"/>
      <point x="1262" y="1680"/>
      <point x="1115" y="1756"/>
      <point x="980" y="1756" type="curve" smooth="yes"/>
      <point x="793" y="1756"/>
      <point x="501" y="1674"/>
      <point x="501" y="916" type="curve" smooth="yes"/>
      <point x="501" y="282" type="line" smooth="yes"/>
      <point x="501" y="7"/>
      <point x="496" y="-212"/>
      <point x="436" y="-212" type="curve" smooth="yes"/>
      <point x="393" y="-212"/>
      <point x="358" y="-175"/>
      <point x="301" y="-86" type="curve"/>
    </contour>
  </outline>
</glyph>
<glyph name="acute.case" format="1">
  <advance width="1024"/>
  <outline>
    <contour>
      <point x="265" y="1486" type="line"/>
      <point x="785" y="1637" type="line"/>
      <point x="749" y="1811" type="line"/>
      <point x="577" y="1811" type="line"/>
      <point x="238" y="1596" type="line"/>
    </contour>
    <contour>
      <point x="443" y="1384" type="move" name="_top"/>
    </contour>
  </outline>
</glyph>
<glyph name="aivowelsigndeva_anusvaradeva" format="1">
  <advance width="512"/>
  <note>
    dMatraAiAnusvara
  </note>
  <outline>
    <component base="aivowelsigndeva"/>
    <component base="anusvaradeva" xOffset="260" yOffset="10"/>
    <contour>
      <point x="256" y="1187" type="move" name="_top"/>
    </contour>
  </outline>
</glyph>
<glyph name="caron.alt" format="1">
  <advance width="1024"/>
  <outline>
    <contour>
      <point x="425" y="818" type="line"/>
      <point x="572" y="947"/>
      <point x="694" y="1142"/>
      <point x="694" y="1280" type="curve" smooth="yes"/>
      <point x="694" y="1318"/>
      <point x="688" y="1354"/>
      <point x="664" y="1398" type="curve"/>
      <point x="559" y="1397"/>
      <point x="463" y="1382"/>
      <point x="370" y="1364" type="curve"/>
      <point x="348" y="1220" type="line"/>
      <point x="467" y="1171" type="line"/>
      <point x="428" y="1060"/>
      <point x="381" y="953"/>
      <point x="327" y="845" type="curve"/>
    </contour>
    <contour>
      <point x="268" y="1384" type="move" name="_topright"/>
    </contour>
  </outline>
</glyph>
<glyph name="dotaccent.case" format="1">
  <advance width="1024"/>
  <outline>
    <contour>
      <point x="564" y="1485"/>
      <point x="685" y="1610"/>
      <point x="685" y="1658" type="curve" smooth="yes"/>
      <point x="685" y="1708"/>
      <point x="559" y="1831"/>
      <point x="515" y="1831" type="curve" smooth="yes"/>
      <point x="461" y="1831"/>
      <point x="339" y="1709"/>
      <point x="339" y="1660" type="curve" smooth="yes"/>
      <point x="339" y="1612"/>
      <point x="463" y="1485"/>
      <point x="509" y="1485" type="curve" smooth="yes"/>
    </contour>
    <contour>
      <point x="516" y="1384" type="move" name="_top"/>
    </contour>
  </outline>
</glyph>
<glyph name="evowelsigndeva_anusvaradeva" format="1">
  <advance width="512"/>
  <note>
    dMatraEAnusvara
  </note>
  <outline>
    <component base="anusvaradeva" xOffset="203" yOffset="126" xScale="0.928" yScale="0.928"/>
    <component base="evowelsigndeva" xOffset="-20"/>
    <contour>
      <point x="256" y="1187" type="move" name="_top"/>
    </contour>
  </outline>
</glyph>
<glyph name="hadeva_rvocalicvowelsigndeva" format="1">
  <advance width="1258"/>
  <note>
    dHMatraVocalicR
  </note>
  <outline>
    <contour>
      <point x="789" y="-23"/>
      <point x="775" y="-20"/>
      <point x="772" y="-16" type="curve" smooth="yes"/>
      <point x="769" y="-12"/>
      <point x="765" y="-1"/>
      <point x="765" y="12" type="curve" smooth="yes"/>
      <point x="765" y="76"/>
      <point x="1031" y="146"/>
      <point x="1031" y="249" type="curve" smooth="yes"/>
      <point x="1031" y="386"/>
      <point x="836" y="572"/>
      <point x="554" y="572" type="curve" smooth="yes"/>
      <point x="498" y="572"/>
      <point x="439" y="564"/>
      <point x="381" y="548" type="curve"/>
      <point x="381" y="559"/>
      <point x="382" y="570"/>
      <point x="383" y="583" type="curve" smooth="yes"/>
      <point x="393" y="649"/>
      <point x="441" y="672"/>
      <point x="533" y="672" type="curve" smooth="yes"/>
      <point x="911" y="672" type="line"/>
      <point x="918" y="715"/>
      <point x="919" y="757"/>
      <point x="919" y="799" type="curve" smooth="yes"/>
      <point x="919" y="864"/>
      <point x="908" y="929"/>
      <point x="892" y="998" type="curve"/>
      <point x="1308" y="998" type="line"/>
      <point x="1261" y="1187" type="line"/>
      <point x="-52" y="1187" type="line"/>
      <point x="-3" y="998" type="line"/>
      <point x="623" y="998" type="line"/>
      <point x="627" y="971"/>
      <point x="629" y="945"/>
      <point x="629" y="919" type="curve" smooth="yes"/>
      <point x="629" y="900"/>
      <point x="628" y="881"/>
      <point x="626" y="862" type="curve"/>
      <point x="384" y="862" type="line" smooth="yes"/>
      <point x="239" y="862"/>
      <point x="113" y="826"/>
      <point x="113" y="693" type="curve" smooth="yes"/>
      <point x="113" y="624"/>
      <point x="171" y="555"/>
      <point x="246" y="492" type="curve"/>
      <point x="139" y="429"/>
      <point x="60" y="329"/>
      <point x="60" y="184" type="curve" smooth="yes"/>
      <point x="60" y="-144"/>
      <point x="364" y="-357"/>
      <point x="774" y="-461" type="curve"/>
      <point x="811" y="-338" type="line"/>
      <point x="466" y="-219"/>
      <point x="357" y="-37"/>
      <point x="357" y="153" type="curve" smooth="yes"/>
      <point x="357" y="325"/>
      <point x="524" y="408"/>
      <point x="650" y="408" type="curve" smooth="yes"/>
      <point x="713" y="408"/>
      <point x="760" y="408"/>
      <point x="818" y="388" type="curve" smooth="yes"/>
      <point x="833" y="383"/>
      <point x="866" y="364"/>
      <point x="866" y="349" type="curve" smooth="yes"/>
      <point x="866" y="303"/>
      <point x="549" y="219"/>
      <point x="549" y="101" type="curve" smooth="yes"/>
      <point x="549" y="-73"/>
      <point x="785" y="-199"/>
      <point x="936" y="-199" type="curve" smooth="yes"/>
      <point x="1055" y="-199"/>
      <point x="1151" y="-145"/>
      <point x="1238" y="-42" type="curve"/>
      <point x="1077" y="140" type="line"/>
      <point x="966" y="23"/>
      <point x="869" y="-23"/>
      <point x="805" y="-23" type="curve" smooth="yes"/>
    </contour>
    <contour>
      <point x="750" y="1187" type="move" name="top"/>
    </contour>
    <contour>
      <point x="715" y="-336" type="move" name="bottom"/>
    </contour>
  </outline>
</glyph>
<glyph name="hungarumlaut.case" format="1">
  <advance width="1024"/>
  <outline>
    <contour>
      <point x="131" y="1601" type="line"/>
      <point x="214" y="1470" type="line"/>
      <point x="544" y="1717" type="line"/>
      <point x="523" y="1820" type="line"/>
      <point x="333" y="1820" type="line"/>
    </contour>
    <contour>
      <point x="510" y="1601" type="line"/>
      <point x="593" y="1470" type="line"/>
      <point x="923" y="1717" type="line"/>
      <point x="902" y="1820" type="line"/>
      <point x="712" y="1820" type="line"/>
    </contour>
    <contour>
      <point x="452" y="1384" type="move" name="_top"/>
    </contour>
  </outline>
</glyph>
<glyph name="macron.case" format="1">
  <advance width="1024"/>
  <outline>
    <contour>
      <point x="176" y="1528" type="line"/>
      <point x="320" y="1528"/>
      <point x="635" y="1531"/>
      <point x="816" y="1540" type="curve"/>
      <point x="848" y="1717" type="line"/>
      <point x="211" y="1717" type="line"/>
    </contour>
    <contour>
      <point x="512" y="1384" type="move" name="_top"/>
    </contour>
  </outline>
</glyph>
<glyph name="nadeva.post2" format="1">
  <advance width="0"/>
  <outline>
    <contour>
      <point x="-352" y="358" type="line"/>
      <point x="-400" y="506" type="line"/>
      <point x="-471" y="450"/>
      <point x="-734" y="246"/>
      <point x="-806" y="189" type="curve" smooth="yes"/>
      <point x="-952" y="73"/>
      <point x="-1011" y="8"/>
      <point x="-1011" y="-45" type="curve" smooth="yes"/>
      <point x="-1011" y="-60"/>
      <point x="-1008" y="-70"/>
      <point x="-995" y="-83" type="curve" smooth="yes"/>
      <point x="-950" y="-131"/>
      <point x="-786" y="-154"/>
      <point x="-689" y="-136" type="curve" smooth="yes"/>
      <point x="-656" y="-131"/>
      <point x="-630" y="-109"/>
      <point x="-630" y="-82" type="curve" smooth="yes"/>
      <point x="-630" y="-40"/>
      <point x="-660" y="20"/>
      <point x="-696" y="64" type="curve"/>
    </contour>
  </outline>
</glyph>
<glyph name="radeva_uvowelsigndeva" format="1">
  <advance width="1134"/>
  <note>
    dRMatraU
  </note>
  <outline>
    <contour>
      <point x="719" y="1187" type="line"/>
      <point x="774" y="998" type="line"/>
      <point x="1179" y="998" type="line"/>
      <point x="1137" y="1187" type="line"/>
    </contour>
    <contour>
      <point x="584" y="459" type="line"/>
      <point x="629" y="505"/>
      <point x="689" y="568"/>
      <point x="782" y="594" type="curve" smooth="yes"/>
      <point x="808" y="601"/>
      <point x="828" y="602"/>
      <point x="844" y="595" type="curve"/>
      <point x="847" y="594"/>
      <point x="852" y="583"/>
      <point x="850" y="555" type="curve" smooth="yes"/>
      <point x="841" y="470"/>
      <point x="781" y="424"/>
      <point x="648" y="310" type="curve"/>
      <point x="861" y="130" type="line"/>
      <point x="974" y="227"/>
      <point x="1025" y="310"/>
      <point x="1034" y="410" type="curve" smooth="yes"/>
      <point x="1047" y="578"/>
      <point x="865" y="752"/>
      <point x="708" y="764" type="curve" smooth="yes"/>
      <point x="595" y="773"/>
      <point x="495" y="726"/>
      <point x="401" y="631" type="curve"/>
    </contour>
    <component base="radeva" xOffset="18"/>
    <contour>
      <point x="589" y="1187" type="move" name="top"/>
    </contour>
  </outline>
</glyph>
<glyph name="ring.case" format="1">
  <advance width="1024"/>
  <outline>
    <contour>
      <point x="633" y="1324"/>
      <point x="721" y="1410"/>
      <point x="721" y="1532" type="curve" smooth="yes"/>
      <point x="721" y="1648"/>
      <point x="622" y="1723"/>
      <point x="518" y="1723" type="curve" smooth="yes"/>
      <point x="387" y="1723"/>
      <point x="303" y="1633"/>
      <point x="303" y="1514" type="curve" smooth="yes"/>
      <point x="303" y="1398"/>
      <point x="398" y="1324"/>
      <point x="509" y="1324" type="curve" smooth="yes"/>
    </contour>
    <contour>
      <point x="467" y="1451"/>
      <point x="443" y="1491"/>
      <point x="443" y="1531" type="curve" smooth="yes"/>
      <point x="443" y="1567"/>
      <point x="467" y="1599"/>
      <point x="504" y="1599" type="curve" smooth="yes"/>
      <point x="552" y="1599"/>
      <point x="579" y="1560"/>
      <point x="579" y="1516" type="curve" smooth="yes"/>
      <point x="579" y="1479"/>
      <point x="556" y="1451"/>
      <point x="518" y="1451" type="curve" smooth="yes"/>
    </contour>
    <contour>
      <point x="512" y="1384" type="move" name="_top"/>
    </contour>
  </outline>
</glyph>
<glyph name="tilde.case" format="1">
  <advance width="1024"/>
  <outline>
    <contour>
      <point x="148" y="1533" type="line"/>
      <point x="227" y="1604"/>
      <point x="320" y="1653"/>
      <point x="367" y="1653" type="curve" smooth="yes"/>
      <point x="431" y="1653"/>
      <point x="502" y="1512"/>
      <point x="640" y="1512" type="curve" smooth="yes"/>
      <point x="748" y="1512"/>
      <point x="824" y="1598"/>
      <point x="903" y="1686" type="curve"/>
      <point x="880" y="1833" type="line"/>
      <point x="794" y="1763"/>
      <point x="704" y="1715"/>
      <point x="658" y="1715" type="curve" smooth="yes"/>
      <point x="595" y="1715"/>
      <point x="521" y="1856"/>
      <point x="382" y="1856" type="curve" smooth="yes"/>
      <point x="276" y="1856"/>
      <point x="201" y="1772"/>
      <point x="120" y="1680" type="curve"/>
    </contour>
    <contour>
      <point x="512" y="1384" type="move" name="_top"/>
    </contour>
  </outline>
</glyph>
<glyph name="uni0915094D0924094D0924" format="1">
  <advance width="1968"/>
  <note>
    dKTTa
  </note>
  <outline>
    <contour>
      <point x="1410" y="812"/>
      <point x="1318" y="790"/>
      <point x="1238" y="741" type="curve"/>
      <point x="1238" y="998" type="line"/>
      <point x="2020" y="998" type="line"/>
      <point x="1972" y="1187" type="line"/>
      <point x="-52" y="1187" type="line"/>
      <point x="0" y="998" type="line"/>
      <point x="941" y="998" type="line"/>
      <point x="941" y="814" type="line"/>
      <point x="49" y="814" type="line"/>
      <point x="100" y="609" type="line"/>
      <point x="262" y="609" type="line"/>
      <point x="248" y="582"/>
      <point x="241" y="551"/>
      <point x="241" y="513" type="curve" smooth="yes"/>
      <point x="241" y="339"/>
      <point x="391" y="119"/>
      <point x="608" y="-101" type="curve"/>
      <point x="740" y="-36" type="line"/>
      <point x="588" y="195"/>
      <point x="566" y="331"/>
      <point x="566" y="434" type="curve" smooth="yes"/>
      <point x="566" y="530"/>
      <point x="625" y="609"/>
      <point x="754" y="609" type="curve" smooth="yes"/>
      <point x="941" y="609" type="line"/>
      <point x="941" y="-41" type="line"/>
      <point x="1238" y="-98" type="line"/>
      <point x="1238" y="401" type="line"/>
      <point x="1324" y="519"/>
      <point x="1496" y="621"/>
      <point x="1608" y="621" type="curve" smooth="yes"/>
      <point x="1623" y="621"/>
      <point x="1649" y="619"/>
      <point x="1659" y="610" type="curve"/>
      <point x="1665" y="604"/>
      <point x="1667" y="584"/>
      <point x="1667" y="568" type="curve" smooth="yes"/>
      <point x="1667" y="464"/>
      <point x="1544" y="354"/>
      <point x="1374" y="224" type="curve"/>
      <point x="1642" y="37" type="line"/>
      <point x="1774" y="130"/>
      <point x="1890" y="254"/>
      <point x="1890" y="406" type="curve" smooth="yes"/>
      <point x="1890" y="576"/>
      <point x="1691" y="812"/>
      <point x="1492" y="812" type="curve" smooth="yes"/>
    </contour>
    <contour>
      <point x="1090" y="1187" type="move" name="top"/>
    </contour>
    <contour>
      <point x="1090" y="0" type="move" name="bottom"/>
    </contour>
  </outline>
</glyph>
<glyph name="uni0915094D0930" format="1">
  <advance width="1669"/>
  <note>
    dKRa
  </note>
  <outline>
    <contour>
      <point x="758" y="382" type="line"/>
      <point x="102" y="41" type="line"/>
      <point x="290" y="-170" type="line"/>
      <point x="846" y="302" type="line"/>
    </contour>
    <component base="kadeva"/>
    <contour>
      <point x="848" y="1187" type="move" name="top"/>
    </contour>
    <contour>
      <point x="848" y="-20" type="move" name="bottom"/>
    </contour>
  </outline>
</glyph>
<glyph name="uni0915094D0932.loclMAR" format="1">
  <advance width="1691"/>
  <note>
    dKLa.MAR
  </note>
  <outline>
    <contour>
      <point x="1150" y="882"/>
      <point x="1063" y="858"/>
      <point x="996" y="811" type="curve"/>
      <point x="996" y="998" type="line"/>
      <point x="1740" y="998" type="line"/>
      <point x="1692" y="1187" type="line"/>
      <point x="-47" y="1187" type="line"/>
      <point x="-1" y="998" type="line"/>
      <point x="699" y="998" type="line"/>
      <point x="699" y="738" type="line"/>
      <point x="588" y="841"/>
      <point x="483" y="882"/>
      <point x="366" y="882" type="curve" smooth="yes"/>
      <point x="166" y="882"/>
      <point x="43" y="771"/>
      <point x="43" y="578" type="curve" smooth="yes"/>
      <point x="43" y="364"/>
      <point x="277" y="233"/>
      <point x="503" y="233" type="curve" smooth="yes"/>
      <point x="569" y="233"/>
      <point x="642" y="242"/>
      <point x="699" y="272" type="curve"/>
      <point x="699" y="95" type="line"/>
      <point x="634" y="135"/>
      <point x="572" y="156"/>
      <point x="513" y="156" type="curve" smooth="yes"/>
      <point x="363" y="156"/>
      <point x="217" y="75"/>
      <point x="217" y="-110" type="curve" smooth="yes"/>
      <point x="217" y="-302"/>
      <point x="364" y="-461"/>
      <point x="686" y="-624" type="curve"/>
      <point x="747" y="-526" type="line"/>
      <point x="554" y="-376"/>
      <point x="498" y="-272"/>
      <point x="498" y="-154" type="curve" smooth="yes"/>
      <point x="498" y="-56"/>
      <point x="555" y="-3"/>
      <point x="631" y="-3" type="curve" smooth="yes"/>
      <point x="659" y="-3"/>
      <point x="700" y="-14"/>
      <point x="738" y="-29" type="curve"/>
      <point x="713" y="-81"/>
      <point x="699" y="-143"/>
      <point x="689" y="-215" type="curve"/>
      <point x="937" y="-269" type="line"/>
      <point x="973" y="-36"/>
      <point x="1045" y="18"/>
      <point x="1120" y="18" type="curve" smooth="yes"/>
      <point x="1161" y="17"/>
      <point x="1195" y="4"/>
      <point x="1204" y="-9" type="curve"/>
      <point x="1216" y="-25"/>
      <point x="1222" y="-74"/>
      <point x="1222" y="-97" type="curve" smooth="yes"/>
      <point x="1222" y="-262"/>
      <point x="1075" y="-368"/>
      <point x="926" y="-486" type="curve"/>
      <point x="1169" y="-633" type="line"/>
      <point x="1369" y="-477"/>
      <point x="1417" y="-339"/>
      <point x="1417" y="-217" type="curve" smooth="yes"/>
      <point x="1417" y="-40"/>
      <point x="1238" y="162"/>
      <point x="1054" y="162" type="curve" smooth="yes"/>
      <point x="1035" y="162"/>
      <point x="1015" y="161"/>
      <point x="996" y="158" type="curve"/>
      <point x="996" y="468" type="line"/>
      <point x="1080" y="588"/>
      <point x="1235" y="691"/>
      <point x="1348" y="691" type="curve" smooth="yes"/>
      <point x="1363" y="691"/>
      <point x="1389" y="689"/>
      <point x="1399" y="680" type="curve"/>
      <point x="1405" y="674"/>
      <point x="1407" y="654"/>
      <point x="1407" y="638" type="curve" smooth="yes"/>
      <point x="1407" y="534"/>
      <point x="1288" y="428"/>
      <point x="1110" y="292" type="curve"/>
      <point x="1367" y="114" type="line"/>
      <point x="1496" y="204"/>
      <point x="1612" y="328"/>
      <point x="1612" y="480" type="curve" smooth="yes"/>
      <point x="1612" y="650"/>
      <point x="1431" y="882"/>
      <point x="1232" y="882" type="curve" smooth="yes"/>
    </contour>
    <contour>
      <point x="379" y="408"/>
      <point x="370" y="409"/>
      <point x="364" y="421" type="curve" smooth="yes"/>
      <point x="345" y="460"/>
      <point x="336" y="497"/>
      <point x="336" y="547" type="curve" smooth="yes"/>
      <point x="336" y="659"/>
      <point x="418" y="680"/>
      <point x="517" y="680" type="curve" smooth="yes"/>
      <point x="581" y="680"/>
      <point x="641" y="664"/>
      <point x="699" y="644" type="curve"/>
      <point x="699" y="566" type="line"/>
      <point x="608" y="445"/>
      <point x="462" y="408"/>
      <point x="390" y="408" type="curve" smooth="yes"/>
    </contour>
    <contour>
      <point x="848" y="1187" type="move" name="top"/>
    </contour>
    <contour>
      <point x="1106" y="-480" type="move" name="bottom"/>
    </contour>
  </outline>
</glyph>
<glyph name="uni0915094D0937094D092F" format="1">
  <advance width="2265"/>
  <note>
    dKSsYa
  </note>
  <outline>
    <contour>
      <point x="2274" y="1187" type="line"/>
      <point x="909" y="1187" type="line"/>
      <point x="958" y="998" type="line"/>
      <point x="1225" y="998" type="line"/>
      <point x="1304" y="945"/>
      <point x="1330" y="888"/>
      <point x="1330" y="838" type="curve" smooth="yes"/>
      <point x="1330" y="764"/>
      <point x="1263" y="701"/>
      <point x="1169" y="656" type="curve" smooth="yes"/>
      <point x="1086" y="616"/>
      <point x="978" y="593"/>
      <point x="867" y="596" type="curve" smooth="yes"/>
      <point x="836" y="597"/>
      <point x="806" y="600"/>
      <point x="778" y="605" type="curve"/>
      <point x="846" y="673"/>
      <point x="891" y="756"/>
      <point x="890" y="861" type="curve"/>
      <point x="890" y="995"/>
      <point x="787" y="1208"/>
      <point x="485" y="1208" type="curve" smooth="yes"/>
      <point x="365" y="1208"/>
      <point x="171" y="1120"/>
      <point x="169" y="935" type="curve" smooth="yes"/>
      <point x="168" y="808"/>
      <point x="232" y="705"/>
      <point x="332" y="626" type="curve"/>
      <point x="183" y="544"/>
      <point x="56" y="460"/>
      <point x="56" y="307" type="curve" smooth="yes"/>
      <point x="56" y="59"/>
      <point x="389" y="-75"/>
      <point x="536" y="-75" type="curve" smooth="yes"/>
      <point x="584" y="-75"/>
      <point x="633" y="-72"/>
      <point x="682" y="-62" type="curve"/>
      <point x="734" y="-164"/>
      <point x="793" y="-252"/>
      <point x="896" y="-352" type="curve"/>
      <point x="1097" y="-188" type="line"/>
      <point x="998" y="-123"/>
      <point x="901" y="-75"/>
      <point x="834" y="-11" type="curve"/>
      <point x="850" y="-3" type="line" smooth="yes"/>
      <point x="908" y="27"/>
      <point x="1006" y="109"/>
      <point x="1006" y="139" type="curve" smooth="yes"/>
      <point x="1006" y="171"/>
      <point x="961" y="217"/>
      <point x="911" y="251" type="curve" smooth="yes"/>
      <point x="828" y="308"/>
      <point x="735" y="353"/>
      <point x="667" y="353" type="curve" smooth="yes"/>
      <point x="584" y="353"/>
      <point x="553" y="308"/>
      <point x="553" y="247" type="curve" smooth="yes"/>
      <point x="553" y="211"/>
      <point x="567" y="159"/>
      <point x="579" y="117" type="curve"/>
      <point x="550" y="97"/>
      <point x="490" y="83"/>
      <point x="458" y="83" type="curve" smooth="yes"/>
      <point x="429" y="83"/>
      <point x="394" y="87"/>
      <point x="384" y="97" type="curve" smooth="yes"/>
      <point x="356" y="127"/>
      <point x="348" y="183"/>
      <point x="348" y="221" type="curve"/>
      <point x="358" y="350"/>
      <point x="477" y="407"/>
      <point x="608" y="482" type="curve"/>
      <point x="732" y="428"/>
      <point x="848" y="396"/>
      <point x="973" y="392" type="curve" smooth="yes"/>
      <point x="1020" y="391"/>
      <point x="1049" y="393"/>
      <point x="1101" y="399" type="curve"/>
      <point x="1206" y="203"/>
      <point x="1385" y="110"/>
      <point x="1570" y="110" type="curve" smooth="yes"/>
      <point x="1657" y="110"/>
      <point x="1751" y="128"/>
      <point x="1846" y="180" type="curve"/>
      <point x="1846" y="-42" type="line"/>
      <point x="2143" y="-101" type="line"/>
      <point x="2143" y="998" type="line"/>
      <point x="2317" y="998" type="line"/>
    </contour>
    <contour>
      <point x="475" y="780"/>
      <point x="448" y="844"/>
      <point x="448" y="924" type="curve" smooth="yes"/>
      <point x="448" y="992"/>
      <point x="497" y="1048"/>
      <point x="571" y="1049" type="curve" smooth="yes"/>
      <point x="599" y="1049"/>
      <point x="634" y="1045"/>
      <point x="650" y="1029" type="curve" smooth="yes"/>
      <point x="665" y="1014"/>
      <point x="671" y="971"/>
      <point x="671" y="937" type="curve"/>
      <point x="667" y="845"/>
      <point x="613" y="789"/>
      <point x="521" y="731" type="curve"/>
    </contour>
    <contour>
      <point x="1416" y="358"/>
      <point x="1336" y="377"/>
      <point x="1286" y="440" type="curve"/>
      <point x="1508" y="508"/>
      <point x="1623" y="625"/>
      <point x="1623" y="741" type="curve" smooth="yes"/>
      <point x="1623" y="824"/>
      <point x="1582" y="909"/>
      <point x="1471" y="998" type="curve"/>
      <point x="1846" y="998" type="line"/>
      <point x="1846" y="587" type="line"/>
      <point x="1786" y="453"/>
      <point x="1647" y="358"/>
      <point x="1504" y="358" type="curve" smooth="yes"/>
    </contour>
    <contour>
      <point x="2015" y="1187" type="move" name="top"/>
    </contour>
  </outline>
</glyph>
<glyph name="uni0915094D0937094D0930" format="1">
  <advance width="1752"/>
  <note>
    dKSsRa
  </note>
  <outline>
    <contour>
      <point x="1764" y="1187" type="line"/>
      <point x="1027" y="1187" type="line"/>
      <point x="1077" y="998" type="line"/>
      <point x="1305" y="998" type="line"/>
      <point x="1305" y="761" type="line"/>
      <point x="1202" y="686"/>
      <point x="1062" y="646"/>
      <point x="923" y="646" type="curve" smooth="yes"/>
      <point x="900" y="646"/>
      <point x="876" y="647"/>
      <point x="853" y="649" type="curve"/>
      <point x="891" y="708"/>
      <point x="910" y="778"/>
      <point x="910" y="861" type="curve"/>
      <point x="910" y="995"/>
      <point x="768" y="1208"/>
      <point x="493" y="1208" type="curve" smooth="yes"/>
      <point x="357" y="1208"/>
      <point x="191" y="1120"/>
      <point x="189" y="935" type="curve" smooth="yes"/>
      <point x="187" y="804"/>
      <point x="261" y="700"/>
      <point x="373" y="623" type="curve"/>
      <point x="216" y="542"/>
      <point x="66" y="458"/>
      <point x="66" y="307" type="curve" smooth="yes"/>
      <point x="66" y="129"/>
      <point x="280" y="-72"/>
      <point x="474" y="-72" type="curve" smooth="yes"/>
      <point x="567" y="-72"/>
      <point x="604" y="-64"/>
      <point x="666" y="-41" type="curve"/>
      <point x="705" y="-131"/>
      <point x="772" y="-252"/>
      <point x="873" y="-355" type="curve"/>
      <point x="1075" y="-192" type="line"/>
      <point x="961" y="-112"/>
      <point x="901" y="-70"/>
      <point x="840" y="11" type="curve"/>
      <point x="903" y="39"/>
      <point x="960" y="109"/>
      <point x="960" y="129" type="curve" smooth="yes"/>
      <point x="960" y="151"/>
      <point x="928" y="209"/>
      <point x="881" y="247" type="curve" smooth="yes"/>
      <point x="810" y="304"/>
      <point x="726" y="354"/>
      <point x="668" y="354" type="curve" smooth="yes"/>
      <point x="585" y="354"/>
      <point x="553" y="308"/>
      <point x="553" y="247" type="curve" smooth="yes"/>
      <point x="553" y="201"/>
      <point x="560" y="153"/>
      <point x="572" y="111" type="curve"/>
      <point x="543" y="91"/>
      <point x="500" y="83"/>
      <point x="468" y="83" type="curve" smooth="yes"/>
      <point x="439" y="83"/>
      <point x="404" y="87"/>
      <point x="394" y="97" type="curve" smooth="yes"/>
      <point x="366" y="127"/>
      <point x="358" y="183"/>
      <point x="358" y="221" type="curve"/>
      <point x="369" y="355"/>
      <point x="526" y="412"/>
      <point x="674" y="492" type="curve"/>
      <point x="790" y="462"/>
      <point x="911" y="447"/>
      <point x="1022" y="447" type="curve" smooth="yes"/>
      <point x="1133" y="447"/>
      <point x="1234" y="458"/>
      <point x="1305" y="480" type="curve"/>
      <point x="1305" y="466" type="line"/>
      <point x="950" y="57" type="line"/>
      <point x="1170" y="-63" type="line"/>
      <point x="1305" y="169" type="line"/>
      <point x="1305" y="-43" type="line"/>
      <point x="1606" y="-97" type="line"/>
      <point x="1606" y="998" type="line"/>
      <point x="1804" y="998" type="line"/>
    </contour>
    <contour>
      <point x="619" y="1049"/>
      <point x="654" y="1045"/>
      <point x="670" y="1029" type="curve" smooth="yes"/>
      <point x="685" y="1014"/>
      <point x="691" y="971"/>
      <point x="691" y="937" type="curve"/>
      <point x="687" y="848"/>
      <point x="654" y="792"/>
      <point x="575" y="736" type="curve"/>
      <point x="510" y="782"/>
      <point x="468" y="844"/>
      <point x="468" y="924" type="curve" smooth="yes"/>
      <point x="468" y="992"/>
      <point x="517" y="1048"/>
      <point x="591" y="1049" type="curve" smooth="yes"/>
    </contour>
    <contour>
      <point x="1476" y="1187" type="move" name="top"/>
    </contour>
    <contour>
      <point x="1496" y="0" type="move" name="bottom"/>
    </contour>
  </outline>
</glyph>
<glyph name="uni0916094D0928" format="1">
  <advance width="1806"/>
  <note>
    dKhNa
  </note>
  <outline>
    <contour>
      <point x="1814" y="1187" type="line"/>
      <point x="-52" y="1187" type="line"/>
      <point x="-2" y="998" type="line"/>
      <point x="347" y="998" type="line"/>
      <point x="358" y="939"/>
      <point x="365" y="879"/>
      <point x="365" y="823" type="curve" smooth="yes"/>
      <point x="365" y="754"/>
      <point x="353" y="684"/>
      <point x="330" y="642" type="curve"/>
      <point x="248" y="690" type="line"/>
      <point x="91" y="622" type="line"/>
      <point x="97" y="582"/>
      <point x="108" y="534"/>
      <point x="123" y="482" type="curve" smooth="yes"/>
      <point x="155" y="373"/>
      <point x="207" y="248"/>
      <point x="277" y="149" type="curve" smooth="yes"/>
      <point x="440" y="-84"/>
      <point x="578" y="-144"/>
      <point x="682" y="-144" type="curve" smooth="yes"/>
      <point x="750" y="-144"/>
      <point x="822" y="-137"/>
      <point x="891" y="-93" type="curve"/>
      <point x="793" y="155" type="line"/>
      <point x="748" y="134"/>
      <point x="699" y="114"/>
      <point x="615" y="114" type="curve" smooth="yes"/>
      <point x="502" y="114"/>
      <point x="414" y="165"/>
      <point x="314" y="372" type="curve"/>
      <point x="522" y="440"/>
      <point x="643" y="568"/>
      <point x="643" y="775" type="curve" smooth="yes"/>
      <point x="643" y="837"/>
      <point x="623" y="926"/>
      <point x="590" y="998" type="curve"/>
      <point x="1347" y="998" type="line"/>
      <point x="1347" y="710" type="line"/>
      <point x="1217" y="819"/>
      <point x="1110" y="844"/>
      <point x="1015" y="844" type="curve" smooth="yes"/>
      <point x="844" y="844"/>
      <point x="728" y="727"/>
      <point x="728" y="562" type="curve" smooth="yes"/>
      <point x="728" y="340"/>
      <point x="908" y="213"/>
      <point x="1137" y="211" type="curve"/>
      <point x="977" y="80"/>
      <point x="939" y="44"/>
      <point x="939" y="-3" type="curve" smooth="yes"/>
      <point x="939" y="-22"/>
      <point x="949" y="-39"/>
      <point x="957" y="-48" type="curve" smooth="yes"/>
      <point x="998" y="-96"/>
      <point x="1143" y="-106"/>
      <point x="1211" y="-93" type="curve" smooth="yes"/>
      <point x="1244" y="-87"/>
      <point x="1271" y="-66"/>
      <point x="1272" y="-30" type="curve" smooth="yes"/>
      <point x="1273" y="2"/>
      <point x="1242" y="62"/>
      <point x="1206" y="108" type="curve"/>
      <point x="1347" y="219" type="line"/>
      <point x="1347" y="-42" type="line"/>
      <point x="1644" y="-98" type="line"/>
      <point x="1644" y="998" type="line"/>
      <point x="1858" y="998" type="line"/>
    </contour>
    <contour>
      <point x="1044" y="371"/>
      <point x="1023" y="421"/>
      <point x="1023" y="492" type="curve" smooth="yes"/>
      <point x="1023" y="610"/>
      <point x="1090" y="654"/>
      <point x="1178" y="654" type="curve" smooth="yes"/>
      <point x="1223" y="655"/>
      <point x="1272" y="645"/>
      <point x="1347" y="620" type="curve"/>
      <point x="1347" y="486" type="line"/>
      <point x="1277" y="391"/>
      <point x="1185" y="327"/>
      <point x="1096" y="327" type="curve" smooth="yes"/>
      <point x="1083" y="327"/>
      <point x="1076" y="331"/>
      <point x="1072" y="336" type="curve" smooth="yes"/>
    </contour>
    <contour>
      <point x="1496" y="1187" type="move" name="top"/>
    </contour>
    <contour>
      <point x="1496" y="-30" type="move" name="bottom"/>
    </contour>
  </outline>
</glyph>
<glyph name="uni0916094D0932.loclMAR" format="1">
  <advance width="1711"/>
  <note>
    dKhLa.MAR
  </note>
  <outline>
    <contour>
      <point x="1590" y="998" type="line"/>
      <point x="1763" y="998" type="line"/>
      <point x="1719" y="1187" type="line"/>
      <point x="-48" y="1187" type="line"/>
      <point x="-1" y="998" type="line"/>
      <point x="330" y="998" type="line"/>
      <point x="340" y="951"/>
      <point x="346" y="906"/>
      <point x="346" y="853" type="curve" smooth="yes"/>
      <point x="346" y="784"/>
      <point x="334" y="754"/>
      <point x="311" y="712" type="curve"/>
      <point x="230" y="760" type="line"/>
      <point x="69" y="691" type="line"/>
      <point x="70" y="669"/>
      <point x="75" y="643"/>
      <point x="83" y="614" type="curve" smooth="yes"/>
      <point x="114" y="507"/>
      <point x="191" y="368"/>
      <point x="273" y="279" type="curve" smooth="yes"/>
      <point x="404" y="135"/>
      <point x="585" y="43"/>
      <point x="820" y="43" type="curve" smooth="yes"/>
      <point x="924" y="43"/>
      <point x="977" y="54"/>
      <point x="1069" y="93" type="curve"/>
      <point x="972" y="340" type="line"/>
      <point x="929" y="325"/>
      <point x="811" y="286"/>
      <point x="709" y="286" type="curve" smooth="yes"/>
      <point x="576" y="286"/>
      <point x="428" y="312"/>
      <point x="295" y="449" type="curve"/>
      <point x="503" y="517"/>
      <point x="624" y="598"/>
      <point x="624" y="805" type="curve" smooth="yes"/>
      <point x="624" y="864"/>
      <point x="606" y="936"/>
      <point x="575" y="998" type="curve"/>
      <point x="1293" y="998" type="line"/>
      <point x="1293" y="772" type="line"/>
      <point x="1198" y="872"/>
      <point x="1085" y="914"/>
      <point x="994" y="914" type="curve" smooth="yes"/>
      <point x="823" y="914"/>
      <point x="697" y="827"/>
      <point x="697" y="662" type="curve" smooth="yes"/>
      <point x="697" y="468"/>
      <point x="880" y="352"/>
      <point x="1112" y="352" type="curve" smooth="yes"/>
      <point x="1171" y="352"/>
      <point x="1231" y="361"/>
      <point x="1293" y="386" type="curve"/>
      <point x="1293" y="-5" type="line"/>
      <point x="1200" y="-10"/>
      <point x="1108" y="-49"/>
      <point x="1048" y="-120" type="curve"/>
      <point x="1040" y="-128" type="line"/>
      <point x="947" y="-53"/>
      <point x="856" y="-10"/>
      <point x="773" y="-10" type="curve" smooth="yes"/>
      <point x="623" y="-10"/>
      <point x="477" y="-91"/>
      <point x="477" y="-276" type="curve" smooth="yes"/>
      <point x="477" y="-468"/>
      <point x="624" y="-627"/>
      <point x="946" y="-790" type="curve"/>
      <point x="1007" y="-692" type="line"/>
      <point x="814" y="-542"/>
      <point x="758" y="-438"/>
      <point x="758" y="-320" type="curve" smooth="yes"/>
      <point x="758" y="-222"/>
      <point x="815" y="-169"/>
      <point x="891" y="-169" type="curve" smooth="yes"/>
      <point x="919" y="-169"/>
      <point x="960" y="-180"/>
      <point x="998" y="-195" type="curve"/>
      <point x="973" y="-247"/>
      <point x="959" y="-309"/>
      <point x="949" y="-381" type="curve"/>
      <point x="1197" y="-435" type="line"/>
      <point x="1233" y="-202"/>
      <point x="1305" y="-148"/>
      <point x="1380" y="-148" type="curve" smooth="yes"/>
      <point x="1421" y="-149"/>
      <point x="1455" y="-162"/>
      <point x="1464" y="-175" type="curve"/>
      <point x="1476" y="-191"/>
      <point x="1482" y="-240"/>
      <point x="1482" y="-263" type="curve" smooth="yes"/>
      <point x="1482" y="-428"/>
      <point x="1335" y="-534"/>
      <point x="1186" y="-652" type="curve"/>
      <point x="1429" y="-799" type="line"/>
      <point x="1629" y="-643"/>
      <point x="1677" y="-505"/>
      <point x="1677" y="-383" type="curve" smooth="yes"/>
      <point x="1677" y="-306"/>
      <point x="1643" y="-225"/>
      <point x="1590" y="-157" type="curve"/>
    </contour>
    <contour>
      <point x="1047" y="487"/>
      <point x="1040" y="491"/>
      <point x="1036" y="496" type="curve" smooth="yes"/>
      <point x="1006" y="534"/>
      <point x="990" y="572"/>
      <point x="990" y="606" type="curve" smooth="yes"/>
      <point x="990" y="671"/>
      <point x="1040" y="720"/>
      <point x="1144" y="720" type="curve" smooth="yes"/>
      <point x="1195" y="720"/>
      <point x="1261" y="695"/>
      <point x="1293" y="681" type="curve"/>
      <point x="1293" y="615" type="line"/>
      <point x="1231" y="541"/>
      <point x="1143" y="487"/>
      <point x="1060" y="487" type="curve" smooth="yes"/>
    </contour>
    <contour>
      <point x="1143" y="1187" type="move" name="top"/>
    </contour>
    <contour>
      <point x="1336" y="-660" type="move" name="bottom"/>
    </contour>
  </outline>
</glyph>
<glyph name="uni0917094D0930" format="1">
  <advance width="1348"/>
  <note>
    dGRa
  </note>
  <outline>
    <contour>
      <point x="955" y="388" type="line"/>
      <point x="302" y="34" type="line"/>
      <point x="471" y="-174" type="line"/>
      <point x="1030" y="272" type="line"/>
    </contour>
    <component base="gadeva"/>
  </outline>
</glyph>
<glyph name="uni0918094D0932.loclMAR" format="1">
  <advance width="1352"/>
  <note>
    dGhLa.MAR
  </note>
  <outline>
    <contour>
      <point x="1128" y="998" type="line"/>
      <point x="1405" y="998" type="line"/>
      <point x="1356" y="1187" type="line"/>
      <point x="-54" y="1187" type="line"/>
      <point x="-4" y="998" type="line"/>
      <point x="60" y="998" type="line"/>
      <point x="55" y="980"/>
      <point x="52" y="961"/>
      <point x="52" y="940" type="curve" smooth="yes"/>
      <point x="52" y="867"/>
      <point x="109" y="808"/>
      <point x="219" y="757" type="curve"/>
      <point x="201" y="743"/>
      <point x="185" y="728"/>
      <point x="170" y="711" type="curve" smooth="yes"/>
      <point x="134" y="670"/>
      <point x="117" y="618"/>
      <point x="117" y="560" type="curve" smooth="yes"/>
      <point x="117" y="389"/>
      <point x="434" y="224"/>
      <point x="605" y="224" type="curve" smooth="yes"/>
      <point x="687" y="224"/>
      <point x="757" y="233"/>
      <point x="835" y="278" type="curve"/>
      <point x="835" y="169" type="line"/>
      <point x="770" y="151"/>
      <point x="711" y="117"/>
      <point x="668" y="66" type="curve"/>
      <point x="660" y="58" type="line"/>
      <point x="567" y="133"/>
      <point x="476" y="176"/>
      <point x="393" y="176" type="curve" smooth="yes"/>
      <point x="243" y="176"/>
      <point x="97" y="95"/>
      <point x="97" y="-90" type="curve" smooth="yes"/>
      <point x="97" y="-282"/>
      <point x="244" y="-441"/>
      <point x="566" y="-604" type="curve"/>
      <point x="627" y="-506" type="line"/>
      <point x="434" y="-356"/>
      <point x="378" y="-252"/>
      <point x="378" y="-134" type="curve" smooth="yes"/>
      <point x="378" y="-36"/>
      <point x="435" y="17"/>
      <point x="511" y="17" type="curve" smooth="yes"/>
      <point x="539" y="17"/>
      <point x="580" y="6"/>
      <point x="618" y="-9" type="curve"/>
      <point x="593" y="-61"/>
      <point x="579" y="-123"/>
      <point x="569" y="-195" type="curve"/>
      <point x="817" y="-249" type="line"/>
      <point x="853" y="-16"/>
      <point x="925" y="38"/>
      <point x="1000" y="38" type="curve" smooth="yes"/>
      <point x="1041" y="37"/>
      <point x="1075" y="24"/>
      <point x="1084" y="11" type="curve"/>
      <point x="1096" y="-5"/>
      <point x="1102" y="-54"/>
      <point x="1102" y="-77" type="curve" smooth="yes"/>
      <point x="1102" y="-242"/>
      <point x="955" y="-348"/>
      <point x="806" y="-466" type="curve"/>
      <point x="1049" y="-613" type="line"/>
      <point x="1249" y="-457"/>
      <point x="1297" y="-319"/>
      <point x="1297" y="-197" type="curve" smooth="yes"/>
      <point x="1297" y="-86"/>
      <point x="1226" y="35"/>
      <point x="1128" y="110" type="curve"/>
    </contour>
    <contour>
      <point x="461" y="405"/>
      <point x="426" y="404"/>
      <point x="414" y="415" type="curve" smooth="yes"/>
      <point x="402" y="426"/>
      <point x="391" y="445"/>
      <point x="391" y="485" type="curve" smooth="yes"/>
      <point x="391" y="580"/>
      <point x="553" y="609"/>
      <point x="726" y="626" type="curve"/>
      <point x="603" y="864" type="line"/>
      <point x="507" y="859"/>
      <point x="428" y="847"/>
      <point x="363" y="827" type="curve"/>
      <point x="347" y="847"/>
      <point x="337" y="868"/>
      <point x="337" y="893" type="curve" smooth="yes"/>
      <point x="337" y="973"/>
      <point x="401" y="998"/>
      <point x="493" y="998" type="curve" smooth="yes"/>
      <point x="835" y="998" type="line"/>
      <point x="835" y="637" type="line"/>
      <point x="790" y="540"/>
      <point x="630" y="405"/>
      <point x="486" y="405" type="curve" smooth="yes"/>
    </contour>
    <contour>
      <point x="982" y="1187" type="move" name="top"/>
    </contour>
    <contour>
      <point x="966" y="-470" type="move" name="bottom"/>
    </contour>
  </outline>
</glyph>
<glyph name="uni0919094D0915" format="1">
  <advance width="1503"/>
  <note>
    dNgKa
  </note>
  <outline>
    <contour>
      <point x="1018" y="57"/>
      <point x="964" y="36"/>
      <point x="905" y="-8" type="curve"/>
      <point x="905" y="96" type="line"/>
      <point x="1089" y="119"/>
      <point x="1227" y="203"/>
      <point x="1230" y="359" type="curve" smooth="yes"/>
      <point x="1230" y="463"/>
      <point x="1136" y="604"/>
      <point x="1053" y="656" type="curve"/>
      <point x="1032" y="668"/>
      <point x="1010" y="674"/>
      <point x="988" y="674" type="curve" smooth="yes"/>
      <point x="862" y="674"/>
      <point x="706" y="603"/>
      <point x="616" y="603" type="curve" smooth="yes"/>
      <point x="605" y="603"/>
      <point x="597" y="610"/>
      <point x="593" y="617" type="curve"/>
      <point x="585" y="633"/>
      <point x="577" y="652"/>
      <point x="577" y="674" type="curve" smooth="yes"/>
      <point x="577" y="731"/>
      <point x="626" y="739"/>
      <point x="719" y="739" type="curve" smooth="yes"/>
      <point x="1092" y="739" type="line"/>
      <point x="1096" y="779"/>
      <point x="1097" y="788"/>
      <point x="1097" y="810" type="curve" smooth="yes"/>
      <point x="1097" y="867"/>
      <point x="1091" y="925"/>
      <point x="1070" y="998" type="curve"/>
      <point x="1555" y="998" type="line"/>
      <point x="1509" y="1187" type="line"/>
      <point x="-52" y="1187" type="line"/>
      <point x="-2" y="998" type="line"/>
      <point x="806" y="998" type="line"/>
      <point x="807" y="990"/>
      <point x="807" y="985"/>
      <point x="807" y="968" type="curve" smooth="yes"/>
      <point x="807" y="951"/>
      <point x="807" y="932"/>
      <point x="803" y="912" type="curve"/>
      <point x="587" y="912" type="line" smooth="yes"/>
      <point x="444" y="912"/>
      <point x="272" y="887"/>
      <point x="272" y="710" type="curve" smooth="yes"/>
      <point x="272" y="596"/>
      <point x="474" y="396"/>
      <point x="670" y="396" type="curve" smooth="yes"/>
      <point x="812" y="396"/>
      <point x="987" y="480"/>
      <point x="1038" y="480" type="curve" smooth="yes"/>
      <point x="1048" y="480"/>
      <point x="1054" y="480"/>
      <point x="1059" y="477" type="curve"/>
      <point x="1060" y="472"/>
      <point x="1061" y="465"/>
      <point x="1061" y="458" type="curve" smooth="yes"/>
      <point x="1060" y="375"/>
      <point x="931" y="302"/>
      <point x="771" y="297" type="curve" smooth="yes"/>
      <point x="619" y="292"/>
      <point x="420" y="321"/>
      <point x="165" y="623" type="curve"/>
      <point x="52" y="547" type="line"/>
      <point x="215" y="294"/>
      <point x="419" y="157"/>
      <point x="628" y="109" type="curve"/>
      <point x="628" y="-63" type="line"/>
      <point x="525" y="36"/>
      <point x="450" y="84"/>
      <point x="338" y="84" type="curve" smooth="yes"/>
      <point x="174" y="84"/>
      <point x="52" y="-3"/>
      <point x="52" y="-212" type="curve" smooth="yes"/>
      <point x="52" y="-380"/>
      <point x="275" y="-573"/>
      <point x="475" y="-573" type="curve" smooth="yes"/>
      <point x="538" y="-573"/>
      <point x="579" y="-563"/>
      <point x="628" y="-536" type="curve"/>
      <point x="628" y="-643" type="line"/>
      <point x="905" y="-698" type="line"/>
      <point x="905" y="-305" type="line"/>
      <point x="984" y="-198"/>
      <point x="1115" y="-119"/>
      <point x="1183" y="-119" type="curve" smooth="yes"/>
      <point x="1195" y="-119"/>
      <point x="1221" y="-121"/>
      <point x="1231" y="-130" type="curve"/>
      <point x="1236" y="-136"/>
      <point x="1238" y="-156"/>
      <point x="1238" y="-170" type="curve" smooth="yes"/>
      <point x="1238" y="-256"/>
      <point x="1134" y="-351"/>
      <point x="975" y="-462" type="curve"/>
      <point x="1209" y="-631" type="line"/>
      <point x="1336" y="-550"/>
      <point x="1429" y="-445"/>
      <point x="1429" y="-315" type="curve" smooth="yes"/>
      <point x="1429" y="-168"/>
      <point x="1268" y="57"/>
      <point x="1094" y="57" type="curve" smooth="yes"/>
    </contour>
    <contour>
      <point x="1304" y="845"/>
      <point x="1173" y="729"/>
      <point x="1173" y="665" type="curve" smooth="yes"/>
      <point x="1173" y="616"/>
      <point x="1298" y="485"/>
      <point x="1350" y="485" type="curve" smooth="yes"/>
      <point x="1400" y="485"/>
      <point x="1531" y="607"/>
      <point x="1531" y="665" type="curve" smooth="yes"/>
      <point x="1531" y="704"/>
      <point x="1420" y="845"/>
      <point x="1351" y="845" type="curve" smooth="yes"/>
    </contour>
    <contour>
      <point x="379" y="-425"/>
      <point x="371" y="-425"/>
      <point x="365" y="-413" type="curve" smooth="yes"/>
      <point x="346" y="-374"/>
      <point x="333" y="-321"/>
      <point x="333" y="-263" type="curve" smooth="yes"/>
      <point x="333" y="-155"/>
      <point x="379" y="-109"/>
      <point x="475" y="-109" type="curve" smooth="yes"/>
      <point x="536" y="-109"/>
      <point x="578" y="-126"/>
      <point x="628" y="-152" type="curve"/>
      <point x="628" y="-259" type="line"/>
      <point x="561" y="-367"/>
      <point x="457" y="-425"/>
      <point x="389" y="-425" type="curve" smooth="yes"/>
    </contour>
    <contour>
      <point x="928" y="1187" type="move" name="top"/>
    </contour>
    <contour>
      <point x="767" y="-610" type="move" name="bottom"/>
    </contour>
  </outline>
</glyph>
<glyph name="uni0919094D0915094D" format="1">
  <advance width="1509"/>
  <outline>
    <contour>
      <point x="1025" y="56"/>
      <point x="969" y="36"/>
      <point x="906" y="-8" type="curve"/>
      <point x="906" y="96" type="line"/>
      <point x="1090" y="119"/>
      <point x="1228" y="203"/>
      <point x="1231" y="359" type="curve" smooth="yes"/>
      <point x="1231" y="463"/>
      <point x="1137" y="604"/>
      <point x="1054" y="656" type="curve"/>
      <point x="1033" y="668"/>
      <point x="1011" y="674"/>
      <point x="989" y="674" type="curve" smooth="yes"/>
      <point x="863" y="674"/>
      <point x="707" y="603"/>
      <point x="617" y="603" type="curve" smooth="yes"/>
      <point x="606" y="603"/>
      <point x="598" y="610"/>
      <point x="594" y="617" type="curve"/>
      <point x="586" y="633"/>
      <point x="578" y="652"/>
      <point x="578" y="674" type="curve" smooth="yes"/>
      <point x="578" y="731"/>
      <point x="627" y="739"/>
      <point x="720" y="739" type="curve" smooth="yes"/>
      <point x="1067" y="739" type="line" smooth="yes"/>
      <point x="1088" y="739"/>
      <point x="1095" y="747"/>
      <point x="1096" y="762" type="curve" smooth="yes"/>
      <point x="1097" y="775"/>
      <point x="1098" y="792"/>
      <point x="1098" y="810" type="curve" smooth="yes"/>
      <point x="1098" y="868"/>
      <point x="1092" y="924"/>
      <point x="1070" y="998" type="curve"/>
      <point x="1560" y="998" type="line"/>
      <point x="1511" y="1187" type="line"/>
      <point x="-54" y="1187" type="line"/>
      <point x="-1" y="998" type="line"/>
      <point x="806" y="998" type="line"/>
      <point x="807" y="985"/>
      <point x="808" y="974"/>
      <point x="808" y="964" type="curve"/>
      <point x="809" y="945"/>
      <point x="807" y="929"/>
      <point x="804" y="912" type="curve"/>
      <point x="588" y="912" type="line" smooth="yes"/>
      <point x="445" y="912"/>
      <point x="273" y="887"/>
      <point x="273" y="710" type="curve" smooth="yes"/>
      <point x="273" y="596"/>
      <point x="475" y="396"/>
      <point x="671" y="396" type="curve" smooth="yes"/>
      <point x="813" y="396"/>
      <point x="988" y="480"/>
      <point x="1039" y="480" type="curve" smooth="yes"/>
      <point x="1049" y="480"/>
      <point x="1055" y="480"/>
      <point x="1060" y="477" type="curve"/>
      <point x="1061" y="472"/>
      <point x="1062" y="465"/>
      <point x="1062" y="458" type="curve" smooth="yes"/>
      <point x="1061" y="375"/>
      <point x="932" y="302"/>
      <point x="772" y="297" type="curve" smooth="yes"/>
      <point x="618" y="292"/>
      <point x="419" y="324"/>
      <point x="166" y="621" type="curve"/>
      <point x="53" y="546" type="line"/>
      <point x="216" y="297"/>
      <point x="420" y="159"/>
      <point x="629" y="110" type="curve"/>
      <point x="629" y="-63" type="line"/>
      <point x="526" y="36"/>
      <point x="451" y="84"/>
      <point x="339" y="84" type="curve" smooth="yes"/>
      <point x="175" y="84"/>
      <point x="53" y="-3"/>
      <point x="53" y="-212" type="curve" smooth="yes"/>
      <point x="53" y="-380"/>
      <point x="276" y="-573"/>
      <point x="476" y="-573" type="curve" smooth="yes"/>
      <point x="539" y="-573"/>
      <point x="580" y="-563"/>
      <point x="629" y="-536" type="curve"/>
      <point x="629" y="-641" type="line"/>
      <point x="906" y="-700" type="line"/>
      <point x="906" y="-324" type="line"/>
      <point x="963" y="-239"/>
      <point x="1064" y="-135"/>
      <point x="1160" y="-135" type="curve" smooth="yes"/>
      <point x="1204" y="-135"/>
      <point x="1263" y="-145"/>
      <point x="1358" y="-233" type="curve"/>
      <point x="1288" y="-14" type="line"/>
      <point x="1237" y="21"/>
      <point x="1167" y="56"/>
      <point x="1092" y="56" type="curve" smooth="yes"/>
    </contour>
    <contour>
      <point x="1305" y="845"/>
      <point x="1174" y="729"/>
      <point x="1174" y="665" type="curve" smooth="yes"/>
      <point x="1174" y="616"/>
      <point x="1299" y="485"/>
      <point x="1351" y="485" type="curve" smooth="yes"/>
      <point x="1401" y="485"/>
      <point x="1532" y="607"/>
      <point x="1532" y="665" type="curve" smooth="yes"/>
      <point x="1532" y="704"/>
      <point x="1421" y="845"/>
      <point x="1352" y="845" type="curve" smooth="yes"/>
    </contour>
    <contour>
      <point x="380" y="-425"/>
      <point x="372" y="-425"/>
      <point x="366" y="-413" type="curve" smooth="yes"/>
      <point x="347" y="-374"/>
      <point x="334" y="-321"/>
      <point x="334" y="-263" type="curve" smooth="yes"/>
      <point x="334" y="-155"/>
      <point x="380" y="-109"/>
      <point x="476" y="-109" type="curve" smooth="yes"/>
      <point x="537" y="-109"/>
      <point x="579" y="-126"/>
      <point x="629" y="-152" type="curve"/>
      <point x="629" y="-259" type="line"/>
      <point x="562" y="-367"/>
      <point x="458" y="-425"/>
      <point x="390" y="-425" type="curve" smooth="yes"/>
    </contour>
    <contour>
      <point x="929" y="1187" type="move" name="top"/>
    </contour>
    <contour>
      <point x="768" y="-610" type="move" name="bottom"/>
    </contour>
  </outline>
</glyph>
<glyph name="uni0919094D0915094D0924094D0924" format="1">
  <advance width="1533"/>
  <note>
    dNgKTTa
  </note>
  <outline>
    <contour>
      <point x="1097" y="57"/>
      <point x="1040" y="33"/>
      <point x="978" y="-13" type="curve"/>
      <point x="978" y="103" type="line"/>
      <point x="1140" y="133"/>
      <point x="1257" y="216"/>
      <point x="1260" y="359" type="curve" smooth="yes"/>
      <point x="1260" y="463"/>
      <point x="1166" y="604"/>
      <point x="1083" y="656" type="curve"/>
      <point x="1062" y="668"/>
      <point x="1040" y="674"/>
      <point x="1018" y="674" type="curve" smooth="yes"/>
      <point x="892" y="674"/>
      <point x="736" y="603"/>
      <point x="646" y="603" type="curve" smooth="yes"/>
      <point x="635" y="603"/>
      <point x="627" y="610"/>
      <point x="623" y="617" type="curve"/>
      <point x="615" y="633"/>
      <point x="607" y="652"/>
      <point x="607" y="674" type="curve" smooth="yes"/>
      <point x="607" y="731"/>
      <point x="656" y="739"/>
      <point x="749" y="739" type="curve" smooth="yes"/>
      <point x="1122" y="739" type="line"/>
      <point x="1126" y="779"/>
      <point x="1127" y="788"/>
      <point x="1127" y="810" type="curve" smooth="yes"/>
      <point x="1127" y="867"/>
      <point x="1121" y="925"/>
      <point x="1100" y="998" type="curve"/>
      <point x="1585" y="998" type="line"/>
      <point x="1544" y="1187" type="line"/>
      <point x="-52" y="1187" type="line"/>
      <point x="1" y="998" type="line"/>
      <point x="836" y="998" type="line"/>
      <point x="837" y="990"/>
      <point x="837" y="985"/>
      <point x="837" y="968" type="curve" smooth="yes"/>
      <point x="837" y="951"/>
      <point x="837" y="932"/>
      <point x="833" y="912" type="curve"/>
      <point x="617" y="912" type="line" smooth="yes"/>
      <point x="474" y="912"/>
      <point x="302" y="887"/>
      <point x="302" y="710" type="curve" smooth="yes"/>
      <point x="302" y="596"/>
      <point x="504" y="396"/>
      <point x="700" y="396" type="curve" smooth="yes"/>
      <point x="842" y="396"/>
      <point x="1017" y="480"/>
      <point x="1068" y="480" type="curve" smooth="yes"/>
      <point x="1078" y="480"/>
      <point x="1084" y="480"/>
      <point x="1089" y="477" type="curve"/>
      <point x="1090" y="472"/>
      <point x="1091" y="465"/>
      <point x="1091" y="458" type="curve" smooth="yes"/>
      <point x="1090" y="375"/>
      <point x="961" y="302"/>
      <point x="801" y="297" type="curve" smooth="yes"/>
      <point x="649" y="292"/>
      <point x="450" y="321"/>
      <point x="195" y="623" type="curve"/>
      <point x="82" y="547" type="line"/>
      <point x="256" y="277"/>
      <point x="477" y="139"/>
      <point x="701" y="101" type="curve"/>
      <point x="701" y="8" type="line"/>
      <point x="3" y="8" type="line"/>
      <point x="54" y="-176" type="line"/>
      <point x="181" y="-176" type="line"/>
      <point x="163" y="-204"/>
      <point x="153" y="-239"/>
      <point x="153" y="-282" type="curve" smooth="yes"/>
      <point x="153" y="-416"/>
      <point x="264" y="-529"/>
      <point x="452" y="-675" type="curve"/>
      <point x="584" y="-611" type="line"/>
      <point x="451" y="-412"/>
      <point x="448" y="-372"/>
      <point x="448" y="-301" type="curve" smooth="yes"/>
      <point x="448" y="-205"/>
      <point x="527" y="-176"/>
      <point x="626" y="-176" type="curve" smooth="yes"/>
      <point x="701" y="-176" type="line"/>
      <point x="701" y="-642" type="line"/>
      <point x="978" y="-699" type="line"/>
      <point x="978" y="-323" type="line"/>
      <point x="1058" y="-209"/>
      <point x="1188" y="-125"/>
      <point x="1270" y="-125" type="curve" smooth="yes"/>
      <point x="1282" y="-125"/>
      <point x="1308" y="-127"/>
      <point x="1318" y="-136" type="curve"/>
      <point x="1324" y="-142"/>
      <point x="1326" y="-162"/>
      <point x="1326" y="-178" type="curve" smooth="yes"/>
      <point x="1326" y="-266"/>
      <point x="1209" y="-344"/>
      <point x="1042" y="-456" type="curve"/>
      <point x="1285" y="-632" type="line"/>
      <point x="1416" y="-546"/>
      <point x="1522" y="-461"/>
      <point x="1522" y="-327" type="curve" smooth="yes"/>
      <point x="1522" y="-176"/>
      <point x="1357" y="57"/>
      <point x="1177" y="57" type="curve" smooth="yes"/>
    </contour>
    <contour>
      <point x="1337" y="845"/>
      <point x="1206" y="729"/>
      <point x="1206" y="665" type="curve" smooth="yes"/>
      <point x="1206" y="616"/>
      <point x="1331" y="485"/>
      <point x="1383" y="485" type="curve" smooth="yes"/>
      <point x="1433" y="485"/>
      <point x="1564" y="607"/>
      <point x="1564" y="665" type="curve" smooth="yes"/>
      <point x="1564" y="704"/>
      <point x="1453" y="845"/>
      <point x="1384" y="845" type="curve" smooth="yes"/>
    </contour>
    <contour>
      <point x="961" y="1187" type="move" name="top"/>
    </contour>
    <contour>
      <point x="840" y="-600" type="move" name="bottom"/>
    </contour>
  </outline>
</glyph>
<glyph name="uni0919094D0915094D0930" format="1">
  <advance width="1503"/>
  <note>
    dNgKRa
  </note>
  <outline>
    <contour>
      <point x="677" y="-344" type="line"/>
      <point x="141" y="-567" type="line"/>
      <point x="305" y="-771" type="line"/>
      <point x="750" y="-445" type="line"/>
    </contour>
    <component base="uni0919094D0915"/>
    <contour>
      <point x="929" y="1187" type="move" name="top"/>
    </contour>
    <contour>
      <point x="851" y="-590" type="move" name="bottom"/>
    </contour>
  </outline>
</glyph>
<glyph name="uni091A094D091A.alt" format="1">
  <advance width="1425"/>
  <note>
    dCCa.alt
  </note>
  <outline>
    <contour>
      <point x="1470" y="998" type="line"/>
      <point x="1426" y="1187" type="line"/>
      <point x="-49" y="1187" type="line"/>
      <point x="-1" y="998" type="line"/>
      <point x="981" y="998" type="line"/>
      <point x="981" y="750" type="line"/>
      <point x="893" y="612"/>
      <point x="769" y="499"/>
      <point x="615" y="499" type="curve" smooth="yes"/>
      <point x="585" y="499"/>
      <point x="551" y="501"/>
      <point x="541" y="511" type="curve" smooth="yes"/>
      <point x="534" y="518"/>
      <point x="520" y="550"/>
      <point x="520" y="582" type="curve" smooth="yes"/>
      <point x="520" y="710"/>
      <point x="618" y="722"/>
      <point x="821" y="722" type="curve" smooth="yes"/>
      <point x="842" y="722" type="line"/>
      <point x="794" y="903" type="line"/>
      <point x="49" y="903" type="line"/>
      <point x="101" y="722" type="line"/>
      <point x="302" y="722" type="line"/>
      <point x="274" y="696"/>
      <point x="261" y="670"/>
      <point x="261" y="644" type="curve" smooth="yes"/>
      <point x="261" y="608"/>
      <point x="274" y="579"/>
      <point x="299" y="547" type="curve" smooth="yes"/>
      <point x="397" y="418"/>
      <point x="628" y="343"/>
      <point x="751" y="343" type="curve" smooth="yes"/>
      <point x="844" y="343"/>
      <point x="917" y="370"/>
      <point x="981" y="416" type="curve"/>
      <point x="981" y="241" type="line"/>
      <point x="940" y="71"/>
      <point x="843" y="-58"/>
      <point x="694" y="-97" type="curve" smooth="yes"/>
      <point x="665" y="-104"/>
      <point x="631" y="-110"/>
      <point x="618" y="-103" type="curve" smooth="yes"/>
      <point x="611" y="-99"/>
      <point x="589" y="-71"/>
      <point x="581" y="-39" type="curve" smooth="yes"/>
      <point x="550" y="84"/>
      <point x="673" y="117"/>
      <point x="763" y="136" type="curve"/>
      <point x="760" y="136" type="line"/>
      <point x="781" y="141" type="line"/>
      <point x="693" y="303" type="line"/>
      <point x="91" y="159" type="line"/>
      <point x="186" y="-3" type="line"/>
      <point x="363" y="40" type="line"/>
      <point x="355" y="25"/>
      <point x="350" y="9"/>
      <point x="348" y="-9" type="curve" smooth="yes"/>
      <point x="343" y="-50"/>
      <point x="355" y="-93"/>
      <point x="393" y="-135" type="curve" smooth="yes"/>
      <point x="490" y="-239"/>
      <point x="761" y="-254"/>
      <point x="848" y="-238" type="curve" smooth="yes"/>
      <point x="902" y="-228"/>
      <point x="945" y="-208"/>
      <point x="981" y="-179" type="curve"/>
      <point x="981" y="-269" type="line"/>
      <point x="1267" y="-328" type="line"/>
      <point x="1267" y="998" type="line"/>
    </contour>
    <contour>
      <point x="1154" y="1187" type="move" name="top"/>
    </contour>
    <contour>
      <point x="1154" y="-250" type="move" name="bottom"/>
    </contour>
  </outline>
</glyph>
<glyph name="uni091A094D091A" format="1">
  <advance width="2241"/>
  <note>
    dCCa
  </note>
  <outline>
    <contour>
      <point x="2293" y="998" type="line"/>
      <point x="2249" y="1187" type="line"/>
      <point x="-52" y="1187" type="line"/>
      <point x="-3" y="998" type="line"/>
      <point x="1767" y="998" type="line"/>
      <point x="1767" y="549" type="line"/>
      <point x="1710" y="387"/>
      <point x="1575" y="269"/>
      <point x="1421" y="269" type="curve" smooth="yes"/>
      <point x="1391" y="269"/>
      <point x="1361" y="274"/>
      <point x="1350" y="285" type="curve" smooth="yes"/>
      <point x="1335" y="300"/>
      <point x="1326" y="333"/>
      <point x="1326" y="375" type="curve" smooth="yes"/>
      <point x="1326" y="513"/>
      <point x="1414" y="602"/>
      <point x="1617" y="602" type="curve" smooth="yes"/>
      <point x="1638" y="602" type="line"/>
      <point x="1592" y="802" type="line"/>
      <point x="896" y="802" type="line"/>
      <point x="945" y="602" type="line"/>
      <point x="1113" y="602" type="line"/>
      <point x="989" y="342"/>
      <point x="824" y="265"/>
      <point x="669" y="265" type="curve" smooth="yes"/>
      <point x="625" y="265"/>
      <point x="592" y="274"/>
      <point x="581" y="285" type="curve" smooth="yes"/>
      <point x="566" y="300"/>
      <point x="557" y="333"/>
      <point x="557" y="375" type="curve" smooth="yes"/>
      <point x="557" y="513"/>
      <point x="635" y="602"/>
      <point x="838" y="602" type="curve" smooth="yes"/>
      <point x="858" y="602" type="line"/>
      <point x="812" y="802" type="line"/>
      <point x="77" y="802" type="line"/>
      <point x="126" y="602" type="line"/>
      <point x="338" y="602" type="line"/>
      <point x="304" y="567"/>
      <point x="282" y="519"/>
      <point x="282" y="456" type="curve" smooth="yes"/>
      <point x="282" y="410"/>
      <point x="297" y="365"/>
      <point x="323" y="324" type="curve" smooth="yes"/>
      <point x="436" y="141"/>
      <point x="691" y="76"/>
      <point x="837" y="76" type="curve" smooth="yes"/>
      <point x="967" y="76"/>
      <point x="1090" y="143"/>
      <point x="1169" y="235" type="curve"/>
      <point x="1289" y="131"/>
      <point x="1469" y="73"/>
      <point x="1567" y="73" type="curve" smooth="yes"/>
      <point x="1651" y="73"/>
      <point x="1714" y="86"/>
      <point x="1767" y="118" type="curve"/>
      <point x="1767" y="-42" type="line"/>
      <point x="2063" y="-98" type="line"/>
      <point x="2063" y="998" type="line"/>
    </contour>
    <contour>
      <point x="1915" y="1187" type="move" name="top"/>
    </contour>
    <contour>
      <point x="1915" y="0" type="move" name="bottom"/>
    </contour>
  </outline>
</glyph>
<glyph name="uni091A094D0932.loclMAR" format="1">
  <advance width="1417"/>
  <note>
    dCLa.MAR
  </note>
  <outline>
    <contour>
      <point x="1247" y="998" type="line"/>
      <point x="1469" y="998" type="line"/>
      <point x="1425" y="1187" type="line"/>
      <point x="-50" y="1187" type="line"/>
      <point x="0" y="998" type="line"/>
      <point x="961" y="998" type="line"/>
      <point x="961" y="680" type="line"/>
      <point x="873" y="542"/>
      <point x="719" y="429"/>
      <point x="565" y="429" type="curve" smooth="yes"/>
      <point x="535" y="429"/>
      <point x="501" y="431"/>
      <point x="491" y="441" type="curve" smooth="yes"/>
      <point x="484" y="448"/>
      <point x="470" y="480"/>
      <point x="470" y="512" type="curve" smooth="yes"/>
      <point x="470" y="640"/>
      <point x="608" y="682"/>
      <point x="771" y="682" type="curve" smooth="yes"/>
      <point x="791" y="682" type="line"/>
      <point x="745" y="863" type="line"/>
      <point x="18" y="863" type="line"/>
      <point x="71" y="682" type="line"/>
      <point x="254" y="682" type="line"/>
      <point x="223" y="644"/>
      <point x="211" y="605"/>
      <point x="211" y="574" type="curve" smooth="yes"/>
      <point x="211" y="538"/>
      <point x="224" y="509"/>
      <point x="249" y="477" type="curve" smooth="yes"/>
      <point x="347" y="348"/>
      <point x="578" y="273"/>
      <point x="701" y="273" type="curve" smooth="yes"/>
      <point x="811" y="273"/>
      <point x="892" y="293"/>
      <point x="961" y="334" type="curve"/>
      <point x="961" y="211" type="line"/>
      <point x="872" y="203"/>
      <point x="785" y="164"/>
      <point x="728" y="96" type="curve"/>
      <point x="720" y="88" type="line"/>
      <point x="627" y="163"/>
      <point x="536" y="206"/>
      <point x="453" y="206" type="curve" smooth="yes"/>
      <point x="303" y="206"/>
      <point x="157" y="125"/>
      <point x="157" y="-60" type="curve" smooth="yes"/>
      <point x="157" y="-252"/>
      <point x="304" y="-411"/>
      <point x="626" y="-574" type="curve"/>
      <point x="687" y="-476" type="line"/>
      <point x="494" y="-326"/>
      <point x="438" y="-222"/>
      <point x="438" y="-104" type="curve" smooth="yes"/>
      <point x="438" y="-6"/>
      <point x="495" y="47"/>
      <point x="571" y="47" type="curve" smooth="yes"/>
      <point x="599" y="47"/>
      <point x="640" y="36"/>
      <point x="678" y="21" type="curve"/>
      <point x="653" y="-31"/>
      <point x="639" y="-93"/>
      <point x="629" y="-165" type="curve"/>
      <point x="877" y="-219" type="line"/>
      <point x="913" y="14"/>
      <point x="985" y="68"/>
      <point x="1060" y="68" type="curve" smooth="yes"/>
      <point x="1101" y="67"/>
      <point x="1135" y="54"/>
      <point x="1144" y="41" type="curve"/>
      <point x="1156" y="25"/>
      <point x="1162" y="-24"/>
      <point x="1162" y="-47" type="curve" smooth="yes"/>
      <point x="1162" y="-212"/>
      <point x="1015" y="-318"/>
      <point x="866" y="-436" type="curve"/>
      <point x="1109" y="-583" type="line"/>
      <point x="1309" y="-427"/>
      <point x="1357" y="-289"/>
      <point x="1357" y="-167" type="curve" smooth="yes"/>
      <point x="1357" y="-80"/>
      <point x="1313" y="14"/>
      <point x="1247" y="86" type="curve"/>
    </contour>
    <contour>
      <point x="1104" y="1187" type="move" name="top"/>
    </contour>
    <contour>
      <point x="1038" y="-430" type="move" name="bottom"/>
    </contour>
  </outline>
</glyph>
<glyph name="uni091B094D0932.loclMAR" format="1">
  <advance width="1413"/>
  <note>
    dChLa.MAR
  </note>
  <outline>
    <contour>
      <point x="1327" y="663"/>
      <point x="1256" y="783"/>
      <point x="1147" y="850" type="curve"/>
      <point x="1150" y="869"/>
      <point x="1152" y="887"/>
      <point x="1152" y="907" type="curve" smooth="yes"/>
      <point x="1152" y="937"/>
      <point x="1142" y="968"/>
      <point x="1128" y="998" type="curve"/>
      <point x="1458" y="998" type="line"/>
      <point x="1416" y="1187" type="line"/>
      <point x="-49" y="1187" type="line"/>
      <point x="-0" y="998" type="line"/>
      <point x="92" y="998" type="line"/>
      <point x="90" y="987"/>
      <point x="89" y="976"/>
      <point x="89" y="965" type="curve" smooth="yes"/>
      <point x="89" y="893"/>
      <point x="131" y="821"/>
      <point x="221" y="768" type="curve"/>
      <point x="144" y="724"/>
      <point x="92" y="662"/>
      <point x="92" y="571" type="curve" smooth="yes"/>
      <point x="92" y="346"/>
      <point x="422" y="144"/>
      <point x="733" y="144" type="curve" smooth="yes"/>
      <point x="800" y="144"/>
      <point x="863" y="149"/>
      <point x="921" y="160" type="curve"/>
      <point x="920" y="140"/>
      <point x="916" y="119"/>
      <point x="909" y="98" type="curve"/>
      <point x="828" y="86"/>
      <point x="750" y="48"/>
      <point x="698" y="-14" type="curve"/>
      <point x="690" y="-22" type="line"/>
      <point x="597" y="53"/>
      <point x="506" y="96"/>
      <point x="423" y="96" type="curve" smooth="yes"/>
      <point x="273" y="96"/>
      <point x="127" y="15"/>
      <point x="127" y="-170" type="curve" smooth="yes"/>
      <point x="127" y="-362"/>
      <point x="274" y="-521"/>
      <point x="596" y="-684" type="curve"/>
      <point x="657" y="-586" type="line"/>
      <point x="464" y="-436"/>
      <point x="408" y="-332"/>
      <point x="408" y="-214" type="curve" smooth="yes"/>
      <point x="408" y="-116"/>
      <point x="465" y="-63"/>
      <point x="541" y="-63" type="curve" smooth="yes"/>
      <point x="569" y="-63"/>
      <point x="610" y="-74"/>
      <point x="648" y="-89" type="curve"/>
      <point x="623" y="-141"/>
      <point x="609" y="-203"/>
      <point x="599" y="-275" type="curve"/>
      <point x="847" y="-329" type="line"/>
      <point x="883" y="-96"/>
      <point x="955" y="-42"/>
      <point x="1030" y="-42" type="curve" smooth="yes"/>
      <point x="1071" y="-43"/>
      <point x="1105" y="-56"/>
      <point x="1114" y="-69" type="curve"/>
      <point x="1126" y="-85"/>
      <point x="1132" y="-134"/>
      <point x="1132" y="-157" type="curve" smooth="yes"/>
      <point x="1132" y="-322"/>
      <point x="985" y="-428"/>
      <point x="836" y="-546" type="curve"/>
      <point x="1079" y="-693" type="line"/>
      <point x="1279" y="-537"/>
      <point x="1327" y="-399"/>
      <point x="1327" y="-277" type="curve" smooth="yes"/>
      <point x="1327" y="-152"/>
      <point x="1237" y="-14"/>
      <point x="1119" y="56" type="curve"/>
      <point x="1121" y="69"/>
      <point x="1122" y="83"/>
      <point x="1122" y="97" type="curve" smooth="yes"/>
      <point x="1123" y="134"/>
      <point x="1107" y="173"/>
      <point x="1087" y="208" type="curve"/>
      <point x="1237" y="273"/>
      <point x="1327" y="383"/>
      <point x="1327" y="522" type="curve" smooth="yes"/>
    </contour>
    <contour>
      <point x="489" y="318"/>
      <point x="413" y="325"/>
      <point x="390" y="338" type="curve" smooth="yes"/>
      <point x="378" y="345"/>
      <point x="361" y="398"/>
      <point x="361" y="453" type="curve" smooth="yes"/>
      <point x="361" y="563"/>
      <point x="509" y="585"/>
      <point x="655" y="621" type="curve"/>
      <point x="554" y="872" type="line"/>
      <point x="501" y="861"/>
      <point x="446" y="850"/>
      <point x="393" y="835" type="curve"/>
      <point x="385" y="854"/>
      <point x="382" y="874"/>
      <point x="382" y="893" type="curve" smooth="yes"/>
      <point x="382" y="962"/>
      <point x="433" y="998"/>
      <point x="527" y="998" type="curve" smooth="yes"/>
      <point x="932" y="998" type="line"/>
      <point x="932" y="986" type="line" smooth="yes"/>
      <point x="932" y="960"/>
      <point x="928" y="935"/>
      <point x="919" y="907" type="curve"/>
      <point x="801" y="901"/>
      <point x="702" y="842"/>
      <point x="702" y="720" type="curve" smooth="yes"/>
      <point x="702" y="629"/>
      <point x="775" y="542"/>
      <point x="983" y="475" type="curve"/>
      <point x="885" y="386"/>
      <point x="720" y="318"/>
      <point x="532" y="318" type="curve" smooth="yes"/>
    </contour>
    <contour>
      <point x="949" y="743"/>
      <point x="987" y="777"/>
      <point x="1035" y="777" type="curve" smooth="yes"/>
      <point x="1042" y="777"/>
      <point x="1054" y="777"/>
      <point x="1057" y="774" type="curve"/>
      <point x="1065" y="763"/>
      <point x="1079" y="716"/>
      <point x="1079" y="654" type="curve" smooth="yes"/>
      <point x="1079" y="620"/>
      <point x="1068" y="585"/>
      <point x="1048" y="551" type="curve"/>
      <point x="974" y="593"/>
      <point x="949" y="634"/>
      <point x="949" y="681" type="curve" smooth="yes"/>
    </contour>
    <contour>
      <point x="1001" y="1187" type="move" name="top"/>
    </contour>
    <contour>
      <point x="998" y="-540" type="move" name="bottom"/>
    </contour>
  </outline>
</glyph>
<glyph name="uni091C094D091C.alt" format="1">
  <advance width="1717"/>
  <note>
    dJJa.alt
  </note>
  <outline>
    <contour>
      <point x="1266" y="998" type="line"/>
      <point x="1266" y="-141" type="line"/>
      <point x="1563" y="-196" type="line"/>
      <point x="1563" y="998" type="line"/>
      <point x="1767" y="998" type="line"/>
      <point x="1721" y="1187" type="line"/>
      <point x="1062" y="1187" type="line"/>
      <point x="1111" y="998" type="line"/>
    </contour>
    <component base="uni091C094D091C094D.alt"/>
    <contour>
      <point x="1415" y="1187" type="move" name="top"/>
    </contour>
    <contour>
      <point x="1415" y="-130" type="move" name="bottom"/>
    </contour>
  </outline>
</glyph>
<glyph name="uni091C094D0930094D" format="1">
  <advance width="1015"/>
  <note>
    dJR.half
  </note>
  <outline>
    <contour>
      <point x="-1" y="998" type="line"/>
      <point x="1064" y="998" type="line"/>
      <point x="1020" y="1187" type="line"/>
      <point x="-48" y="1187" type="line"/>
    </contour>
    <contour>
      <point x="1313" y="640" type="line"/>
      <point x="1268" y="830" type="line"/>
      <point x="485" y="830" type="line"/>
      <point x="520" y="683" type="line"/>
      <point x="653" y="625"/>
      <point x="706" y="570"/>
      <point x="706" y="517" type="curve" smooth="yes"/>
      <point x="706" y="449"/>
      <point x="658" y="387"/>
      <point x="570" y="387" type="curve" smooth="yes"/>
      <point x="450" y="387"/>
      <point x="331" y="468"/>
      <point x="205" y="784" type="curve"/>
      <point x="65" y="741" type="line"/>
      <point x="185" y="354"/>
      <point x="338" y="126"/>
      <point x="664" y="126" type="curve" smooth="yes"/>
      <point x="854" y="126"/>
      <point x="998" y="238"/>
      <point x="998" y="389" type="curve" smooth="yes"/>
      <point x="998" y="491"/>
      <point x="938" y="601"/>
      <point x="793" y="640" type="curve"/>
    </contour>
    <contour>
      <point x="1266" y="541" type="line"/>
      <point x="787" y="-7" type="line"/>
      <point x="1030" y="-148" type="line"/>
      <point x="1382" y="461" type="line"/>
    </contour>
  </outline>
</glyph>
<glyph name="uni091D094D" format="1">
  <advance width="1127"/>
  <note>
    dJh.half
  </note>
  <outline>
    <contour>
      <point x="1339" y="662" type="line"/>
      <point x="1188" y="532"/>
      <point x="1104" y="495"/>
      <point x="1019" y="495" type="curve" smooth="yes"/>
      <point x="994" y="495"/>
      <point x="970" y="498"/>
      <point x="946" y="505" type="curve"/>
      <point x="921" y="534"/>
      <point x="892" y="558"/>
      <point x="861" y="572" type="curve" smooth="yes"/>
      <point x="839" y="583"/>
      <point x="815" y="589"/>
      <point x="792" y="589" type="curve" smooth="yes"/>
      <point x="681" y="589"/>
      <point x="544" y="537"/>
      <point x="458" y="537" type="curve" smooth="yes"/>
      <point x="435" y="537"/>
      <point x="422" y="539"/>
      <point x="414" y="552" type="curve"/>
      <point x="407" y="571"/>
      <point x="403" y="598"/>
      <point x="403" y="619" type="curve" smooth="yes"/>
      <point x="403" y="659"/>
      <point x="412" y="694"/>
      <point x="524" y="694" type="curve" smooth="yes"/>
      <point x="921" y="694" type="line"/>
      <point x="922" y="735"/>
      <point x="922" y="754"/>
      <point x="922" y="776" type="curve"/>
      <point x="921" y="837"/>
      <point x="915" y="914"/>
      <point x="903" y="998" type="curve"/>
      <point x="1185" y="998" type="line"/>
      <point x="1139" y="1187" type="line"/>
      <point x="-55" y="1187" type="line"/>
      <point x="-5" y="998" type="line"/>
      <point x="623" y="998" type="line"/>
      <point x="625" y="979"/>
      <point x="627" y="957"/>
      <point x="627" y="939" type="curve" smooth="yes"/>
      <point x="627" y="917"/>
      <point x="625" y="895"/>
      <point x="620" y="874" type="curve"/>
      <point x="358" y="874" type="line" smooth="yes"/>
      <point x="253" y="874"/>
      <point x="102" y="846"/>
      <point x="102" y="674" type="curve" smooth="yes"/>
      <point x="102" y="570"/>
      <point x="230" y="321"/>
      <point x="520" y="321" type="curve" smooth="yes"/>
      <point x="614" y="321"/>
      <point x="765" y="377"/>
      <point x="806" y="377" type="curve" smooth="yes"/>
      <point x="809" y="377"/>
      <point x="810" y="361"/>
      <point x="810" y="353" type="curve" smooth="yes"/>
      <point x="810" y="248"/>
      <point x="653" y="196"/>
      <point x="507" y="196" type="curve" smooth="yes"/>
      <point x="467" y="196"/>
      <point x="405" y="199"/>
      <point x="369" y="208" type="curve"/>
      <point x="327" y="273"/>
      <point x="271" y="346"/>
      <point x="233" y="346" type="curve" smooth="yes"/>
      <point x="133" y="346"/>
      <point x="37" y="197"/>
      <point x="37" y="133" type="curve" smooth="yes"/>
      <point x="37" y="75"/>
      <point x="164" y="3"/>
      <point x="332" y="-24" type="curve"/>
      <point x="458" y="-261"/>
      <point x="551" y="-345"/>
      <point x="723" y="-345" type="curve" smooth="yes"/>
      <point x="790" y="-345"/>
      <point x="842" y="-331"/>
      <point x="917" y="-289" type="curve"/>
      <point x="816" y="-79" type="line"/>
      <point x="766" y="-106"/>
      <point x="737" y="-116"/>
      <point x="690" y="-116" type="curve" smooth="yes"/>
      <point x="608" y="-116"/>
      <point x="545" y="-99"/>
      <point x="489" y="-35" type="curve"/>
      <point x="829" y="-32"/>
      <point x="1032" y="45"/>
      <point x="1032" y="302" type="curve" smooth="yes"/>
      <point x="1032" y="317"/>
      <point x="1030" y="333"/>
      <point x="1027" y="349" type="curve"/>
      <point x="1064" y="334"/>
      <point x="1101" y="325"/>
      <point x="1139" y="325" type="curve" smooth="yes"/>
      <point x="1200" y="325"/>
      <point x="1283" y="340"/>
      <point x="1407" y="419" type="curve"/>
    </contour>
    <contour>
      <point x="127" y="-240" type="move" name="nukta"/>
    </contour>
  </outline>
</glyph>
<glyph name="uni091E094D091C" format="1">
  <advance width="1452"/>
  <note>
    dNyJa
  </note>
  <outline>
    <contour>
      <point x="1452" y="1187" type="line"/>
      <point x="-50" y="1187" type="line"/>
      <point x="0" y="998" type="line"/>
      <point x="1044" y="998" type="line"/>
      <point x="1044" y="767" type="line"/>
      <point x="1010" y="751"/>
      <point x="972" y="743"/>
      <point x="937" y="743" type="curve"/>
      <point x="851" y="899"/>
      <point x="715" y="952"/>
      <point x="581" y="951" type="curve" smooth="yes"/>
      <point x="478" y="950"/>
      <point x="376" y="917"/>
      <point x="299" y="873" type="curve"/>
      <point x="421" y="642" type="line"/>
      <point x="524" y="702"/>
      <point x="600" y="736"/>
      <point x="678" y="736" type="curve" smooth="yes"/>
      <point x="712" y="736"/>
      <point x="744" y="730"/>
      <point x="771" y="717" type="curve" smooth="yes"/>
      <point x="779" y="713"/>
      <point x="788" y="684"/>
      <point x="788" y="651" type="curve" smooth="yes"/>
      <point x="788" y="581"/>
      <point x="690" y="542"/>
      <point x="568" y="542" type="curve" smooth="yes"/>
      <point x="452" y="542"/>
      <point x="290" y="585"/>
      <point x="123" y="865" type="curve"/>
      <point x="7" y="814" type="line"/>
      <point x="111" y="564"/>
      <point x="312" y="319"/>
      <point x="628" y="319" type="curve" smooth="yes"/>
      <point x="841" y="319"/>
      <point x="975" y="419"/>
      <point x="964" y="592" type="curve"/>
      <point x="993" y="588"/>
      <point x="1017" y="585"/>
      <point x="1044" y="584" type="curve"/>
      <point x="1044" y="409" type="line"/>
      <point x="392" y="161" type="line"/>
      <point x="386" y="133" type="line"/>
      <point x="464" y="23" type="line"/>
      <point x="601" y="69"/>
      <point x="669" y="31"/>
      <point x="669" y="-46" type="curve" smooth="yes"/>
      <point x="669" y="-115"/>
      <point x="612" y="-160"/>
      <point x="511" y="-160" type="curve" smooth="yes"/>
      <point x="448" y="-160"/>
      <point x="355" y="-157"/>
      <point x="167" y="26" type="curve"/>
      <point x="56" y="-68" type="line"/>
      <point x="298" y="-352"/>
      <point x="479" y="-380"/>
      <point x="638" y="-380" type="curve" smooth="yes"/>
      <point x="836" y="-380"/>
      <point x="998" y="-257"/>
      <point x="998" y="-112" type="curve" smooth="yes"/>
      <point x="998" y="-20"/>
      <point x="938" y="104"/>
      <point x="755" y="98" type="curve"/>
      <point x="1044" y="207" type="line"/>
      <point x="1044" y="-42" type="line"/>
      <point x="1331" y="-97" type="line"/>
      <point x="1331" y="998" type="line"/>
      <point x="1497" y="998" type="line"/>
    </contour>
    <contour>
      <point x="1163" y="1187" type="move" name="top"/>
    </contour>
    <contour>
      <point x="1163" y="0" type="move" name="bottom"/>
    </contour>
  </outline>
</glyph>
<glyph name="uni091F094D091F" format="1">
  <advance width="1194"/>
  <note>
    dTtTta
  </note>
  <outline>
    <contour>
      <point x="1000" y="614" type="line"/>
      <point x="827" y="424"/>
      <point x="705" y="352"/>
      <point x="546" y="352" type="curve" smooth="yes"/>
      <point x="475" y="352"/>
      <point x="408" y="364"/>
      <point x="400" y="378" type="curve"/>
      <point x="380" y="403"/>
      <point x="362" y="456"/>
      <point x="362" y="522" type="curve" smooth="yes"/>
      <point x="362" y="636"/>
      <point x="390" y="690"/>
      <point x="632" y="690" type="curve" smooth="yes"/>
      <point x="988" y="690" type="line"/>
      <point x="999" y="717"/>
      <point x="1004" y="758"/>
      <point x="1004" y="804" type="curve" smooth="yes"/>
      <point x="1004" y="866"/>
      <point x="996" y="937"/>
      <point x="985" y="998" type="curve"/>
      <point x="1246" y="998" type="line"/>
      <point x="1202" y="1187" type="line"/>
      <point x="-52" y="1187" type="line"/>
      <point x="-4" y="998" type="line"/>
      <point x="699" y="998" type="line"/>
      <point x="698" y="982" type="line"/>
      <point x="697" y="969"/>
      <point x="695" y="924"/>
      <point x="678" y="883" type="curve"/>
      <point x="465" y="883" type="line" smooth="yes"/>
      <point x="110" y="883"/>
      <point x="53" y="764"/>
      <point x="53" y="613" type="curve" smooth="yes"/>
      <point x="53" y="373"/>
      <point x="355" y="164"/>
      <point x="686" y="164" type="curve" smooth="yes"/>
      <point x="690" y="164"/>
      <point x="693" y="164"/>
      <point x="697" y="164" type="curve"/>
      <point x="696" y="153" type="line" smooth="yes"/>
      <point x="695" y="142"/>
      <point x="693" y="98"/>
      <point x="676" y="58" type="curve"/>
      <point x="471" y="58" type="line" smooth="yes"/>
      <point x="130" y="58"/>
      <point x="75" y="-56"/>
      <point x="75" y="-201" type="curve" smooth="yes"/>
      <point x="75" y="-431"/>
      <point x="365" y="-635"/>
      <point x="684" y="-635" type="curve" smooth="yes"/>
      <point x="888" y="-635"/>
      <point x="1031" y="-584"/>
      <point x="1178" y="-436" type="curve"/>
      <point x="983" y="-199" type="line"/>
      <point x="819" y="-384"/>
      <point x="703" y="-451"/>
      <point x="549" y="-451" type="curve" smooth="yes"/>
      <point x="481" y="-451"/>
      <point x="416" y="-438"/>
      <point x="408" y="-428" type="curve"/>
      <point x="390" y="-402"/>
      <point x="372" y="-351"/>
      <point x="372" y="-287" type="curve" smooth="yes"/>
      <point x="372" y="-179"/>
      <point x="399" y="-126"/>
      <point x="632" y="-126" type="curve" smooth="yes"/>
      <point x="979" y="-126" type="line"/>
      <point x="987" y="-92"/>
      <point x="990" y="-50"/>
      <point x="990" y="-18" type="curve" smooth="yes"/>
      <point x="990" y="51"/>
      <point x="978" y="142"/>
      <point x="963" y="208" type="curve"/>
      <point x="1047" y="240"/>
      <point x="1123" y="291"/>
      <point x="1201" y="367" type="curve"/>
    </contour>
    <contour>
      <point x="837" y="1187" type="move" name="top"/>
    </contour>
    <contour>
      <point x="731" y="-620" type="move" name="bottom"/>
    </contour>
  </outline>
</glyph>
<glyph name="uni091F094D092F" format="1">
  <advance width="2365"/>
  <note>
    dTtYa
  </note>
  <outline>
    <contour>
      <point x="2371" y="1187" type="line"/>
      <point x="1024" y="1187" type="line"/>
      <point x="1073" y="998" type="line"/>
      <point x="1942" y="998" type="line"/>
      <point x="1942" y="517" type="line"/>
      <point x="1882" y="383"/>
      <point x="1723" y="268"/>
      <point x="1570" y="268" type="curve" smooth="yes"/>
      <point x="1482" y="268"/>
      <point x="1442" y="287"/>
      <point x="1372" y="330" type="curve"/>
      <point x="1623" y="356"/>
      <point x="1740" y="468"/>
      <point x="1740" y="590" type="curve" smooth="yes"/>
      <point x="1740" y="714"/>
      <point x="1636" y="788"/>
      <point x="1438" y="788" type="curve" smooth="yes"/>
      <point x="682" y="788" type="line"/>
      <point x="740" y="604" type="line"/>
      <point x="1334" y="604" type="line" smooth="yes"/>
      <point x="1381" y="604"/>
      <point x="1463" y="600"/>
      <point x="1467" y="564" type="curve" smooth="yes"/>
      <point x="1471" y="530"/>
      <point x="1319" y="488"/>
      <point x="1113" y="460" type="curve"/>
      <point x="1233" y="131"/>
      <point x="1419" y="40"/>
      <point x="1666" y="40" type="curve" smooth="yes"/>
      <point x="1753" y="40"/>
      <point x="1847" y="58"/>
      <point x="1942" y="110" type="curve"/>
      <point x="1942" y="-41" type="line"/>
      <point x="2239" y="-102" type="line"/>
      <point x="2239" y="998" type="line"/>
      <point x="2417" y="998" type="line"/>
    </contour>
    <component base="ttadeva"/>
  </outline>
</glyph>
<glyph name="uni0920094D0928" format="1">
  <advance width="1276"/>
  <note>
    dTthNa
  </note>
  <outline>
    <contour>
      <point x="997" y="750"/>
      <point x="1004" y="791"/>
      <point x="1004" y="845" type="curve" smooth="yes"/>
      <point x="1004" y="896"/>
      <point x="990" y="950"/>
      <point x="972" y="998" type="curve"/>
      <point x="1328" y="998" type="line"/>
      <point x="1284" y="1187" type="line"/>
      <point x="-52" y="1187" type="line"/>
      <point x="-4" y="998" type="line"/>
      <point x="683" y="998" type="line"/>
      <point x="681" y="954"/>
      <point x="673" y="918"/>
      <point x="661" y="895" type="curve"/>
      <point x="490" y="895" type="line" smooth="yes"/>
      <point x="165" y="895"/>
      <point x="69" y="751"/>
      <point x="69" y="604" type="curve" smooth="yes"/>
      <point x="69" y="276"/>
      <point x="407" y="163"/>
      <point x="732" y="163" type="curve" smooth="yes"/>
      <point x="743" y="163" type="line"/>
      <point x="743" y="11" type="line"/>
      <point x="325" y="11" type="line" smooth="yes"/>
      <point x="261" y="11"/>
      <point x="203" y="9"/>
      <point x="162" y="-2" type="curve" smooth="yes"/>
      <point x="133" y="-10"/>
      <point x="122" y="-28"/>
      <point x="122" y="-52" type="curve" smooth="yes"/>
      <point x="122" y="-188"/>
      <point x="230" y="-342"/>
      <point x="357" y="-399" type="curve" smooth="yes"/>
      <point x="371" y="-405"/>
      <point x="384" y="-407"/>
      <point x="398" y="-407" type="curve" smooth="yes"/>
      <point x="413" y="-407"/>
      <point x="427" y="-405"/>
      <point x="438" y="-396" type="curve" smooth="yes"/>
      <point x="489" y="-355"/>
      <point x="510" y="-265"/>
      <point x="516" y="-179" type="curve"/>
      <point x="743" y="-179" type="line"/>
      <point x="743" y="-481" type="line"/>
      <point x="1010" y="-535" type="line"/>
      <point x="1010" y="208" type="line"/>
      <point x="1032" y="216"/>
      <point x="1052" y="225"/>
      <point x="1072" y="236" type="curve" smooth="yes"/>
      <point x="1162" y="284"/>
      <point x="1214" y="353"/>
      <point x="1216" y="453" type="curve" smooth="yes"/>
      <point x="1216" y="577"/>
      <point x="1147" y="653"/>
      <point x="981" y="725" type="curve"/>
    </contour>
    <contour>
      <point x="525" y="326"/>
      <point x="449" y="337"/>
      <point x="438" y="349" type="curve"/>
      <point x="419" y="372"/>
      <point x="385" y="449"/>
      <point x="385" y="534" type="curve" smooth="yes"/>
      <point x="385" y="670"/>
      <point x="491" y="694"/>
      <point x="636" y="694" type="curve" smooth="yes"/>
      <point x="872" y="694" type="line"/>
      <point x="908" y="634"/>
      <point x="910" y="591"/>
      <point x="910" y="549" type="curve" smooth="yes"/>
      <point x="910" y="474"/>
      <point x="894" y="424"/>
      <point x="827" y="379" type="curve" smooth="yes"/>
      <point x="762" y="335"/>
      <point x="670" y="326"/>
      <point x="580" y="326" type="curve" smooth="yes"/>
    </contour>
    <contour>
      <point x="789" y="1187" type="move" name="top"/>
    </contour>
    <contour>
      <point x="857" y="-460" type="move" name="bottom"/>
    </contour>
  </outline>
</glyph>
